<?xml version="1.0" encoding="UTF-8" standalone="yes"?><svg xmlns="http://www.w3.org/2000/svg" xmlns:xlink="http://www.w3.org/1999/xlink" height="173pt" style="width:1140px;height:173px;" version="1.1" viewBox="0 0 1140 173" width="1140pt"><defs><filter height="300%" id="f1" width="300%" x="-1" y="-1"><feGaussianBlur result="blurOut" stdDeviation="2"/><feColorMatrix in="blurOut" result="blurOut2" type="matrix" values="0 0 0 0 0 0 0 0 0 0 0 0 0 0 0 0 0 0 .4 0"/><feOffset dx="4" dy="4" in="blurOut2" result="blurOut3"/><feBlend in="SourceGraphic" in2="blurOut3" mode="normal"/></filter></defs><g><rect fill="#FEFECE" filter="url(#f1)" height="48" style="stroke: #A80036; stroke-width: 1.5;" width="81" x="6" y="8"/><ellipse cx="21" cy="24" fill="#ADD1B2" rx="11" ry="11" style="stroke: #A80036; stroke-width: 1.0;"/><path d="M23.9688,29.6406 Q23.3906,29.9375 22.75,30.0859 Q22.1094,30.2344 21.4063,30.2344 Q18.9063,30.2344 17.5859,28.5859 Q16.2656,26.9375 16.2656,23.8125 Q16.2656,20.6875 17.5859,19.0313 Q18.9063,17.375 21.4063,17.375 Q22.1094,17.375 22.7578,17.5313 Q23.4063,17.6875 23.9688,17.9844 L23.9688,20.7031 Q23.3438,20.125 22.75,19.8516 Q22.1563,19.5781 21.5313,19.5781 Q20.1875,19.5781 19.5,20.6484 Q18.8125,21.7188 18.8125,23.8125 Q18.8125,25.9063 19.5,26.9766 Q20.1875,28.0469 21.5313,28.0469 Q22.1563,28.0469 22.75,27.7734 Q23.3438,27.5 23.9688,26.9219 L23.9688,29.6406 Z "/><text fill="#000000" font-size="12" lengthAdjust="spacingAndGlyphs" textLength="49" x="35" y="29.0156">Class01</text><line style="stroke: #A80036; stroke-width: 1.5;" x1="7" x2="86" y1="40" y2="40"/><line style="stroke: #A80036; stroke-width: 1.5;" x1="7" x2="86" y1="48" y2="48"/><rect fill="#FEFECE" filter="url(#f1)" height="48" style="stroke: #A80036; stroke-width: 1.5;" width="81" x="6" y="116"/><ellipse cx="21" cy="132" fill="#ADD1B2" rx="11" ry="11" style="stroke: #A80036; stroke-width: 1.0;"/><path d="M23.9688,137.6406 Q23.3906,137.9375 22.75,138.0859 Q22.1094,138.2344 21.4063,138.2344 Q18.9063,138.2344 17.5859,136.5859 Q16.2656,134.9375 16.2656,131.8125 Q16.2656,128.6875 17.5859,127.0313 Q18.9063,125.375 21.4063,125.375 Q22.1094,125.375 22.7578,125.5313 Q23.4063,125.6875 23.9688,125.9844 L23.9688,128.7031 Q23.3438,128.125 22.75,127.8516 Q22.1563,127.5781 21.5313,127.5781 Q20.1875,127.5781 19.5,128.6484 Q18.8125,129.7188 18.8125,131.8125 Q18.8125,133.9063 19.5,134.9766 Q20.1875,136.0469 21.5313,136.0469 Q22.1563,136.0469 22.75,135.7734 Q23.3438,135.5 23.9688,134.9219 L23.9688,137.6406 Z "/><text fill="#000000" font-size="12" lengthAdjust="spacingAndGlyphs" textLength="49" x="35" y="137.0156">Class02</text><line style="stroke: #A80036; stroke-width: 1.5;" x1="7" x2="86" y1="148" y2="148"/><line style="stroke: #A80036; stroke-width: 1.5;" x1="7" x2="86" y1="156" y2="156"/><rect fill="#FEFECE" filter="url(#f1)" height="48" style="stroke: #A80036; stroke-width: 1.5;" width="81" x="122" y="8"/><ellipse cx="137" cy="24" fill="#ADD1B2" rx="11" ry="11" style="stroke: #A80036; stroke-width: 1.0;"/><path d="M139.9688,29.6406 Q139.3906,29.9375 138.75,30.0859 Q138.1094,30.2344 137.4063,30.2344 Q134.9063,30.2344 133.5859,28.5859 Q132.2656,26.9375 132.2656,23.8125 Q132.2656,20.6875 133.5859,19.0313 Q134.9063,17.375 137.4063,17.375 Q138.1094,17.375 138.7578,17.5313 Q139.4063,17.6875 139.9688,17.9844 L139.9688,20.7031 Q139.3438,20.125 138.75,19.8516 Q138.1563,19.5781 137.5313,19.5781 Q136.1875,19.5781 135.5,20.6484 Q134.8125,21.7188 134.8125,23.8125 Q134.8125,25.9063 135.5,26.9766 Q136.1875,28.0469 137.5313,28.0469 Q138.1563,28.0469 138.75,27.7734 Q139.3438,27.5 139.9688,26.9219 L139.9688,29.6406 Z "/><text fill="#000000" font-size="12" lengthAdjust="spacingAndGlyphs" textLength="49" x="151" y="29.0156">Class03</text><line style="stroke: #A80036; stroke-width: 1.5;" x1="123" x2="202" y1="40" y2="40"/><line style="stroke: #A80036; stroke-width: 1.5;" x1="123" x2="202" y1="48" y2="48"/><rect fill="#FEFECE" filter="url(#f1)" height="48" style="stroke: #A80036; stroke-width: 1.5;" width="81" x="122" y="116"/><ellipse cx="137" cy="132" fill="#ADD1B2" rx="11" ry="11" style="stroke: #A80036; stroke-width: 1.0;"/><path d="M139.9688,137.6406 Q139.3906,137.9375 138.75,138.0859 Q138.1094,138.2344 137.4063,138.2344 Q134.9063,138.2344 133.5859,136.5859 Q132.2656,134.9375 132.2656,131.8125 Q132.2656,128.6875 133.5859,127.0313 Q134.9063,125.375 137.4063,125.375 Q138.1094,125.375 138.7578,125.5313 Q139.4063,125.6875 139.9688,125.9844 L139.9688,128.7031 Q139.3438,128.125 138.75,127.8516 Q138.1563,127.5781 137.5313,127.5781 Q136.1875,127.5781 135.5,128.6484 Q134.8125,129.7188 134.8125,131.8125 Q134.8125,133.9063 135.5,134.9766 Q136.1875,136.0469 137.5313,136.0469 Q138.1563,136.0469 138.75,135.7734 Q139.3438,135.5 139.9688,134.9219 L139.9688,137.6406 Z "/><text fill="#000000" font-size="12" lengthAdjust="spacingAndGlyphs" textLength="49" x="151" y="137.0156">Class04</text><line style="stroke: #A80036; stroke-width: 1.5;" x1="123" x2="202" y1="148" y2="148"/><line style="stroke: #A80036; stroke-width: 1.5;" x1="123" x2="202" y1="156" y2="156"/><rect fill="#FEFECE" filter="url(#f1)" height="48" style="stroke: #A80036; stroke-width: 1.5;" width="81" x="238" y="8"/><ellipse cx="253" cy="24" fill="#ADD1B2" rx="11" ry="11" style="stroke: #A80036; stroke-width: 1.0;"/><path d="M255.9688,29.6406 Q255.3906,29.9375 254.75,30.0859 Q254.1094,30.2344 253.4063,30.2344 Q250.9063,30.2344 249.5859,28.5859 Q248.2656,26.9375 248.2656,23.8125 Q248.2656,20.6875 249.5859,19.0313 Q250.9063,17.375 253.4063,17.375 Q254.1094,17.375 254.7578,17.5313 Q255.4063,17.6875 255.9688,17.9844 L255.9688,20.7031 Q255.3438,20.125 254.75,19.8516 Q254.1563,19.5781 253.5313,19.5781 Q252.1875,19.5781 251.5,20.6484 Q250.8125,21.7188 250.8125,23.8125 Q250.8125,25.9063 251.5,26.9766 Q252.1875,28.0469 253.5313,28.0469 Q254.1563,28.0469 254.75,27.7734 Q255.3438,27.5 255.9688,26.9219 L255.9688,29.6406 Z "/><text fill="#000000" font-size="12" lengthAdjust="spacingAndGlyphs" textLength="49" x="267" y="29.0156">Class05</text><line style="stroke: #A80036; stroke-width: 1.5;" x1="239" x2="318" y1="40" y2="40"/><line style="stroke: #A80036; stroke-width: 1.5;" x1="239" x2="318" y1="48" y2="48"/><rect fill="#FEFECE" filter="url(#f1)" height="48" style="stroke: #A80036; stroke-width: 1.5;" width="81" x="238" y="116"/><ellipse cx="253" cy="132" fill="#ADD1B2" rx="11" ry="11" style="stroke: #A80036; stroke-width: 1.0;"/><path d="M255.9688,137.6406 Q255.3906,137.9375 254.75,138.0859 Q254.1094,138.2344 253.4063,138.2344 Q250.9063,138.2344 249.5859,136.5859 Q248.2656,134.9375 248.2656,131.8125 Q248.2656,128.6875 249.5859,127.0313 Q250.9063,125.375 253.4063,125.375 Q254.1094,125.375 254.7578,125.5313 Q255.4063,125.6875 255.9688,125.9844 L255.9688,128.7031 Q255.3438,128.125 254.75,127.8516 Q254.1563,127.5781 253.5313,127.5781 Q252.1875,127.5781 251.5,128.6484 Q250.8125,129.7188 250.8125,131.8125 Q250.8125,133.9063 251.5,134.9766 Q252.1875,136.0469 253.5313,136.0469 Q254.1563,136.0469 254.75,135.7734 Q255.3438,135.5 255.9688,134.9219 L255.9688,137.6406 Z "/><text fill="#000000" font-size="12" lengthAdjust="spacingAndGlyphs" textLength="49" x="267" y="137.0156">Class06</text><line style="stroke: #A80036; stroke-width: 1.5;" x1="239" x2="318" y1="148" y2="148"/><line style="stroke: #A80036; stroke-width: 1.5;" x1="239" x2="318" y1="156" y2="156"/><rect fill="#FEFECE" filter="url(#f1)" height="48" style="stroke: #A80036; stroke-width: 1.5;" width="81" x="354" y="8"/><ellipse cx="369" cy="24" fill="#ADD1B2" rx="11" ry="11" style="stroke: #A80036; stroke-width: 1.0;"/><path d="M371.9688,29.6406 Q371.3906,29.9375 370.75,30.0859 Q370.1094,30.2344 369.4063,30.2344 Q366.9063,30.2344 365.5859,28.5859 Q364.2656,26.9375 364.2656,23.8125 Q364.2656,20.6875 365.5859,19.0313 Q366.9063,17.375 369.4063,17.375 Q370.1094,17.375 370.7578,17.5313 Q371.4063,17.6875 371.9688,17.9844 L371.9688,20.7031 Q371.3438,20.125 370.75,19.8516 Q370.1563,19.5781 369.5313,19.5781 Q368.1875,19.5781 367.5,20.6484 Q366.8125,21.7188 366.8125,23.8125 Q366.8125,25.9063 367.5,26.9766 Q368.1875,28.0469 369.5313,28.0469 Q370.1563,28.0469 370.75,27.7734 Q371.3438,27.5 371.9688,26.9219 L371.9688,29.6406 Z "/><text fill="#000000" font-size="12" lengthAdjust="spacingAndGlyphs" textLength="49" x="383" y="29.0156">Class07</text><line style="stroke: #A80036; stroke-width: 1.5;" x1="355" x2="434" y1="40" y2="40"/><line style="stroke: #A80036; stroke-width: 1.5;" x1="355" x2="434" y1="48" y2="48"/><rect fill="#FEFECE" filter="url(#f1)" height="48" style="stroke: #A80036; stroke-width: 1.5;" width="81" x="354" y="116"/><ellipse cx="369" cy="132" fill="#ADD1B2" rx="11" ry="11" style="stroke: #A80036; stroke-width: 1.0;"/><path d="M371.9688,137.6406 Q371.3906,137.9375 370.75,138.0859 Q370.1094,138.2344 369.4063,138.2344 Q366.9063,138.2344 365.5859,136.5859 Q364.2656,134.9375 364.2656,131.8125 Q364.2656,128.6875 365.5859,127.0313 Q366.9063,125.375 369.4063,125.375 Q370.1094,125.375 370.7578,125.5313 Q371.4063,125.6875 371.9688,125.9844 L371.9688,128.7031 Q371.3438,128.125 370.75,127.8516 Q370.1563,127.5781 369.5313,127.5781 Q368.1875,127.5781 367.5,128.6484 Q366.8125,129.7188 366.8125,131.8125 Q366.8125,133.9063 367.5,134.9766 Q368.1875,136.0469 369.5313,136.0469 Q370.1563,136.0469 370.75,135.7734 Q371.3438,135.5 371.9688,134.9219 L371.9688,137.6406 Z "/><text fill="#000000" font-size="12" lengthAdjust="spacingAndGlyphs" textLength="49" x="383" y="137.0156">Class08</text><line style="stroke: #A80036; stroke-width: 1.5;" x1="355" x2="434" y1="148" y2="148"/><line style="stroke: #A80036; stroke-width: 1.5;" x1="355" x2="434" y1="156" y2="156"/><rect fill="#FEFECE" filter="url(#f1)" height="48" style="stroke: #A80036; stroke-width: 1.5;" width="81" x="470" y="8"/><ellipse cx="485" cy="24" fill="#ADD1B2" rx="11" ry="11" style="stroke: #A80036; stroke-width: 1.0;"/><path d="M487.9688,29.6406 Q487.3906,29.9375 486.75,30.0859 Q486.1094,30.2344 485.4063,30.2344 Q482.9063,30.2344 481.5859,28.5859 Q480.2656,26.9375 480.2656,23.8125 Q480.2656,20.6875 481.5859,19.0313 Q482.9063,17.375 485.4063,17.375 Q486.1094,17.375 486.7578,17.5313 Q487.4063,17.6875 487.9688,17.9844 L487.9688,20.7031 Q487.3438,20.125 486.75,19.8516 Q486.1563,19.5781 485.5313,19.5781 Q484.1875,19.5781 483.5,20.6484 Q482.8125,21.7188 482.8125,23.8125 Q482.8125,25.9063 483.5,26.9766 Q484.1875,28.0469 485.5313,28.0469 Q486.1563,28.0469 486.75,27.7734 Q487.3438,27.5 487.9688,26.9219 L487.9688,29.6406 Z "/><text fill="#000000" font-size="12" lengthAdjust="spacingAndGlyphs" textLength="49" x="499" y="29.0156">Class09</text><line style="stroke: #A80036; stroke-width: 1.5;" x1="471" x2="550" y1="40" y2="40"/><line style="stroke: #A80036; stroke-width: 1.5;" x1="471" x2="550" y1="48" y2="48"/><rect fill="#FEFECE" filter="url(#f1)" height="48" style="stroke: #A80036; stroke-width: 1.5;" width="81" x="470" y="116"/><ellipse cx="485" cy="132" fill="#ADD1B2" rx="11" ry="11" style="stroke: #A80036; stroke-width: 1.0;"/><path d="M487.9688,137.6406 Q487.3906,137.9375 486.75,138.0859 Q486.1094,138.2344 485.4063,138.2344 Q482.9063,138.2344 481.5859,136.5859 Q480.2656,134.9375 480.2656,131.8125 Q480.2656,128.6875 481.5859,127.0313 Q482.9063,125.375 485.4063,125.375 Q486.1094,125.375 486.7578,125.5313 Q487.4063,125.6875 487.9688,125.9844 L487.9688,128.7031 Q487.3438,128.125 486.75,127.8516 Q486.1563,127.5781 485.5313,127.5781 Q484.1875,127.5781 483.5,128.6484 Q482.8125,129.7188 482.8125,131.8125 Q482.8125,133.9063 483.5,134.9766 Q484.1875,136.0469 485.5313,136.0469 Q486.1563,136.0469 486.75,135.7734 Q487.3438,135.5 487.9688,134.9219 L487.9688,137.6406 Z "/><text fill="#000000" font-size="12" lengthAdjust="spacingAndGlyphs" textLength="49" x="499" y="137.0156">Class10</text><line style="stroke: #A80036; stroke-width: 1.5;" x1="471" x2="550" y1="148" y2="148"/><line style="stroke: #A80036; stroke-width: 1.5;" x1="471" x2="550" y1="156" y2="156"/><rect fill="#FEFECE" filter="url(#f1)" height="48" style="stroke: #A80036; stroke-width: 1.5;" width="81" x="586" y="8"/><ellipse cx="601" cy="24" fill="#ADD1B2" rx="11" ry="11" style="stroke: #A80036; stroke-width: 1.0;"/><path d="M603.9688,29.6406 Q603.3906,29.9375 602.75,30.0859 Q602.1094,30.2344 601.4063,30.2344 Q598.9063,30.2344 597.5859,28.5859 Q596.2656,26.9375 596.2656,23.8125 Q596.2656,20.6875 597.5859,19.0313 Q598.9063,17.375 601.4063,17.375 Q602.1094,17.375 602.7578,17.5313 Q603.4063,17.6875 603.9688,17.9844 L603.9688,20.7031 Q603.3438,20.125 602.75,19.8516 Q602.1563,19.5781 601.5313,19.5781 Q600.1875,19.5781 599.5,20.6484 Q598.8125,21.7188 598.8125,23.8125 Q598.8125,25.9063 599.5,26.9766 Q600.1875,28.0469 601.5313,28.0469 Q602.1563,28.0469 602.75,27.7734 Q603.3438,27.5 603.9688,26.9219 L603.9688,29.6406 Z "/><text fill="#000000" font-size="12" lengthAdjust="spacingAndGlyphs" textLength="49" x="615" y="29.0156">Class11</text><line style="stroke: #A80036; stroke-width: 1.5;" x1="587" x2="666" y1="40" y2="40"/><line style="stroke: #A80036; stroke-width: 1.5;" x1="587" x2="666" y1="48" y2="48"/><rect fill="#FEFECE" filter="url(#f1)" height="48" style="stroke: #A80036; stroke-width: 1.5;" width="81" x="586" y="116"/><ellipse cx="601" cy="132" fill="#ADD1B2" rx="11" ry="11" style="stroke: #A80036; stroke-width: 1.0;"/><path d="M603.9688,137.6406 Q603.3906,137.9375 602.75,138.0859 Q602.1094,138.2344 601.4063,138.2344 Q598.9063,138.2344 597.5859,136.5859 Q596.2656,134.9375 596.2656,131.8125 Q596.2656,128.6875 597.5859,127.0313 Q598.9063,125.375 601.4063,125.375 Q602.1094,125.375 602.7578,125.5313 Q603.4063,125.6875 603.9688,125.9844 L603.9688,128.7031 Q603.3438,128.125 602.75,127.8516 Q602.1563,127.5781 601.5313,127.5781 Q600.1875,127.5781 599.5,128.6484 Q598.8125,129.7188 598.8125,131.8125 Q598.8125,133.9063 599.5,134.9766 Q600.1875,136.0469 601.5313,136.0469 Q602.1563,136.0469 602.75,135.7734 Q603.3438,135.5 603.9688,134.9219 L603.9688,137.6406 Z "/><text fill="#000000" font-size="12" lengthAdjust="spacingAndGlyphs" textLength="49" x="615" y="137.0156">Class12</text><line style="stroke: #A80036; stroke-width: 1.5;" x1="587" x2="666" y1="148" y2="148"/><line style="stroke: #A80036; stroke-width: 1.5;" x1="587" x2="666" y1="156" y2="156"/><rect fill="#FEFECE" filter="url(#f1)" height="48" style="stroke: #A80036; stroke-width: 1.5;" width="81" x="702" y="8"/><ellipse cx="717" cy="24" fill="#ADD1B2" rx="11" ry="11" style="stroke: #A80036; stroke-width: 1.0;"/><path d="M719.9688,29.6406 Q719.3906,29.9375 718.75,30.0859 Q718.1094,30.2344 717.4063,30.2344 Q714.9063,30.2344 713.5859,28.5859 Q712.2656,26.9375 712.2656,23.8125 Q712.2656,20.6875 713.5859,19.0313 Q714.9063,17.375 717.4063,17.375 Q718.1094,17.375 718.7578,17.5313 Q719.4063,17.6875 719.9688,17.9844 L719.9688,20.7031 Q719.3438,20.125 718.75,19.8516 Q718.1563,19.5781 717.5313,19.5781 Q716.1875,19.5781 715.5,20.6484 Q714.8125,21.7188 714.8125,23.8125 Q714.8125,25.9063 715.5,26.9766 Q716.1875,28.0469 717.5313,28.0469 Q718.1563,28.0469 718.75,27.7734 Q719.3438,27.5 719.9688,26.9219 L719.9688,29.6406 Z "/><text fill="#000000" font-size="12" lengthAdjust="spacingAndGlyphs" textLength="49" x="731" y="29.0156">Class13</text><line style="stroke: #A80036; stroke-width: 1.5;" x1="703" x2="782" y1="40" y2="40"/><line style="stroke: #A80036; stroke-width: 1.5;" x1="703" x2="782" y1="48" y2="48"/><rect fill="#FEFECE" filter="url(#f1)" height="48" style="stroke: #A80036; stroke-width: 1.5;" width="81" x="702" y="116"/><ellipse cx="717" cy="132" fill="#ADD1B2" rx="11" ry="11" style="stroke: #A80036; stroke-width: 1.0;"/><path d="M719.9688,137.6406 Q719.3906,137.9375 718.75,138.0859 Q718.1094,138.2344 717.4063,138.2344 Q714.9063,138.2344 713.5859,136.5859 Q712.2656,134.9375 712.2656,131.8125 Q712.2656,128.6875 713.5859,127.0313 Q714.9063,125.375 717.4063,125.375 Q718.1094,125.375 718.7578,125.5313 Q719.4063,125.6875 719.9688,125.9844 L719.9688,128.7031 Q719.3438,128.125 718.75,127.8516 Q718.1563,127.5781 717.5313,127.5781 Q716.1875,127.5781 715.5,128.6484 Q714.8125,129.7188 714.8125,131.8125 Q714.8125,133.9063 715.5,134.9766 Q716.1875,136.0469 717.5313,136.0469 Q718.1563,136.0469 718.75,135.7734 Q719.3438,135.5 719.9688,134.9219 L719.9688,137.6406 Z "/><text fill="#000000" font-size="12" lengthAdjust="spacingAndGlyphs" textLength="49" x="731" y="137.0156">Class14</text><line style="stroke: #A80036; stroke-width: 1.5;" x1="703" x2="782" y1="148" y2="148"/><line style="stroke: #A80036; stroke-width: 1.5;" x1="703" x2="782" y1="156" y2="156"/><rect fill="#FEFECE" filter="url(#f1)" height="48" style="stroke: #A80036; stroke-width: 1.5;" width="81" x="818" y="8"/><ellipse cx="833" cy="24" fill="#ADD1B2" rx="11" ry="11" style="stroke: #A80036; stroke-width: 1.0;"/><path d="M835.9688,29.6406 Q835.3906,29.9375 834.75,30.0859 Q834.1094,30.2344 833.4063,30.2344 Q830.9063,30.2344 829.5859,28.5859 Q828.2656,26.9375 828.2656,23.8125 Q828.2656,20.6875 829.5859,19.0313 Q830.9063,17.375 833.4063,17.375 Q834.1094,17.375 834.7578,17.5313 Q835.4063,17.6875 835.9688,17.9844 L835.9688,20.7031 Q835.3438,20.125 834.75,19.8516 Q834.1563,19.5781 833.5313,19.5781 Q832.1875,19.5781 831.5,20.6484 Q830.8125,21.7188 830.8125,23.8125 Q830.8125,25.9063 831.5,26.9766 Q832.1875,28.0469 833.5313,28.0469 Q834.1563,28.0469 834.75,27.7734 Q835.3438,27.5 835.9688,26.9219 L835.9688,29.6406 Z "/><text fill="#000000" font-size="12" lengthAdjust="spacingAndGlyphs" textLength="49" x="847" y="29.0156">Class15</text><line style="stroke: #A80036; stroke-width: 1.5;" x1="819" x2="898" y1="40" y2="40"/><line style="stroke: #A80036; stroke-width: 1.5;" x1="819" x2="898" y1="48" y2="48"/><rect fill="#FEFECE" filter="url(#f1)" height="48" style="stroke: #A80036; stroke-width: 1.5;" width="81" x="818" y="116"/><ellipse cx="833" cy="132" fill="#ADD1B2" rx="11" ry="11" style="stroke: #A80036; stroke-width: 1.0;"/><path d="M835.9688,137.6406 Q835.3906,137.9375 834.75,138.0859 Q834.1094,138.2344 833.4063,138.2344 Q830.9063,138.2344 829.5859,136.5859 Q828.2656,134.9375 828.2656,131.8125 Q828.2656,128.6875 829.5859,127.0313 Q830.9063,125.375 833.4063,125.375 Q834.1094,125.375 834.7578,125.5313 Q835.4063,125.6875 835.9688,125.9844 L835.9688,128.7031 Q835.3438,128.125 834.75,127.8516 Q834.1563,127.5781 833.5313,127.5781 Q832.1875,127.5781 831.5,128.6484 Q830.8125,129.7188 830.8125,131.8125 Q830.8125,133.9063 831.5,134.9766 Q832.1875,136.0469 833.5313,136.0469 Q834.1563,136.0469 834.75,135.7734 Q835.3438,135.5 835.9688,134.9219 L835.9688,137.6406 Z "/><text fill="#000000" font-size="12" lengthAdjust="spacingAndGlyphs" textLength="49" x="847" y="137.0156">Class16</text><line style="stroke: #A80036; stroke-width: 1.5;" x1="819" x2="898" y1="148" y2="148"/><line style="stroke: #A80036; stroke-width: 1.5;" x1="819" x2="898" y1="156" y2="156"/><rect fill="#FEFECE" filter="url(#f1)" height="48" style="stroke: #A80036; stroke-width: 1.5;" width="81" x="934" y="8"/><ellipse cx="949" cy="24" fill="#ADD1B2" rx="11" ry="11" style="stroke: #A80036; stroke-width: 1.0;"/><path d="M951.9688,29.6406 Q951.3906,29.9375 950.75,30.0859 Q950.1094,30.2344 949.4063,30.2344 Q946.9063,30.2344 945.5859,28.5859 Q944.2656,26.9375 944.2656,23.8125 Q944.2656,20.6875 945.5859,19.0313 Q946.9063,17.375 949.4063,17.375 Q950.1094,17.375 950.7578,17.5313 Q951.4063,17.6875 951.9688,17.9844 L951.9688,20.7031 Q951.3438,20.125 950.75,19.8516 Q950.1563,19.5781 949.5313,19.5781 Q948.1875,19.5781 947.5,20.6484 Q946.8125,21.7188 946.8125,23.8125 Q946.8125,25.9063 947.5,26.9766 Q948.1875,28.0469 949.5313,28.0469 Q950.1563,28.0469 950.75,27.7734 Q951.3438,27.5 951.9688,26.9219 L951.9688,29.6406 Z "/><text fill="#000000" font-size="12" lengthAdjust="spacingAndGlyphs" textLength="49" x="963" y="29.0156">Class17</text><line style="stroke: #A80036; stroke-width: 1.5;" x1="935" x2="1014" y1="40" y2="40"/><line style="stroke: #A80036; stroke-width: 1.5;" x1="935" x2="1014" y1="48" y2="48"/><rect fill="#FEFECE" filter="url(#f1)" height="48" style="stroke: #A80036; stroke-width: 1.5;" width="81" x="934" y="116"/><ellipse cx="949" cy="132" fill="#ADD1B2" rx="11" ry="11" style="stroke: #A80036; stroke-width: 1.0;"/><path d="M951.9688,137.6406 Q951.3906,137.9375 950.75,138.0859 Q950.1094,138.2344 949.4063,138.2344 Q946.9063,138.2344 945.5859,136.5859 Q944.2656,134.9375 944.2656,131.8125 Q944.2656,128.6875 945.5859,127.0313 Q946.9063,125.375 949.4063,125.375 Q950.1094,125.375 950.7578,125.5313 Q951.4063,125.6875 951.9688,125.9844 L951.9688,128.7031 Q951.3438,128.125 950.75,127.8516 Q950.1563,127.5781 949.5313,127.5781 Q948.1875,127.5781 947.5,128.6484 Q946.8125,129.7188 946.8125,131.8125 Q946.8125,133.9063 947.5,134.9766 Q948.1875,136.0469 949.5313,136.0469 Q950.1563,136.0469 950.75,135.7734 Q951.3438,135.5 951.9688,134.9219 L951.9688,137.6406 Z "/><text fill="#000000" font-size="12" lengthAdjust="spacingAndGlyphs" textLength="49" x="963" y="137.0156">Class18</text><line style="stroke: #A80036; stroke-width: 1.5;" x1="935" x2="1014" y1="148" y2="148"/><line style="stroke: #A80036; stroke-width: 1.5;" x1="935" x2="1014" y1="156" y2="156"/><rect fill="#FEFECE" filter="url(#f1)" height="48" style="stroke: #A80036; stroke-width: 1.5;" width="81" x="1050" y="8"/><ellipse cx="1065" cy="24" fill="#ADD1B2" rx="11" ry="11" style="stroke: #A80036; stroke-width: 1.0;"/><path d="M1067.9688,29.6406 Q1067.3906,29.9375 1066.75,30.0859 Q1066.1094,30.2344 1065.4063,30.2344 Q1062.9063,30.2344 1061.5859,28.5859 Q1060.2656,26.9375 1060.2656,23.8125 Q1060.2656,20.6875 1061.5859,19.0313 Q1062.9063,17.375 1065.4063,17.375 Q1066.1094,17.375 1066.7578,17.5313 Q1067.4063,17.6875 1067.9688,17.9844 L1067.9688,20.7031 Q1067.3438,20.125 1066.75,19.8516 Q1066.1563,19.5781 1065.5313,19.5781 Q1064.1875,19.5781 1063.5,20.6484 Q1062.8125,21.7188 1062.8125,23.8125 Q1062.8125,25.9063 1063.5,26.9766 Q1064.1875,28.0469 1065.5313,28.0469 Q1066.1563,28.0469 1066.75,27.7734 Q1067.3438,27.5 1067.9688,26.9219 L1067.9688,29.6406 Z "/><text fill="#000000" font-size="12" lengthAdjust="spacingAndGlyphs" textLength="49" x="1079" y="29.0156">Class19</text><line style="stroke: #A80036; stroke-width: 1.5;" x1="1051" x2="1130" y1="40" y2="40"/><line style="stroke: #A80036; stroke-width: 1.5;" x1="1051" x2="1130" y1="48" y2="48"/><rect fill="#FEFECE" filter="url(#f1)" height="48" style="stroke: #A80036; stroke-width: 1.5;" width="81" x="1050" y="116"/><ellipse cx="1065" cy="132" fill="#ADD1B2" rx="11" ry="11" style="stroke: #A80036; stroke-width: 1.0;"/><path d="M1067.9688,137.6406 Q1067.3906,137.9375 1066.75,138.0859 Q1066.1094,138.2344 1065.4063,138.2344 Q1062.9063,138.2344 1061.5859,136.5859 Q1060.2656,134.9375 1060.2656,131.8125 Q1060.2656,128.6875 1061.5859,127.0313 Q1062.9063,125.375 1065.4063,125.375 Q1066.1094,125.375 1066.7578,125.5313 Q1067.4063,125.6875 1067.9688,125.9844 L1067.9688,128.7031 Q1067.3438,128.125 1066.75,127.8516 Q1066.1563,127.5781 1065.5313,127.5781 Q1064.1875,127.5781 1063.5,128.6484 Q1062.8125,129.7188 1062.8125,131.8125 Q1062.8125,133.9063 1063.5,134.9766 Q1064.1875,136.0469 1065.5313,136.0469 Q1066.1563,136.0469 1066.75,135.7734 Q1067.3438,135.5 1067.9688,134.9219 L1067.9688,137.6406 Z "/><text fill="#000000" font-size="12" lengthAdjust="spacingAndGlyphs" textLength="49" x="1079" y="137.0156">Class20</text><line style="stroke: #A80036; stroke-width: 1.5;" x1="1051" x2="1130" y1="148" y2="148"/><line style="stroke: #A80036; stroke-width: 1.5;" x1="1051" x2="1130" y1="156" y2="156"/><path d="M46.25,76.0236 C46.25,89.5792 46.25,104.0381 46.25,115.6784 " fill="none" style="stroke: #A80036; stroke-width: 1.0;"/><polygon fill="none" points="39.2501,76.0005,46.25,56,53.2501,76.0004,39.2501,76.0005" style="stroke: #A80036; stroke-width: 1.0;"/><path d="M162.25,69.3383 C162.25,84.6813 162.25,102.098 162.25,115.6784 " fill="none" style="stroke: #A80036; stroke-width: 1.0;"/><polygon fill="#A80036" points="162.25,56,158.25,62,162.25,68,166.25,62,162.25,56" style="stroke: #A80036; stroke-width: 1.0;"/><path d="M278.25,69.3383 C278.25,84.6813 278.25,102.098 278.25,115.6784 " fill="none" style="stroke: #A80036; stroke-width: 1.0;"/><polygon fill="none" points="278.25,56,274.25,62,278.25,68,282.25,62,278.25,56" style="stroke: #A80036; stroke-width: 1.0;"/><path d="M394.25,56 C394.25,73.6584 394.25,97.9408 394.25,115.6784 " fill="none" style="stroke: #A80036; stroke-width: 1.0; stroke-dasharray: 7.0,7.0;"/><path d="M510.25,56 C510.25,73.6584 510.25,97.9408 510.25,115.6784 " fill="none" style="stroke: #A80036; stroke-width: 1.0;"/><path d="M626.25,76.0236 C626.25,89.5792 626.25,104.0381 626.25,115.6784 " fill="none" style="stroke: #A80036; stroke-width: 1.0; stroke-dasharray: 7.0,7.0;"/><polygon fill="none" points="619.25,76.0005,626.25,56,633.25,76.0004,619.25,76.0005" style="stroke: #A80036; stroke-width: 1.0;"/><path d="M742.25,56 C742.25,72.003 742.25,93.4461 742.25,110.528 " fill="none" style="stroke: #A80036; stroke-width: 1.0;"/><polygon fill="#A80036" points="742.25,115.6784,746.25,106.6784,742.25,110.6784,738.25,106.6784,742.25,115.6784" style="stroke: #A80036; stroke-width: 1.0;"/><path d="M858.25,56 C858.25,72.003 858.25,93.4461 858.25,110.528 " fill="none" style="stroke: #A80036; stroke-width: 1.0; stroke-dasharray: 7.0,7.0;"/><polygon fill="#A80036" points="858.25,115.6784,862.25,106.6784,858.25,110.6784,854.25,106.6784,858.25,115.6784" style="stroke: #A80036; stroke-width: 1.0;"/><path d="M974.25,56 C974.25,67.5885 974.25,82.0294 974.25,95.6013 " fill="none" style="stroke: #A80036; stroke-width: 1.0; stroke-dasharray: 7.0,7.0;"/><polygon fill="none" points="981.25,95.6785,974.25,115.6784,967.25,95.6784,981.25,95.6785" style="stroke: #A80036; stroke-width: 1.0;"/><path d="M1090.25,69.3383 C1090.25,80.0064 1090.25,91.6772 1090.25,102.3638 " fill="none" style="stroke: #A80036; stroke-width: 1.0;"/><polygon fill="#A80036" points="1090.25,115.6784,1094.25,109.6784,1090.25,103.6784,1086.25,109.6784,1090.25,115.6784" style="stroke: #A80036; stroke-width: 1.0;"/><polygon fill="#A80036" points="1090.25,56,1086.25,65,1090.25,61,1094.25,65,1090.25,56" style="stroke: #A80036; stroke-width: 1.0;"/><line style="stroke: #A80036; stroke-width: 1.0;" x1="1090.25" x2="1090.25" y1="61" y2="69.0005"/></g></svg>