<?xml version="1.0" encoding="UTF-8" standalone="yes"?><svg xmlns="http://www.w3.org/2000/svg" xmlns:xlink="http://www.w3.org/1999/xlink" height="90pt" style="width:112px;height:90px;" version="1.1" viewBox="0 0 112 90" width="112pt"><defs><filter height="300%" id="f1" width="300%" x="-1" y="-1"><feGaussianBlur result="blurOut" stdDeviation="2"/><feColorMatrix in="blurOut" result="blurOut2" type="matrix" values="0 0 0 0 0 0 0 0 0 0 0 0 0 0 0 0 0 0 .4 0"/><feOffset dx="4" dy="4" in="blurOut2" result="blurOut3"/><feBlend in="SourceGraphic" in2="blurOut3" mode="normal"/></filter></defs><g><rect fill="#FEFECE" filter="url(#f1)" height="73.625" style="stroke: #A80036; stroke-width: 1.5;" width="97" x="6" y="8"/><ellipse cx="30" cy="24" fill="#ADD1B2" rx="11" ry="11" style="stroke: #A80036; stroke-width: 1.0;"/><path d="M32.9688,29.6406 Q32.3906,29.9375 31.75,30.0859 Q31.1094,30.2344 30.4063,30.2344 Q27.9063,30.2344 26.5859,28.5859 Q25.2656,26.9375 25.2656,23.8125 Q25.2656,20.6875 26.5859,19.0313 Q27.9063,17.375 30.4063,17.375 Q31.1094,17.375 31.7578,17.5313 Q32.4063,17.6875 32.9688,17.9844 L32.9688,20.7031 Q32.3438,20.125 31.75,19.8516 Q31.1563,19.5781 30.5313,19.5781 Q29.1875,19.5781 28.5,20.6484 Q27.8125,21.7188 27.8125,23.8125 Q27.8125,25.9063 28.5,26.9766 Q29.1875,28.0469 30.5313,28.0469 Q31.1563,28.0469 31.75,27.7734 Q32.3438,27.5 32.9688,26.9219 L32.9688,29.6406 Z "/><text fill="#000000" font-size="12" lengthAdjust="spacingAndGlyphs" textLength="45" x="46" y="29.0156">Dummy</text><line style="stroke: #A80036; stroke-width: 1.5;" x1="7" x2="102" y1="40" y2="40"/><text fill="#000000" font-size="11" lengthAdjust="spacingAndGlyphs" textLength="63" x="12" y="55">String data</text><line style="stroke: #A80036; stroke-width: 1.5;" x1="7" x2="102" y1="60.8125" y2="60.8125"/><text fill="#000000" font-size="11" lengthAdjust="spacingAndGlyphs" textLength="85" x="12" y="75.8125">void methods()</text></g></svg>