<?xml version="1.0" encoding="UTF-8" standalone="yes"?><svg xmlns="http://www.w3.org/2000/svg" xmlns:xlink="http://www.w3.org/1999/xlink" height="231pt" style="width:477px;height:231px;" version="1.1" viewBox="0 0 477 231" width="477pt"><defs><filter height="300%" id="f1" width="300%" x="-1" y="-1"><feGaussianBlur result="blurOut" stdDeviation="2"/><feColorMatrix in="blurOut" result="blurOut2" type="matrix" values="0 0 0 0 0 0 0 0 0 0 0 0 0 0 0 0 0 0 .4 0"/><feOffset dx="4" dy="4" in="blurOut2" result="blurOut3"/><feBlend in="SourceGraphic" in2="blurOut3" mode="normal"/></filter></defs><g><rect fill="#FEFECE" filter="url(#f1)" height="48" style="stroke: #A80036; stroke-width: 1.5;" width="77" x="82" y="8"/><ellipse cx="97" cy="24" fill="#ADD1B2" rx="11" ry="11" style="stroke: #A80036; stroke-width: 1.0;"/><path d="M99.9688,29.6406 Q99.3906,29.9375 98.75,30.0859 Q98.1094,30.2344 97.4063,30.2344 Q94.9063,30.2344 93.5859,28.5859 Q92.2656,26.9375 92.2656,23.8125 Q92.2656,20.6875 93.5859,19.0313 Q94.9063,17.375 97.4063,17.375 Q98.1094,17.375 98.7578,17.5313 Q99.4063,17.6875 99.9688,17.9844 L99.9688,20.7031 Q99.3438,20.125 98.75,19.8516 Q98.1563,19.5781 97.5313,19.5781 Q96.1875,19.5781 95.5,20.6484 Q94.8125,21.7188 94.8125,23.8125 Q94.8125,25.9063 95.5,26.9766 Q96.1875,28.0469 97.5313,28.0469 Q98.1563,28.0469 98.75,27.7734 Q99.3438,27.5 99.9688,26.9219 L99.9688,29.6406 Z "/><text fill="#000000" font-size="12" lengthAdjust="spacingAndGlyphs" textLength="45" x="111" y="29.0156">Dummy</text><line style="stroke: #A80036; stroke-width: 1.5;" x1="83" x2="158" y1="40" y2="40"/><line style="stroke: #A80036; stroke-width: 1.5;" x1="83" x2="158" y1="48" y2="48"/><rect fill="#FEFECE" filter="url(#f1)" height="48" style="stroke: #A80036; stroke-width: 1.5;" width="55" x="6" y="174"/><ellipse cx="21" cy="190" fill="#ADD1B2" rx="11" ry="11" style="stroke: #A80036; stroke-width: 1.0;"/><path d="M23.9688,195.6406 Q23.3906,195.9375 22.75,196.0859 Q22.1094,196.2344 21.4063,196.2344 Q18.9063,196.2344 17.5859,194.5859 Q16.2656,192.9375 16.2656,189.8125 Q16.2656,186.6875 17.5859,185.0313 Q18.9063,183.375 21.4063,183.375 Q22.1094,183.375 22.7578,183.5313 Q23.4063,183.6875 23.9688,183.9844 L23.9688,186.7031 Q23.3438,186.125 22.75,185.8516 Q22.1563,185.5781 21.5313,185.5781 Q20.1875,185.5781 19.5,186.6484 Q18.8125,187.7188 18.8125,189.8125 Q18.8125,191.9063 19.5,192.9766 Q20.1875,194.0469 21.5313,194.0469 Q22.1563,194.0469 22.75,193.7734 Q23.3438,193.5 23.9688,192.9219 L23.9688,195.6406 Z "/><text fill="#000000" font-size="12" lengthAdjust="spacingAndGlyphs" textLength="23" x="35" y="195.0156">Foo</text><line style="stroke: #A80036; stroke-width: 1.5;" x1="7" x2="60" y1="206" y2="206"/><line style="stroke: #A80036; stroke-width: 1.5;" x1="7" x2="60" y1="214" y2="214"/><rect fill="#FEFECE" filter="url(#f1)" height="48" style="stroke: #A80036; stroke-width: 1.5;" width="63" x="176" y="174"/><ellipse cx="191" cy="190" fill="#ADD1B2" rx="11" ry="11" style="stroke: #A80036; stroke-width: 1.0;"/><path d="M193.9688,195.6406 Q193.3906,195.9375 192.75,196.0859 Q192.1094,196.2344 191.4063,196.2344 Q188.9063,196.2344 187.5859,194.5859 Q186.2656,192.9375 186.2656,189.8125 Q186.2656,186.6875 187.5859,185.0313 Q188.9063,183.375 191.4063,183.375 Q192.1094,183.375 192.7578,183.5313 Q193.4063,183.6875 193.9688,183.9844 L193.9688,186.7031 Q193.3438,186.125 192.75,185.8516 Q192.1563,185.5781 191.5313,185.5781 Q190.1875,185.5781 189.5,186.6484 Q188.8125,187.7188 188.8125,189.8125 Q188.8125,191.9063 189.5,192.9766 Q190.1875,194.0469 191.5313,194.0469 Q192.1563,194.0469 192.75,193.7734 Q193.3438,193.5 193.9688,192.9219 L193.9688,195.6406 Z "/><text fill="#000000" font-size="12" lengthAdjust="spacingAndGlyphs" textLength="31" x="205" y="195.0156">Foo2</text><line style="stroke: #A80036; stroke-width: 1.5;" x1="177" x2="238" y1="206" y2="206"/><line style="stroke: #A80036; stroke-width: 1.5;" x1="177" x2="238" y1="214" y2="214"/><path d="M81.5772,45.373 C62.5274,53.645 41.3185,66.637 30.25,86 C15.87,111.156 19.4105,145.0377 24.7849,168.7262 " fill="none" style="stroke: #A80036; stroke-width: 1.0;"/><polygon fill="#A80036" points="25.9538,173.6195,27.7533,163.9364,24.7921,168.7563,19.9722,165.7951,25.9538,173.6195" style="stroke: #A80036; stroke-width: 1.0;"/><text fill="#000000" font-size="13" lengthAdjust="spacingAndGlyphs" textLength="34" x="79.75" y="100.5">A link</text><polygon fill="#FF0000" filter="url(#f1)" points="35.25,108.6406,35.25,133.6406,154.25,133.6406,154.25,118.6406,144.25,108.6406,35.25,108.6406" style="stroke: #A80036; stroke-width: 1.0;"/><line style="stroke: #A80036; stroke-width: 1.0;" x1="144.25" x2="144.25" y1="108.6406" y2="118.6406"/><line style="stroke: #A80036; stroke-width: 1.0;" x1="154.25" x2="144.25" y1="118.6406" y2="118.6406"/><text fill="#000000" font-size="13" lengthAdjust="spacingAndGlyphs" textLength="98" x="41.25" y="126.6406">note that is red</text><path d="M144.926,56.173 C153.187,64.912 161.9,75.333 168.25,86 C183.79,112.108 194.439,145.3521 200.633,168.6245 " fill="none" style="stroke: #A80036; stroke-width: 1.0;"/><polygon fill="#A80036" points="201.962,173.7263,203.5635,164.0085,200.7013,168.8878,195.822,166.0256,201.962,173.7263" style="stroke: #A80036; stroke-width: 1.0;"/><text fill="#000000" font-size="13" lengthAdjust="spacingAndGlyphs" textLength="76" x="193.25" y="120.0703">Another link</text><polygon fill="#0000FF" filter="url(#f1)" points="275.25,92.5,275.25,132.5,468.25,132.5,468.25,102.5,458.25,92.5,275.25,92.5" style="stroke: #A80036; stroke-width: 1.0;"/><line style="stroke: #A80036; stroke-width: 1.0;" x1="458.25" x2="458.25" y1="92.5" y2="102.5"/><line style="stroke: #A80036; stroke-width: 1.0;" x1="468.25" x2="458.25" y1="102.5" y2="102.5"/><text fill="#000000" font-size="13" lengthAdjust="spacingAndGlyphs" textLength="172" x="281.25" y="110.5">this is my note on right link</text><text fill="#000000" font-size="13" lengthAdjust="spacingAndGlyphs" textLength="70" x="281.25" y="125.6406">and in blue</text></g></svg>