<?xml version="1.0" encoding="UTF-8" standalone="yes"?><svg xmlns="http://www.w3.org/2000/svg" xmlns:xlink="http://www.w3.org/1999/xlink" height="116pt" style="width:99px;height:116px;" version="1.1" viewBox="0 0 99 116" width="99pt"><defs><filter height="300%" id="f1" width="300%" x="-1" y="-1"><feGaussianBlur result="blurOut" stdDeviation="2"/><feColorMatrix in="blurOut" result="blurOut2" type="matrix" values="0 0 0 0 0 0 0 0 0 0 0 0 0 0 0 0 0 0 .4 0"/><feOffset dx="4" dy="4" in="blurOut2" result="blurOut3"/><feBlend in="SourceGraphic" in2="blurOut3" mode="normal"/></filter></defs><g><rect fill="#FEFECE" filter="url(#f1)" height="99.25" style="stroke: #A80036; stroke-width: 1.5;" width="84" x="6" y="8.5"/><ellipse cx="24.15" cy="24.5" fill="#ADD1B2" rx="11" ry="11" style="stroke: #A80036; stroke-width: 1.0;"/><path d="M27.1188,30.1406 Q26.5406,30.4375 25.9,30.5859 Q25.2594,30.7344 24.5563,30.7344 Q22.0563,30.7344 20.7359,29.0859 Q19.4156,27.4375 19.4156,24.3125 Q19.4156,21.1875 20.7359,19.5313 Q22.0563,17.875 24.5563,17.875 Q25.2594,17.875 25.9078,18.0313 Q26.5563,18.1875 27.1188,18.4844 L27.1188,21.2031 Q26.4938,20.625 25.9,20.3516 Q25.3063,20.0781 24.6813,20.0781 Q23.3375,20.0781 22.65,21.1484 Q21.9625,22.2188 21.9625,24.3125 Q21.9625,26.4063 22.65,27.4766 Q23.3375,28.5469 24.6813,28.5469 Q25.3063,28.5469 25.9,28.2734 Q26.4938,28 27.1188,27.4219 L27.1188,30.1406 Z "/><text fill="#000000" font-size="12" lengthAdjust="spacingAndGlyphs" textLength="45" x="38.85" y="29.5156">Dummy</text><line style="stroke: #A80036; stroke-width: 1.5;" x1="7" x2="89" y1="40.5" y2="40.5"/><rect fill="none" height="6" style="stroke: #C82930; stroke-width: 1.0;" width="6" x="14" y="49.4063"/><text fill="#000000" font-size="11" lengthAdjust="spacingAndGlyphs" textLength="31" x="26" y="55.5">field1</text><polygon fill="none" points="17,60.2188,21,64.2188,17,68.2188,13,64.2188" style="stroke: #B38D22; stroke-width: 1.0;"/><text fill="#000000" font-size="11" lengthAdjust="spacingAndGlyphs" textLength="31" x="26" y="68.3125">field2</text><line style="stroke: #A80036; stroke-width: 1.5;" x1="7" x2="89" y1="74.125" y2="74.125"/><polygon fill="#4177AF" points="17,82.0313,13,88.0313,21,88.0313" style="stroke: #1963A0; stroke-width: 1.0;"/><text fill="#000000" font-size="11" lengthAdjust="spacingAndGlyphs" textLength="58" x="26" y="89.125">method1()</text><ellipse cx="17" cy="98.8438" fill="#84BE84" rx="3" ry="3" style="stroke: #038048; stroke-width: 1.0;"/><text fill="#000000" font-size="11" lengthAdjust="spacingAndGlyphs" textLength="58" x="26" y="101.9375">method2()</text></g></svg>