<?xml version="1.0" encoding="UTF-8" standalone="yes"?><svg xmlns="http://www.w3.org/2000/svg" xmlns:xlink="http://www.w3.org/1999/xlink" height="387pt" style="width:625px;height:387px;" version="1.1" viewBox="0 0 625 387" width="625pt"><defs><filter height="300%" id="f1" width="300%" x="-1" y="-1"><feGaussianBlur result="blurOut" stdDeviation="2"/><feColorMatrix in="blurOut" result="blurOut2" type="matrix" values="0 0 0 0 0 0 0 0 0 0 0 0 0 0 0 0 0 0 .4 0"/><feOffset dx="4" dy="4" in="blurOut2" result="blurOut3"/><feBlend in="SourceGraphic" in2="blurOut3" mode="normal"/></filter></defs><g><rect fill="#FEFECE" filter="url(#f1)" height="53.9375" style="stroke: #A80036; stroke-width: 1.5;" width="124" x="292.75" y="116"/><ellipse cx="307.75" cy="134.9688" fill="#ADD1B2" rx="11" ry="11" style="stroke: #A80036; stroke-width: 1.0;"/><path d="M310.7188,140.6094 Q310.1406,140.9063 309.5,141.0547 Q308.8594,141.2031 308.1563,141.2031 Q305.6563,141.2031 304.3359,139.5547 Q303.0156,137.9063 303.0156,134.7813 Q303.0156,131.6563 304.3359,130 Q305.6563,128.3438 308.1563,128.3438 Q308.8594,128.3438 309.5078,128.5 Q310.1563,128.6563 310.7188,128.9531 L310.7188,131.6719 Q310.0938,131.0938 309.5,130.8203 Q308.9063,130.5469 308.2813,130.5469 Q306.9375,130.5469 306.25,131.6172 Q305.5625,132.6875 305.5625,134.7813 Q305.5625,136.875 306.25,137.9453 Q306.9375,139.0156 308.2813,139.0156 Q308.9063,139.0156 309.5,138.7422 Q310.0938,138.4688 310.7188,137.8906 L310.7188,140.6094 Z "/><text fill="#000000" font-size="12" font-style="italic" lengthAdjust="spacingAndGlyphs" textLength="96" x="319.75" y="133">&lt;&lt; general &gt;&gt;</text><text fill="#000000" font-size="12" lengthAdjust="spacingAndGlyphs" textLength="40" x="347.75" y="146.9688">Object</text><line style="stroke: #A80036; stroke-width: 1.5;" x1="293.75" x2="415.75" y1="153.9375" y2="153.9375"/><line style="stroke: #A80036; stroke-width: 1.5;" x1="293.75" x2="415.75" y1="161.9375" y2="161.9375"/><rect fill="#FEFECE" filter="url(#f1)" height="48" style="stroke: #A80036; stroke-width: 1.5;" width="85" x="312" y="330"/><ellipse cx="327" cy="346" fill="#ADD1B2" rx="11" ry="11" style="stroke: #A80036; stroke-width: 1.0;"/><path d="M329.9688,351.6406 Q329.3906,351.9375 328.75,352.0859 Q328.1094,352.2344 327.4063,352.2344 Q324.9063,352.2344 323.5859,350.5859 Q322.2656,348.9375 322.2656,345.8125 Q322.2656,342.6875 323.5859,341.0313 Q324.9063,339.375 327.4063,339.375 Q328.1094,339.375 328.7578,339.5313 Q329.4063,339.6875 329.9688,339.9844 L329.9688,342.7031 Q329.3438,342.125 328.75,341.8516 Q328.1563,341.5781 327.5313,341.5781 Q326.1875,341.5781 325.5,342.6484 Q324.8125,343.7188 324.8125,345.8125 Q324.8125,347.9063 325.5,348.9766 Q326.1875,350.0469 327.5313,350.0469 Q328.1563,350.0469 328.75,349.7734 Q329.3438,349.5 329.9688,348.9219 L329.9688,351.6406 Z "/><text fill="#000000" font-size="12" lengthAdjust="spacingAndGlyphs" textLength="53" x="341" y="351.0156">ArrayList</text><line style="stroke: #A80036; stroke-width: 1.5;" x1="313" x2="396" y1="362" y2="362"/><line style="stroke: #A80036; stroke-width: 1.5;" x1="313" x2="396" y1="370" y2="370"/><polygon fill="#FBFB77" filter="url(#f1)" points="284,12,284,52.2813,425,52.2813,425,22,415,12,284,12" style="stroke: #A80036; stroke-width: 1.0;"/><polygon fill="#FBFB77" points="284,12,284,52.2813,350.25,52.2813,354.25,115.597,358.25,52.2813,425,52.2813,425,22,415,12,284,12" style="stroke: #A80036; stroke-width: 1.0;"/><line style="stroke: #A80036; stroke-width: 1.0;" x1="415" x2="415" y1="12" y2="22"/><line style="stroke: #A80036; stroke-width: 1.0;" x1="425" x2="415" y1="22" y2="22"/><text fill="#000000" font-size="13" lengthAdjust="spacingAndGlyphs" textLength="120" x="290" y="30">In java, every class</text><text fill="#000000" font-size="13" lengthAdjust="spacingAndGlyphs" textLength="110" x="290" y="45.1406">extends this one.</text><polygon fill="#FBFB77" filter="url(#f1)" points="460.25,19.5,460.25,44.6406,616.25,44.6406,616.25,29.5,606.25,19.5,460.25,19.5" style="stroke: #A80036; stroke-width: 1.0;"/><line style="stroke: #A80036; stroke-width: 1.0;" x1="606.25" x2="606.25" y1="19.5" y2="29.5"/><line style="stroke: #A80036; stroke-width: 1.0;" x1="616.25" x2="606.25" y1="29.5" y2="29.5"/><text fill="#000000" font-size="13" lengthAdjust="spacingAndGlyphs" textLength="135" x="466.25" y="37.5">This is a floating note</text><polygon fill="#FBFB77" filter="url(#f1)" points="340.25,230,340.25,270.2813,504.25,270.2813,504.25,240,494.25,230,340.25,230" style="stroke: #A80036; stroke-width: 1.0;"/><line style="stroke: #A80036; stroke-width: 1.0;" x1="494.25" x2="494.25" y1="230" y2="240"/><line style="stroke: #A80036; stroke-width: 1.0;" x1="504.25" x2="494.25" y1="240" y2="240"/><text fill="#000000" font-size="13" lengthAdjust="spacingAndGlyphs" textLength="143" x="346.25" y="248">This note is connected</text><text fill="#000000" font-size="13" lengthAdjust="spacingAndGlyphs" textLength="117" x="346.25" y="263.1406">to several objects.</text><rect fill="#FEFECE" filter="url(#f1)" height="48" style="stroke: #A80036; stroke-width: 1.5;" width="55" x="194" y="8"/><ellipse cx="209" cy="24" fill="#ADD1B2" rx="11" ry="11" style="stroke: #A80036; stroke-width: 1.0;"/><path d="M211.9688,29.6406 Q211.3906,29.9375 210.75,30.0859 Q210.1094,30.2344 209.4063,30.2344 Q206.9063,30.2344 205.5859,28.5859 Q204.2656,26.9375 204.2656,23.8125 Q204.2656,20.6875 205.5859,19.0313 Q206.9063,17.375 209.4063,17.375 Q210.1094,17.375 210.7578,17.5313 Q211.4063,17.6875 211.9688,17.9844 L211.9688,20.7031 Q211.3438,20.125 210.75,19.8516 Q210.1563,19.5781 209.5313,19.5781 Q208.1875,19.5781 207.5,20.6484 Q206.8125,21.7188 206.8125,23.8125 Q206.8125,25.9063 207.5,26.9766 Q208.1875,28.0469 209.5313,28.0469 Q210.1563,28.0469 210.75,27.7734 Q211.3438,27.5 211.9688,26.9219 L211.9688,29.6406 Z "/><text fill="#000000" font-size="12" lengthAdjust="spacingAndGlyphs" textLength="23" x="223" y="29.0156">Foo</text><line style="stroke: #A80036; stroke-width: 1.5;" x1="195" x2="248" y1="40" y2="40"/><line style="stroke: #A80036; stroke-width: 1.5;" x1="195" x2="248" y1="48" y2="48"/><polygon fill="#FBFB77" filter="url(#f1)" points="6,19.5,6,44.6406,159,44.6406,159,29.5,149,19.5,6,19.5" style="stroke: #A80036; stroke-width: 1.0;"/><polygon fill="#FBFB77" points="6,19.5,6,44.6406,159,44.6406,159,37.5,193.813,32,159,29.5,159,29.5,149,19.5,6,19.5" style="stroke: #A80036; stroke-width: 1.0;"/><line style="stroke: #A80036; stroke-width: 1.0;" x1="149" x2="149" y1="19.5" y2="29.5"/><line style="stroke: #A80036; stroke-width: 1.0;" x1="159" x2="149" y1="29.5" y2="29.5"/><text fill="#000000" font-size="13" lengthAdjust="spacingAndGlyphs" textLength="132" x="12" y="37.5">On last defined class</text><path d="M333.654,189.171 C325.18,213.05 318.362,242.945 323.25,270 C327.024,290.889 335.737,313.3759 342.968,329.6678 " fill="none" style="stroke: #A80036; stroke-width: 1.0;"/><polygon fill="none" points="327.237,186.361,341.107,170.341,340.255,191.514,327.237,186.361" style="stroke: #A80036; stroke-width: 1.0;"/><path d="M371.234,170.225 C383.193,188.691 398.936,213 409.753,229.703 " fill="none" style="stroke: #A80036; stroke-width: 1.0; stroke-dasharray: 7.0,7.0;"/><path d="M409.46,270.185 C398.149,287.1518 381.624,311.9396 369.602,329.9721 " fill="none" style="stroke: #A80036; stroke-width: 1.0; stroke-dasharray: 7.0,7.0;"/></g></svg>