<?xml version="1.0" encoding="UTF-8" standalone="yes"?><svg xmlns="http://www.w3.org/2000/svg" xmlns:xlink="http://www.w3.org/1999/xlink" height="344pt" style="width:395px;height:344px;" version="1.1" viewBox="0 0 395 344" width="395pt"><defs><filter height="300%" id="f1" width="300%" x="-1" y="-1"><feGaussianBlur result="blurOut" stdDeviation="2"/><feColorMatrix in="blurOut" result="blurOut2" type="matrix" values="0 0 0 0 0 0 0 0 0 0 0 0 0 0 0 0 0 0 .4 0"/><feOffset dx="4" dy="4" in="blurOut2" result="blurOut3"/><feBlend in="SourceGraphic" in2="blurOut3" mode="normal"/></filter></defs><g><rect fill="#FEFECE" filter="url(#f1)" height="48" style="stroke: #A80036; stroke-width: 1.5;" width="105" x="186" y="154"/><ellipse cx="201" cy="170" fill="#A9DCDF" rx="11" ry="11" style="stroke: #A80036; stroke-width: 1.0;"/><path d="M201.1094,165.3438 L199.9531,170.4219 L202.2813,170.4219 L201.1094,165.3438 Z M199.625,163.1094 L202.6094,163.1094 L205.9688,175.5 L203.5156,175.5 L202.75,172.4375 L199.4688,172.4375 L198.7188,175.5 L196.2813,175.5 L199.625,163.1094 Z "/><text fill="#000000" font-size="12" font-style="italic" lengthAdjust="spacingAndGlyphs" textLength="73" x="215" y="175.0156">AbstractList</text><line style="stroke: #A80036; stroke-width: 1.5;" x1="187" x2="290" y1="186" y2="186"/><line style="stroke: #A80036; stroke-width: 1.5;" x1="187" x2="290" y1="194" y2="194"/><rect fill="#FEFECE" filter="url(#f1)" height="48" style="stroke: #A80036; stroke-width: 1.5;" width="145" x="6" y="154"/><ellipse cx="21" cy="170" fill="#A9DCDF" rx="11" ry="11" style="stroke: #A80036; stroke-width: 1.0;"/><path d="M21.1094,165.3438 L19.9531,170.4219 L22.2813,170.4219 L21.1094,165.3438 Z M19.625,163.1094 L22.6094,163.1094 L25.9688,175.5 L23.5156,175.5 L22.75,172.4375 L19.4688,172.4375 L18.7188,175.5 L16.2813,175.5 L19.625,163.1094 Z "/><text fill="#000000" font-size="12" font-style="italic" lengthAdjust="spacingAndGlyphs" textLength="113" x="35" y="175.0156">AbstractCollection</text><line style="stroke: #A80036; stroke-width: 1.5;" x1="7" x2="150" y1="186" y2="186"/><line style="stroke: #A80036; stroke-width: 1.5;" x1="7" x2="150" y1="194" y2="194"/><rect fill="#FEFECE" filter="url(#f1)" height="48" style="stroke: #A80036; stroke-width: 1.5;" width="53" x="212" y="27"/><ellipse cx="227" cy="43" fill="#B4A7E5" rx="11" ry="11" style="stroke: #A80036; stroke-width: 1.0;"/><path d="M222.9219,38.7656 L222.9219,36.6094 L230.3125,36.6094 L230.3125,38.7656 L227.8438,38.7656 L227.8438,46.8438 L230.3125,46.8438 L230.3125,49 L222.9219,49 L222.9219,46.8438 L225.3906,46.8438 L225.3906,38.7656 L222.9219,38.7656 Z "/><text fill="#000000" font-size="12" font-style="italic" lengthAdjust="spacingAndGlyphs" textLength="21" x="241" y="48.0156">List</text><line style="stroke: #A80036; stroke-width: 1.5;" x1="213" x2="264" y1="59" y2="59"/><line style="stroke: #A80036; stroke-width: 1.5;" x1="213" x2="264" y1="67" y2="67"/><rect fill="#FEFECE" filter="url(#f1)" height="48" style="stroke: #A80036; stroke-width: 1.5;" width="93" x="32" y="27"/><ellipse cx="47" cy="43" fill="#B4A7E5" rx="11" ry="11" style="stroke: #A80036; stroke-width: 1.0;"/><path d="M42.9219,38.7656 L42.9219,36.6094 L50.3125,36.6094 L50.3125,38.7656 L47.8438,38.7656 L47.8438,46.8438 L50.3125,46.8438 L50.3125,49 L42.9219,49 L42.9219,46.8438 L45.3906,46.8438 L45.3906,38.7656 L42.9219,38.7656 Z "/><text fill="#000000" font-size="12" font-style="italic" lengthAdjust="spacingAndGlyphs" textLength="61" x="61" y="48.0156">Collection</text><line style="stroke: #A80036; stroke-width: 1.5;" x1="33" x2="124" y1="59" y2="59"/><line style="stroke: #A80036; stroke-width: 1.5;" x1="33" x2="124" y1="67" y2="67"/><rect fill="#FEFECE" filter="url(#f1)" height="73.625" style="stroke: #A80036; stroke-width: 1.5;" width="132" x="172.25" y="262"/><ellipse cx="208.4" cy="278" fill="#ADD1B2" rx="11" ry="11" style="stroke: #A80036; stroke-width: 1.0;"/><path d="M211.3688,283.6406 Q210.7906,283.9375 210.15,284.0859 Q209.5094,284.2344 208.8063,284.2344 Q206.3063,284.2344 204.9859,282.5859 Q203.6656,280.9375 203.6656,277.8125 Q203.6656,274.6875 204.9859,273.0313 Q206.3063,271.375 208.8063,271.375 Q209.5094,271.375 210.1578,271.5313 Q210.8063,271.6875 211.3688,271.9844 L211.3688,274.7031 Q210.7438,274.125 210.15,273.8516 Q209.5563,273.5781 208.9313,273.5781 Q207.5875,273.5781 206.9,274.6484 Q206.2125,275.7188 206.2125,277.8125 Q206.2125,279.9063 206.9,280.9766 Q207.5875,282.0469 208.9313,282.0469 Q209.5563,282.0469 210.15,281.7734 Q210.7438,281.5 211.3688,280.9219 L211.3688,283.6406 Z "/><text fill="#000000" font-size="12" lengthAdjust="spacingAndGlyphs" textLength="53" x="227.1" y="283.0156">ArrayList</text><line style="stroke: #A80036; stroke-width: 1.5;" x1="173.25" x2="303.25" y1="294" y2="294"/><text fill="#000000" font-size="11" lengthAdjust="spacingAndGlyphs" textLength="120" x="178.25" y="309">Object[] elementData</text><line style="stroke: #A80036; stroke-width: 1.5;" x1="173.25" x2="303.25" y1="314.8125" y2="314.8125"/><text fill="#000000" font-size="11" lengthAdjust="spacingAndGlyphs" textLength="30" x="178.25" y="329.8125">size()</text><rect fill="#FEFECE" filter="url(#f1)" height="86.4375" style="stroke: #A80036; stroke-width: 1.5;" width="86" x="300.25" y="8"/><ellipse cx="315.25" cy="24" fill="#EB937F" rx="11" ry="11" style="stroke: #A80036; stroke-width: 1.0;"/><path d="M319.3594,30 L311.6406,30 L311.6406,17.6094 L319.3594,17.6094 L319.3594,19.7656 L314.0938,19.7656 L314.0938,22.4375 L318.8594,22.4375 L318.8594,24.5938 L314.0938,24.5938 L314.0938,27.8438 L319.3594,27.8438 L319.3594,30 Z "/><text fill="#000000" font-size="12" lengthAdjust="spacingAndGlyphs" textLength="54" x="329.25" y="29.0156">TimeUnit</text><line style="stroke: #A80036; stroke-width: 1.5;" x1="301.25" x2="385.25" y1="40" y2="40"/><text fill="#000000" font-size="11" lengthAdjust="spacingAndGlyphs" textLength="30" x="306.25" y="55">DAYS</text><text fill="#000000" font-size="11" lengthAdjust="spacingAndGlyphs" textLength="40" x="306.25" y="67.8125">HOURS</text><text fill="#000000" font-size="11" lengthAdjust="spacingAndGlyphs" textLength="50" x="306.25" y="80.625">MINUTES</text><line style="stroke: #A80036; stroke-width: 1.5;" x1="301.25" x2="385.25" y1="86.4375" y2="86.4375"/><path d="M238.25,95.406 C238.25,115.075 238.25,137.536 238.25,153.906 " fill="none" style="stroke: #A80036; stroke-width: 1.0;"/><polygon fill="none" points="231.25,95.219,238.25,75.219,245.25,95.219,231.25,95.219" style="stroke: #A80036; stroke-width: 1.0;"/><path d="M78.25,95.406 C78.25,115.075 78.25,137.536 78.25,153.906 " fill="none" style="stroke: #A80036; stroke-width: 1.0;"/><polygon fill="none" points="71.2501,95.219,78.25,75.219,85.2501,95.219,71.2501,95.219" style="stroke: #A80036; stroke-width: 1.0;"/><path d="M144.829,51 C167.107,51 189.385,51 211.663,51 " fill="none" style="stroke: #A80036; stroke-width: 1.0;"/><polygon fill="none" points="144.813,58,124.812,51,144.812,44,144.813,58" style="stroke: #A80036; stroke-width: 1.0;"/><path d="M170.828,178 C175.87,178 180.913,178 185.955,178 " fill="none" style="stroke: #A80036; stroke-width: 1.0;"/><polygon fill="none" points="170.75,185,150.75,178,170.75,171,170.75,185" style="stroke: #A80036; stroke-width: 1.0;"/><path d="M238.25,222.433 C238.25,235.332 238.25,249.3199 238.25,261.714 " fill="none" style="stroke: #A80036; stroke-width: 1.0;"/><polygon fill="none" points="231.25,222.227,238.25,202.227,245.25,222.227,231.25,222.227" style="stroke: #A80036; stroke-width: 1.0;"/></g></svg>