<?xml version="1.0" encoding="UTF-8" standalone="yes"?><svg xmlns="http://www.w3.org/2000/svg" xmlns:xlink="http://www.w3.org/1999/xlink" height="363pt" style="width:432px;height:363px;" version="1.1" viewBox="0 0 432 363" width="432pt"><defs><filter height="300%" id="f1" width="300%" x="-1" y="-1"><feGaussianBlur result="blurOut" stdDeviation="2"/><feColorMatrix in="blurOut" result="blurOut2" type="matrix" values="0 0 0 0 0 0 0 0 0 0 0 0 0 0 0 0 0 0 .4 0"/><feOffset dx="4" dy="4" in="blurOut2" result="blurOut3"/><feBlend in="SourceGraphic" in2="blurOut3" mode="normal"/></filter></defs><g><polygon fill="#DDDDDD" filter="url(#f1)" points="22,24,116,24,123,46.2969,267,46.2969,267,232,22,232,22,24" style="stroke: #000000; stroke-width: 2.0;"/><line style="stroke: #000000; stroke-width: 2.0;" x1="22" x2="123" y1="46.2969" y2="46.2969"/><text fill="#000000" font-size="14" font-weight="bold" lengthAdjust="spacingAndGlyphs" textLength="88" x="25" y="41">net.dummy</text><polygon fill="#FFFFFF" filter="url(#f1)" points="161,256,224,256,231,278.2969,269,278.2969,269,356,161,356,161,256" style="stroke: #000000; stroke-width: 2.0;"/><line style="stroke: #000000; stroke-width: 2.0;" x1="161" x2="231" y1="278.2969" y2="278.2969"/><text fill="#000000" font-size="14" font-weight="bold" lengthAdjust="spacingAndGlyphs" textLength="57" x="164" y="273">net.foo</text><polygon fill="#FFFFFF" filter="url(#f1)" points="291,132,387,132,394,154.2969,399,154.2969,399,232,291,232,291,132" style="stroke: #000000; stroke-width: 2.0;"/><line style="stroke: #000000; stroke-width: 2.0;" x1="291" x2="394" y1="154.2969" y2="154.2969"/><text fill="#000000" font-size="14" font-weight="bold" lengthAdjust="spacingAndGlyphs" textLength="90" x="294" y="149">net.unused</text><rect fill="#FEFECE" filter="url(#f1)" height="48" style="stroke: #A80036; stroke-width: 1.5;" width="96" x="38" y="60"/><ellipse cx="53" cy="76" fill="#ADD1B2" rx="11" ry="11" style="stroke: #A80036; stroke-width: 1.0;"/><path d="M55.9688,81.6406 Q55.3906,81.9375 54.75,82.0859 Q54.1094,82.2344 53.4063,82.2344 Q50.9063,82.2344 49.5859,80.5859 Q48.2656,78.9375 48.2656,75.8125 Q48.2656,72.6875 49.5859,71.0313 Q50.9063,69.375 53.4063,69.375 Q54.1094,69.375 54.7578,69.5313 Q55.4063,69.6875 55.9688,69.9844 L55.9688,72.7031 Q55.3438,72.125 54.75,71.8516 Q54.1563,71.5781 53.5313,71.5781 Q52.1875,71.5781 51.5,72.6484 Q50.8125,73.7188 50.8125,75.8125 Q50.8125,77.9063 51.5,78.9766 Q52.1875,80.0469 53.5313,80.0469 Q54.1563,80.0469 54.75,79.7734 Q55.3438,79.5 55.9688,78.9219 L55.9688,81.6406 Z "/><text fill="#000000" font-size="12" lengthAdjust="spacingAndGlyphs" textLength="64" x="67" y="81.0156">BaseClass</text><line style="stroke: #A80036; stroke-width: 1.5;" x1="39" x2="133" y1="92" y2="92"/><line style="stroke: #A80036; stroke-width: 1.5;" x1="39" x2="133" y1="100" y2="100"/><rect fill="#FEFECE" filter="url(#f1)" height="48" style="stroke: #A80036; stroke-width: 1.5;" width="76" x="86" y="168"/><ellipse cx="101" cy="184" fill="#ADD1B2" rx="11" ry="11" style="stroke: #A80036; stroke-width: 1.0;"/><path d="M103.9688,189.6406 Q103.3906,189.9375 102.75,190.0859 Q102.1094,190.2344 101.4063,190.2344 Q98.9063,190.2344 97.5859,188.5859 Q96.2656,186.9375 96.2656,183.8125 Q96.2656,180.6875 97.5859,179.0313 Q98.9063,177.375 101.4063,177.375 Q102.1094,177.375 102.7578,177.5313 Q103.4063,177.6875 103.9688,177.9844 L103.9688,180.7031 Q103.3438,180.125 102.75,179.8516 Q102.1563,179.5781 101.5313,179.5781 Q100.1875,179.5781 99.5,180.6484 Q98.8125,181.7188 98.8125,183.8125 Q98.8125,185.9063 99.5,186.9766 Q100.1875,188.0469 101.5313,188.0469 Q102.1563,188.0469 102.75,187.7734 Q103.3438,187.5 103.9688,186.9219 L103.9688,189.6406 Z "/><text fill="#000000" font-size="12" lengthAdjust="spacingAndGlyphs" textLength="44" x="115" y="189.0156">Person</text><line style="stroke: #A80036; stroke-width: 1.5;" x1="87" x2="161" y1="200" y2="200"/><line style="stroke: #A80036; stroke-width: 1.5;" x1="87" x2="161" y1="208" y2="208"/><rect fill="#FEFECE" filter="url(#f1)" height="48" style="stroke: #A80036; stroke-width: 1.5;" width="82" x="169" y="60"/><ellipse cx="184" cy="76" fill="#ADD1B2" rx="11" ry="11" style="stroke: #A80036; stroke-width: 1.0;"/><path d="M186.9688,81.6406 Q186.3906,81.9375 185.75,82.0859 Q185.1094,82.2344 184.4063,82.2344 Q181.9063,82.2344 180.5859,80.5859 Q179.2656,78.9375 179.2656,75.8125 Q179.2656,72.6875 180.5859,71.0313 Q181.9063,69.375 184.4063,69.375 Q185.1094,69.375 185.7578,69.5313 Q186.4063,69.6875 186.9688,69.9844 L186.9688,72.7031 Q186.3438,72.125 185.75,71.8516 Q185.1563,71.5781 184.5313,71.5781 Q183.1875,71.5781 182.5,72.6484 Q181.8125,73.7188 181.8125,75.8125 Q181.8125,77.9063 182.5,78.9766 Q183.1875,80.0469 184.5313,80.0469 Q185.1563,80.0469 185.75,79.7734 Q186.3438,79.5 186.9688,78.9219 L186.9688,81.6406 Z "/><text fill="#000000" font-size="12" lengthAdjust="spacingAndGlyphs" textLength="50" x="198" y="81.0156">Meeting</text><line style="stroke: #A80036; stroke-width: 1.5;" x1="170" x2="250" y1="92" y2="92"/><line style="stroke: #A80036; stroke-width: 1.5;" x1="170" x2="250" y1="100" y2="100"/><rect fill="#FEFECE" filter="url(#f1)" height="48" style="stroke: #A80036; stroke-width: 1.5;" width="76" x="177" y="292"/><ellipse cx="192" cy="308" fill="#ADD1B2" rx="11" ry="11" style="stroke: #A80036; stroke-width: 1.0;"/><path d="M194.9688,313.6406 Q194.3906,313.9375 193.75,314.0859 Q193.1094,314.2344 192.4063,314.2344 Q189.9063,314.2344 188.5859,312.5859 Q187.2656,310.9375 187.2656,307.8125 Q187.2656,304.6875 188.5859,303.0313 Q189.9063,301.375 192.4063,301.375 Q193.1094,301.375 193.7578,301.5313 Q194.4063,301.6875 194.9688,301.9844 L194.9688,304.7031 Q194.3438,304.125 193.75,303.8516 Q193.1563,303.5781 192.5313,303.5781 Q191.1875,303.5781 190.5,304.6484 Q189.8125,305.7188 189.8125,307.8125 Q189.8125,309.9063 190.5,310.9766 Q191.1875,312.0469 192.5313,312.0469 Q193.1563,312.0469 193.75,311.7734 Q194.3438,311.5 194.9688,310.9219 L194.9688,313.6406 Z "/><text fill="#000000" font-size="12" lengthAdjust="spacingAndGlyphs" textLength="44" x="206" y="313.0156">Person</text><line style="stroke: #A80036; stroke-width: 1.5;" x1="178" x2="252" y1="324" y2="324"/><line style="stroke: #A80036; stroke-width: 1.5;" x1="178" x2="252" y1="332" y2="332"/><rect fill="#FEFECE" filter="url(#f1)" height="48" style="stroke: #A80036; stroke-width: 1.5;" width="76" x="307" y="168"/><ellipse cx="322" cy="184" fill="#ADD1B2" rx="11" ry="11" style="stroke: #A80036; stroke-width: 1.0;"/><path d="M324.9688,189.6406 Q324.3906,189.9375 323.75,190.0859 Q323.1094,190.2344 322.4063,190.2344 Q319.9063,190.2344 318.5859,188.5859 Q317.2656,186.9375 317.2656,183.8125 Q317.2656,180.6875 318.5859,179.0313 Q319.9063,177.375 322.4063,177.375 Q323.1094,177.375 323.7578,177.5313 Q324.4063,177.6875 324.9688,177.9844 L324.9688,180.7031 Q324.3438,180.125 323.75,179.8516 Q323.1563,179.5781 322.5313,179.5781 Q321.1875,179.5781 320.5,180.6484 Q319.8125,181.7188 319.8125,183.8125 Q319.8125,185.9063 320.5,186.9766 Q321.1875,188.0469 322.5313,188.0469 Q323.1563,188.0469 323.75,187.7734 Q324.3438,187.5 324.9688,186.9219 L324.9688,189.6406 Z "/><text fill="#000000" font-size="12" lengthAdjust="spacingAndGlyphs" textLength="44" x="336" y="189.0156">Person</text><line style="stroke: #A80036; stroke-width: 1.5;" x1="308" x2="382" y1="200" y2="200"/><line style="stroke: #A80036; stroke-width: 1.5;" x1="308" x2="382" y1="208" y2="208"/><path d="M101.077,127.057 C106.036,140.889 111.367,155.761 115.639,167.678 " fill="none" style="stroke: #A80036; stroke-width: 1.0;"/><polygon fill="none" points="94.4053,129.189,94.2454,108,107.584,124.465,94.4053,129.189" style="stroke: #A80036; stroke-width: 1.0;"/><path d="M182.784,118.545 C169.812,134.534 154.614,153.267 142.921,167.678 " fill="none" style="stroke: #A80036; stroke-width: 1.0;"/><polygon fill="none" points="191.339,108,184.4526,110.1396,183.779,117.3191,190.6654,115.1796,191.339,108" style="stroke: #A80036; stroke-width: 1.0;"/><path d="M154.673,84 C159.439,84 164.205,84 168.972,84 " fill="none" style="stroke: #A80036; stroke-width: 1.0;"/><polygon fill="none" points="154.438,91,134.438,84,154.437,77,154.438,91" style="stroke: #A80036; stroke-width: 1.0;"/><path d="M153.362,232.364 C168.012,252.005 185.226,275.0836 197.734,291.8521 " fill="none" style="stroke: #A80036; stroke-width: 1.0;"/><polygon fill="none" points="147.678,236.451,141.331,216.234,158.9,228.081,147.678,236.451" style="stroke: #A80036; stroke-width: 1.0;"/><path d="M152.672,110.401 C166.025,116.029 176.704,121.16 179,124 C218.784,173.196 219.602,252.788 217.192,291.8597 " fill="none" style="stroke: #A80036; stroke-width: 1.0;"/><polygon fill="none" points="149.971,116.859,134.057,102.868,155.223,103.882,149.971,116.859" style="stroke: #A80036; stroke-width: 1.0;"/><path d="M264.524,88.748 C314.195,93.432 382.281,103.478 399,124 C431.564,163.97 427.764,197.214 399,240 C366.474,288.3818 296.704,305.57 253.039,311.6648 " fill="none" style="stroke: #A80036; stroke-width: 1.0;"/><polygon fill="none" points="251.38,87.59,257.0061,92.1007,263.3338,88.6423,257.7077,84.1316,251.38,87.59" style="stroke: #A80036; stroke-width: 1.0;"/><path d="M154.033,107.608 C205.69,117.004 224.556,104.874 267,124 C289.46,134.121 310.371,152.8 324.877,167.869 " fill="none" style="stroke: #A80036; stroke-width: 1.0;"/><polygon fill="none" points="152.347,114.405,134.301,103.3,155.334,100.727,152.347,114.405" style="stroke: #A80036; stroke-width: 1.0;"/></g></svg>