<?xml version="1.0" encoding="UTF-8" standalone="yes"?><svg xmlns="http://www.w3.org/2000/svg" xmlns:xlink="http://www.w3.org/1999/xlink" height="65pt" style="width:112px;height:65px;" version="1.1" viewBox="0 0 112 65" width="112pt"><defs><filter height="300%" id="f1" width="300%" x="-1" y="-1"><feGaussianBlur result="blurOut" stdDeviation="2"/><feColorMatrix in="blurOut" result="blurOut2" type="matrix" values="0 0 0 0 0 0 0 0 0 0 0 0 0 0 0 0 0 0 .4 0"/><feOffset dx="4" dy="4" in="blurOut2" result="blurOut3"/><feBlend in="SourceGraphic" in2="blurOut3" mode="normal"/></filter></defs><g><rect fill="#FEFECE" filter="url(#f1)" height="48" style="stroke: #A80036; stroke-width: 1.5;" width="52" x="51" y="8"/><ellipse cx="66" cy="24" fill="#ADD1B2" rx="11" ry="11" style="stroke: #A80036; stroke-width: 1.0;"/><path d="M68.9688,29.6406 Q68.3906,29.9375 67.75,30.0859 Q67.1094,30.2344 66.4063,30.2344 Q63.9063,30.2344 62.5859,28.5859 Q61.2656,26.9375 61.2656,23.8125 Q61.2656,20.6875 62.5859,19.0313 Q63.9063,17.375 66.4063,17.375 Q67.1094,17.375 67.7578,17.5313 Q68.4063,17.6875 68.9688,17.9844 L68.9688,20.7031 Q68.3438,20.125 67.75,19.8516 Q67.1563,19.5781 66.5313,19.5781 Q65.1875,19.5781 64.5,20.6484 Q63.8125,21.7188 63.8125,23.8125 Q63.8125,25.9063 64.5,26.9766 Q65.1875,28.0469 66.5313,28.0469 Q67.1563,28.0469 67.75,27.7734 Q68.3438,27.5 68.9688,26.9219 L68.9688,29.6406 Z "/><text fill="#000000" font-size="12" lengthAdjust="spacingAndGlyphs" textLength="20" x="80" y="29.0156">foo</text><line style="stroke: #A80036; stroke-width: 1.5;" x1="52" x2="102" y1="40" y2="40"/><line style="stroke: #A80036; stroke-width: 1.5;" x1="52" x2="102" y1="48" y2="48"/><ellipse cx="11" cy="32" fill="#FEFECE" filter="url(#f1)" rx="5" ry="5" style="stroke: #A80036; stroke-width: 1.5;"/><text fill="#000000" font-size="12" lengthAdjust="spacingAndGlyphs" textLength="21" x="0.5" y="49">bar</text><path d="M16.1562,32 C27.7229,32 39.2896,32 50.8562,32 " fill="none" style="stroke: #A80036; stroke-width: 1.0;"/></g></svg>