<?xml version="1.0" encoding="UTF-8" standalone="yes"?><svg xmlns="http://www.w3.org/2000/svg" xmlns:xlink="http://www.w3.org/1999/xlink" height="225pt" style="width:192px;height:225px;" version="1.1" viewBox="0 0 192 225" width="192pt"><defs><filter height="300%" id="f1" width="300%" x="-1" y="-1"><feGaussianBlur result="blurOut" stdDeviation="2"/><feColorMatrix in="blurOut" result="blurOut2" type="matrix" values="0 0 0 0 0 0 0 0 0 0 0 0 0 0 0 0 0 0 .4 0"/><feOffset dx="4" dy="4" in="blurOut2" result="blurOut3"/><feBlend in="SourceGraphic" in2="blurOut3" mode="normal"/></filter></defs><g><rect fill="#FFFFFF" filter="url(#f1)" height="116" style="stroke: #000000; stroke-width: 2.0;" width="139" x="46.25" y="102"/><text fill="#000000" font-size="14" font-weight="bold" lengthAdjust="spacingAndGlyphs" textLength="118" x="56.75" y="121">foo1.foo2.foo3</text><rect fill="#FFFFFF" filter="url(#f1)" height="68.8906" style="stroke: #000000; stroke-width: 2.0;" width="97" x="6" y="8.5"/><text fill="#000000" font-size="14" font-weight="bold" lengthAdjust="spacingAndGlyphs" textLength="77" x="16" y="27.5">foo1.foo2</text><rect fill="#FEFECE" filter="url(#f1)" height="48" style="stroke: #A80036; stroke-width: 1.5;" width="72" x="89.25" y="146"/><ellipse cx="104.25" cy="162" fill="#ADD1B2" rx="11" ry="11" style="stroke: #A80036; stroke-width: 1.0;"/><path d="M107.2188,167.6406 Q106.6406,167.9375 106,168.0859 Q105.3594,168.2344 104.6563,168.2344 Q102.1563,168.2344 100.8359,166.5859 Q99.5156,164.9375 99.5156,161.8125 Q99.5156,158.6875 100.8359,157.0313 Q102.1563,155.375 104.6563,155.375 Q105.3594,155.375 106.0078,155.5313 Q106.6563,155.6875 107.2188,155.9844 L107.2188,158.7031 Q106.5938,158.125 106,157.8516 Q105.4063,157.5781 104.7813,157.5781 Q103.4375,157.5781 102.75,158.6484 Q102.0625,159.7188 102.0625,161.8125 Q102.0625,163.9063 102.75,164.9766 Q103.4375,166.0469 104.7813,166.0469 Q105.4063,166.0469 106,165.7734 Q106.5938,165.5 107.2188,164.9219 L107.2188,167.6406 Z "/><text fill="#000000" font-size="12" lengthAdjust="spacingAndGlyphs" textLength="40" x="118.25" y="167.0156">Object</text><line style="stroke: #A80036; stroke-width: 1.5;" x1="90.25" x2="160.25" y1="178" y2="178"/><line style="stroke: #A80036; stroke-width: 1.5;" x1="90.25" x2="160.25" y1="186" y2="186"/><path d="M54.25,93.272 C54.25,96.169 54.25,99.106 54.25,102.056 " fill="none" style="stroke: #A80036; stroke-width: 1.0;"/><ellipse cx="54.25" cy="85.827" fill="none" rx="8" ry="8" style="stroke: #A80036; stroke-width: 1.0;"/><line style="stroke: #A80036; stroke-width: 1.0;" x1="54.25" x2="54.25" y1="93.827" y2="77.827"/><line style="stroke: #A80036; stroke-width: 1.0;" x1="46.25" x2="62.25" y1="85.827" y2="85.827"/></g></svg>