<?xml version="1.0" encoding="UTF-8" standalone="yes"?><svg xmlns="http://www.w3.org/2000/svg" xmlns:xlink="http://www.w3.org/1999/xlink" height="239pt" style="width:436px;height:239px;" version="1.1" viewBox="0 0 436 239" width="436pt"><defs><filter height="300%" id="f1" width="300%" x="-1" y="-1"><feGaussianBlur result="blurOut" stdDeviation="2"/><feColorMatrix in="blurOut" result="blurOut2" type="matrix" values="0 0 0 0 0 0 0 0 0 0 0 0 0 0 0 0 0 0 .4 0"/><feOffset dx="4" dy="4" in="blurOut2" result="blurOut3"/><feBlend in="SourceGraphic" in2="blurOut3" mode="normal"/></filter></defs><g><polygon fill="#DDDDDD" filter="url(#f1)" points="22,24,175,24,182,46.2969,186,46.2969,186,232,22,232,22,24" style="stroke: #000000; stroke-width: 2.0;"/><line style="stroke: #000000; stroke-width: 2.0;" x1="22" x2="182" y1="46.2969" y2="46.2969"/><text fill="#000000" font-size="14" font-weight="bold" lengthAdjust="spacingAndGlyphs" textLength="147" x="25" y="41">Classic Collections</text><polygon fill="#FFFFFF" filter="url(#f1)" points="210,132,417,132,424,154.2969,429,154.2969,429,232,210,232,210,132" style="stroke: #000000; stroke-width: 2.0;"/><line style="stroke: #000000; stroke-width: 2.0;" x1="210" x2="424" y1="154.2969" y2="154.2969"/><text fill="#000000" font-size="14" font-weight="bold" lengthAdjust="spacingAndGlyphs" textLength="201" x="213" y="149">net.sourceforge.plantuml</text><rect fill="#FEFECE" filter="url(#f1)" height="48" style="stroke: #A80036; stroke-width: 1.5;" width="72" x="94" y="60"/><ellipse cx="109" cy="76" fill="#ADD1B2" rx="11" ry="11" style="stroke: #A80036; stroke-width: 1.0;"/><path d="M111.9688,81.6406 Q111.3906,81.9375 110.75,82.0859 Q110.1094,82.2344 109.4063,82.2344 Q106.9063,82.2344 105.5859,80.5859 Q104.2656,78.9375 104.2656,75.8125 Q104.2656,72.6875 105.5859,71.0313 Q106.9063,69.375 109.4063,69.375 Q110.1094,69.375 110.7578,69.5313 Q111.4063,69.6875 111.9688,69.9844 L111.9688,72.7031 Q111.3438,72.125 110.75,71.8516 Q110.1563,71.5781 109.5313,71.5781 Q108.1875,71.5781 107.5,72.6484 Q106.8125,73.7188 106.8125,75.8125 Q106.8125,77.9063 107.5,78.9766 Q108.1875,80.0469 109.5313,80.0469 Q110.1563,80.0469 110.75,79.7734 Q111.3438,79.5 111.9688,78.9219 L111.9688,81.6406 Z "/><text fill="#000000" font-size="12" lengthAdjust="spacingAndGlyphs" textLength="40" x="123" y="81.0156">Object</text><line style="stroke: #A80036; stroke-width: 1.5;" x1="95" x2="165" y1="92" y2="92"/><line style="stroke: #A80036; stroke-width: 1.5;" x1="95" x2="165" y1="100" y2="100"/><rect fill="#FEFECE" filter="url(#f1)" height="48" style="stroke: #A80036; stroke-width: 1.5;" width="85" x="84.75" y="168"/><ellipse cx="99.75" cy="184" fill="#ADD1B2" rx="11" ry="11" style="stroke: #A80036; stroke-width: 1.0;"/><path d="M102.7188,189.6406 Q102.1406,189.9375 101.5,190.0859 Q100.8594,190.2344 100.1563,190.2344 Q97.6563,190.2344 96.3359,188.5859 Q95.0156,186.9375 95.0156,183.8125 Q95.0156,180.6875 96.3359,179.0313 Q97.6563,177.375 100.1563,177.375 Q100.8594,177.375 101.5078,177.5313 Q102.1563,177.6875 102.7188,177.9844 L102.7188,180.7031 Q102.0938,180.125 101.5,179.8516 Q100.9063,179.5781 100.2813,179.5781 Q98.9375,179.5781 98.25,180.6484 Q97.5625,181.7188 97.5625,183.8125 Q97.5625,185.9063 98.25,186.9766 Q98.9375,188.0469 100.2813,188.0469 Q100.9063,188.0469 101.5,187.7734 Q102.0938,187.5 102.7188,186.9219 L102.7188,189.6406 Z "/><text fill="#000000" font-size="12" lengthAdjust="spacingAndGlyphs" textLength="53" x="113.75" y="189.0156">ArrayList</text><line style="stroke: #A80036; stroke-width: 1.5;" x1="85.75" x2="168.75" y1="200" y2="200"/><line style="stroke: #A80036; stroke-width: 1.5;" x1="85.75" x2="168.75" y1="208" y2="208"/><rect fill="#FEFECE" filter="url(#f1)" height="48" style="stroke: #A80036; stroke-width: 1.5;" width="76" x="226" y="168"/><ellipse cx="241" cy="184" fill="#ADD1B2" rx="11" ry="11" style="stroke: #A80036; stroke-width: 1.0;"/><path d="M243.9688,189.6406 Q243.3906,189.9375 242.75,190.0859 Q242.1094,190.2344 241.4063,190.2344 Q238.9063,190.2344 237.5859,188.5859 Q236.2656,186.9375 236.2656,183.8125 Q236.2656,180.6875 237.5859,179.0313 Q238.9063,177.375 241.4063,177.375 Q242.1094,177.375 242.7578,177.5313 Q243.4063,177.6875 243.9688,177.9844 L243.9688,180.7031 Q243.3438,180.125 242.75,179.8516 Q242.1563,179.5781 241.5313,179.5781 Q240.1875,179.5781 239.5,180.6484 Q238.8125,181.7188 238.8125,183.8125 Q238.8125,185.9063 239.5,186.9766 Q240.1875,188.0469 241.5313,188.0469 Q242.1563,188.0469 242.75,187.7734 Q243.3438,187.5 243.9688,186.9219 L243.9688,189.6406 Z "/><text fill="#000000" font-size="12" lengthAdjust="spacingAndGlyphs" textLength="44" x="255" y="189.0156">Demo1</text><line style="stroke: #A80036; stroke-width: 1.5;" x1="227" x2="301" y1="200" y2="200"/><line style="stroke: #A80036; stroke-width: 1.5;" x1="227" x2="301" y1="208" y2="208"/><rect fill="#FEFECE" filter="url(#f1)" height="48" style="stroke: #A80036; stroke-width: 1.5;" width="76" x="337" y="168"/><ellipse cx="352" cy="184" fill="#ADD1B2" rx="11" ry="11" style="stroke: #A80036; stroke-width: 1.0;"/><path d="M354.9688,189.6406 Q354.3906,189.9375 353.75,190.0859 Q353.1094,190.2344 352.4063,190.2344 Q349.9063,190.2344 348.5859,188.5859 Q347.2656,186.9375 347.2656,183.8125 Q347.2656,180.6875 348.5859,179.0313 Q349.9063,177.375 352.4063,177.375 Q353.1094,177.375 353.7578,177.5313 Q354.4063,177.6875 354.9688,177.9844 L354.9688,180.7031 Q354.3438,180.125 353.75,179.8516 Q353.1563,179.5781 352.5313,179.5781 Q351.1875,179.5781 350.5,180.6484 Q349.8125,181.7188 349.8125,183.8125 Q349.8125,185.9063 350.5,186.9766 Q351.1875,188.0469 352.5313,188.0469 Q353.1563,188.0469 353.75,187.7734 Q354.3438,187.5 354.9688,186.9219 L354.9688,189.6406 Z "/><text fill="#000000" font-size="12" lengthAdjust="spacingAndGlyphs" textLength="44" x="366" y="189.0156">Demo2</text><line style="stroke: #A80036; stroke-width: 1.5;" x1="338" x2="412" y1="200" y2="200"/><line style="stroke: #A80036; stroke-width: 1.5;" x1="338" x2="412" y1="208" y2="208"/><path d="M128.782,128.024 C128.399,141.579 127.989,156.0381 127.66,167.6784 " fill="none" style="stroke: #A80036; stroke-width: 1.0;"/><polygon fill="none" points="121.786,127.794,129.349,108,135.78,128.19,121.786,127.794" style="stroke: #A80036; stroke-width: 1.0;"/><path d="M180.764,120.008 C182.54,121.343 184.291,122.676 186,124 C204.065,137.992 223.565,154.7417 238.549,167.9938 " fill="none" style="stroke: #A80036; stroke-width: 1.0;"/><polygon fill="none" points="176.532,125.586,164.454,108.176,184.753,114.254,176.532,125.586" style="stroke: #A80036; stroke-width: 1.0;"/><path d="M315.174,192 C322.406,192 329.639,192 336.871,192 " fill="none" style="stroke: #A80036; stroke-width: 1.0;"/><polygon fill="#A80036" points="302.156,192,308.156,196,314.156,192,308.156,188,302.156,192" style="stroke: #A80036; stroke-width: 1.0;"/></g></svg>