<?xml version="1.0" encoding="UTF-8" standalone="yes"?><svg xmlns="http://www.w3.org/2000/svg" xmlns:xlink="http://www.w3.org/1999/xlink" height="383pt" style="width:217px;height:383px;" version="1.1" viewBox="0 0 217 383" width="217pt"><defs><filter height="300%" id="f1" width="300%" x="-1" y="-1"><feGaussianBlur result="blurOut" stdDeviation="2"/><feColorMatrix in="blurOut" result="blurOut2" type="matrix" values="0 0 0 0 0 0 0 0 0 0 0 0 0 0 0 0 0 0 .4 0"/><feOffset dx="4" dy="4" in="blurOut2" result="blurOut3"/><feBlend in="SourceGraphic" in2="blurOut3" mode="normal"/></filter></defs><g><rect fill="#FEFECE" filter="url(#f1)" height="60.8125" style="stroke: #A80036; stroke-width: 1.5;" width="82" x="31" y="30"/><ellipse cx="46" cy="46" fill="#ADD1B2" rx="11" ry="11" style="stroke: #A80036; stroke-width: 1.0;"/><path d="M48.9688,51.6406 Q48.3906,51.9375 47.75,52.0859 Q47.1094,52.2344 46.4063,52.2344 Q43.9063,52.2344 42.5859,50.5859 Q41.2656,48.9375 41.2656,45.8125 Q41.2656,42.6875 42.5859,41.0313 Q43.9063,39.375 46.4063,39.375 Q47.1094,39.375 47.7578,39.5313 Q48.4063,39.6875 48.9688,39.9844 L48.9688,42.7031 Q48.3438,42.125 47.75,41.8516 Q47.1563,41.5781 46.5313,41.5781 Q45.1875,41.5781 44.5,42.6484 Q43.8125,43.7188 43.8125,45.8125 Q43.8125,47.9063 44.5,48.9766 Q45.1875,50.0469 46.5313,50.0469 Q47.1563,50.0469 47.75,49.7734 Q48.3438,49.5 48.9688,48.9219 L48.9688,51.6406 Z "/><text fill="#000000" font-size="12" lengthAdjust="spacingAndGlyphs" textLength="50" x="60" y="51.0156">Student</text><line style="stroke: #A80036; stroke-width: 1.5;" x1="32" x2="112" y1="62" y2="62"/><text fill="#000000" font-size="11" lengthAdjust="spacingAndGlyphs" textLength="33" x="37" y="77">Name</text><line style="stroke: #A80036; stroke-width: 1.5;" x1="32" x2="112" y1="82.8125" y2="82.8125"/><rect fill="#FEFECE" filter="url(#f1)" height="48" style="stroke: #A80036; stroke-width: 1.5;" width="76" x="34" y="326"/><ellipse cx="49" cy="342" fill="#ADD1B2" rx="11" ry="11" style="stroke: #A80036; stroke-width: 1.0;"/><path d="M51.9688,347.6406 Q51.3906,347.9375 50.75,348.0859 Q50.1094,348.2344 49.4063,348.2344 Q46.9063,348.2344 45.5859,346.5859 Q44.2656,344.9375 44.2656,341.8125 Q44.2656,338.6875 45.5859,337.0313 Q46.9063,335.375 49.4063,335.375 Q50.1094,335.375 50.7578,335.5313 Q51.4063,335.6875 51.9688,335.9844 L51.9688,338.7031 Q51.3438,338.125 50.75,337.8516 Q50.1563,337.5781 49.5313,337.5781 Q48.1875,337.5781 47.5,338.6484 Q46.8125,339.7188 46.8125,341.8125 Q46.8125,343.9063 47.5,344.9766 Q48.1875,346.0469 49.5313,346.0469 Q50.1563,346.0469 50.75,345.7734 Q51.3438,345.5 51.9688,344.9219 L51.9688,347.6406 Z "/><text fill="#000000" font-size="12" lengthAdjust="spacingAndGlyphs" textLength="44" x="63" y="347.0156">Course</text><line style="stroke: #A80036; stroke-width: 1.5;" x1="35" x2="109" y1="358" y2="358"/><line style="stroke: #A80036; stroke-width: 1.5;" x1="35" x2="109" y1="366" y2="366"/><rect fill="#FEFECE" filter="url(#f1)" height="73.625" style="stroke: #A80036; stroke-width: 1.5;" width="99" x="109.75" y="170"/><ellipse cx="124.75" cy="186" fill="#ADD1B2" rx="11" ry="11" style="stroke: #A80036; stroke-width: 1.0;"/><path d="M127.7188,191.6406 Q127.1406,191.9375 126.5,192.0859 Q125.8594,192.2344 125.1563,192.2344 Q122.6563,192.2344 121.3359,190.5859 Q120.0156,188.9375 120.0156,185.8125 Q120.0156,182.6875 121.3359,181.0313 Q122.6563,179.375 125.1563,179.375 Q125.8594,179.375 126.5078,179.5313 Q127.1563,179.6875 127.7188,179.9844 L127.7188,182.7031 Q127.0938,182.125 126.5,181.8516 Q125.9063,181.5781 125.2813,181.5781 Q123.9375,181.5781 123.25,182.6484 Q122.5625,183.7188 122.5625,185.8125 Q122.5625,187.9063 123.25,188.9766 Q123.9375,190.0469 125.2813,190.0469 Q125.9063,190.0469 126.5,189.7734 Q127.0938,189.5 127.7188,188.9219 L127.7188,191.6406 Z "/><text fill="#000000" font-size="12" lengthAdjust="spacingAndGlyphs" textLength="67" x="138.75" y="191.0156">Enrollment</text><line style="stroke: #A80036; stroke-width: 1.5;" x1="110.75" x2="207.75" y1="202" y2="202"/><line style="stroke: #A80036; stroke-width: 1.5;" x1="110.75" x2="207.75" y1="210" y2="210"/><text fill="#000000" font-size="11" lengthAdjust="spacingAndGlyphs" textLength="34" x="115.75" y="225">drop()</text><text fill="#000000" font-size="11" lengthAdjust="spacingAndGlyphs" textLength="44" x="115.75" y="237.8125">cancel()</text><ellipse cx="72" cy="207" fill="#000000" rx="2" ry="2" style="stroke: none; stroke-width: 1.0;"/><path d="M72,90.343 C72,129.733 72,195.847 72,204.949 " fill="none" style="stroke: #A80036; stroke-width: 1.0;"/><text fill="#000000" font-size="13" lengthAdjust="spacingAndGlyphs" textLength="23" x="54.8729" y="111.7584">0..*</text><path d="M72,209.583 C72,220.838 72,289.336 72,325.9534 " fill="none" style="stroke: #A80036; stroke-width: 1.0;"/><text fill="#000000" font-size="13" lengthAdjust="spacingAndGlyphs" textLength="23" x="64.8899" y="315.9161">1..*</text><path d="M74.0391,207 C85.8761,207 97.7131,207 109.55,207 " fill="none" style="stroke: #A80036; stroke-width: 1.0; stroke-dasharray: 7.0,7.0;"/></g></svg>