<?xml version="1.0" encoding="UTF-8" standalone="yes"?><svg xmlns="http://www.w3.org/2000/svg" xmlns:xlink="http://www.w3.org/1999/xlink" height="190pt" style="width:241px;height:190px;" version="1.1" viewBox="0 0 241 190" width="241pt"><defs><filter height="300%" id="f1" width="300%" x="-1" y="-1"><feGaussianBlur result="blurOut" stdDeviation="2"/><feColorMatrix in="blurOut" result="blurOut2" type="matrix" values="0 0 0 0 0 0 0 0 0 0 0 0 0 0 0 0 0 0 .4 0"/><feOffset dx="4" dy="4" in="blurOut2" result="blurOut3"/><feBlend in="SourceGraphic" in2="blurOut3" mode="normal"/></filter></defs><g><rect fill="#FEFECE" filter="url(#f1)" height="52.8125" style="stroke: #A80036; stroke-width: 1.5;" width="99" x="13" y="8.5"/><ellipse cx="34.3" cy="24.5" fill="#ADD1B2" rx="11" ry="11" style="stroke: #A80036; stroke-width: 1.0;"/><path d="M37.2688,30.1406 Q36.6906,30.4375 36.05,30.5859 Q35.4094,30.7344 34.7063,30.7344 Q32.2063,30.7344 30.8859,29.0859 Q29.5656,27.4375 29.5656,24.3125 Q29.5656,21.1875 30.8859,19.5313 Q32.2063,17.875 34.7063,17.875 Q35.4094,17.875 36.0578,18.0313 Q36.7063,18.1875 37.2688,18.4844 L37.2688,21.2031 Q36.6438,20.625 36.05,20.3516 Q35.4563,20.0781 34.8313,20.0781 Q33.4875,20.0781 32.8,21.1484 Q32.1125,22.2188 32.1125,24.3125 Q32.1125,26.4063 32.8,27.4766 Q33.4875,28.5469 34.8313,28.5469 Q35.4563,28.5469 36.05,28.2734 Q36.6438,28 37.2688,27.4219 L37.2688,30.1406 Z "/><text fill="#000000" font-size="12" lengthAdjust="spacingAndGlyphs" textLength="53" x="49.7" y="29.5156">Dummy1</text><line style="stroke: #A80036; stroke-width: 1.5;" x1="14" x2="111" y1="40.5" y2="40.5"/><ellipse cx="24" cy="52.4063" fill="#84BE84" rx="3" ry="3" style="stroke: #038048; stroke-width: 1.0;"/><text fill="#000000" font-size="11" lengthAdjust="spacingAndGlyphs" textLength="73" x="33" y="55.5">myMethods()</text><rect fill="#FEFECE" filter="url(#f1)" height="32" style="stroke: #A80036; stroke-width: 1.5;" width="85" x="147" y="19"/><ellipse cx="162" cy="35" fill="#ADD1B2" rx="11" ry="11" style="stroke: #A80036; stroke-width: 1.0;"/><path d="M164.9688,40.6406 Q164.3906,40.9375 163.75,41.0859 Q163.1094,41.2344 162.4063,41.2344 Q159.9063,41.2344 158.5859,39.5859 Q157.2656,37.9375 157.2656,34.8125 Q157.2656,31.6875 158.5859,30.0313 Q159.9063,28.375 162.4063,28.375 Q163.1094,28.375 163.7578,28.5313 Q164.4063,28.6875 164.9688,28.9844 L164.9688,31.7031 Q164.3438,31.125 163.75,30.8516 Q163.1563,30.5781 162.5313,30.5781 Q161.1875,30.5781 160.5,31.6484 Q159.8125,32.7188 159.8125,34.8125 Q159.8125,36.9063 160.5,37.9766 Q161.1875,39.0469 162.5313,39.0469 Q163.1563,39.0469 163.75,38.7734 Q164.3438,38.5 164.9688,37.9219 L164.9688,40.6406 Z "/><text fill="#000000" font-size="12" lengthAdjust="spacingAndGlyphs" textLength="53" x="176" y="40.0156">Dummy2</text><rect fill="#FEFECE" filter="url(#f1)" height="58.75" style="stroke: #A80036; stroke-width: 1.5;" width="113" x="6" y="122.5"/><text fill="#000000" font-size="12" font-style="italic" lengthAdjust="spacingAndGlyphs" textLength="111" x="7" y="139.5">&lt;&lt;Serializable&gt;&gt;</text><text fill="#000000" font-size="12" lengthAdjust="spacingAndGlyphs" textLength="53" x="36" y="153.4688">Dummy3</text><line style="stroke: #A80036; stroke-width: 1.5;" x1="7" x2="118" y1="160.4375" y2="160.4375"/><text fill="#000000" font-size="11" lengthAdjust="spacingAndGlyphs" textLength="70" x="12" y="175.4375">String name</text></g></svg>