<?xml version="1.0" encoding="UTF-8" standalone="yes"?><svg xmlns="http://www.w3.org/2000/svg" xmlns:xlink="http://www.w3.org/1999/xlink" height="197pt" style="width:1542px;height:197px;" version="1.1" viewBox="0 0 1542 197" width="1542pt"><defs><filter height="300%" id="f1" width="300%" x="-1" y="-1"><feGaussianBlur result="blurOut" stdDeviation="2"/><feColorMatrix in="blurOut" result="blurOut2" type="matrix" values="0 0 0 0 0 0 0 0 0 0 0 0 0 0 0 0 0 0 .4 0"/><feOffset dx="4" dy="4" in="blurOut2" result="blurOut3"/><feBlend in="SourceGraphic" in2="blurOut3" mode="normal"/></filter></defs><g><rect fill="#FEFECE" filter="url(#f1)" height="48" style="stroke: #A80036; stroke-width: 1.5;" width="55" x="194" y="20"/><ellipse cx="209" cy="36" fill="#ADD1B2" rx="11" ry="11" style="stroke: #A80036; stroke-width: 1.0;"/><path d="M211.9688,41.6406 Q211.3906,41.9375 210.75,42.0859 Q210.1094,42.2344 209.4063,42.2344 Q206.9063,42.2344 205.5859,40.5859 Q204.2656,38.9375 204.2656,35.8125 Q204.2656,32.6875 205.5859,31.0313 Q206.9063,29.375 209.4063,29.375 Q210.1094,29.375 210.7578,29.5313 Q211.4063,29.6875 211.9688,29.9844 L211.9688,32.7031 Q211.3438,32.125 210.75,31.8516 Q210.1563,31.5781 209.5313,31.5781 Q208.1875,31.5781 207.5,32.6484 Q206.8125,33.7188 206.8125,35.8125 Q206.8125,37.9063 207.5,38.9766 Q208.1875,40.0469 209.5313,40.0469 Q210.1563,40.0469 210.75,39.7734 Q211.3438,39.5 211.9688,38.9219 L211.9688,41.6406 Z "/><text fill="#000000" font-size="12" lengthAdjust="spacingAndGlyphs" textLength="23" x="223" y="41.0156">Foo</text><line style="stroke: #A80036; stroke-width: 1.5;" x1="195" x2="248" y1="52" y2="52"/><line style="stroke: #A80036; stroke-width: 1.5;" x1="195" x2="248" y1="60" y2="60"/><polygon fill="#FBFB77" filter="url(#f1)" points="6,31.5,6,56.6406,159,56.6406,159,41.5,149,31.5,6,31.5" style="stroke: #A80036; stroke-width: 1.0;"/><polygon fill="#FBFB77" points="6,31.5,6,56.6406,159,56.6406,159,49.5,193.813,44,159,41.5,159,41.5,149,31.5,6,31.5" style="stroke: #A80036; stroke-width: 1.0;"/><line style="stroke: #A80036; stroke-width: 1.0;" x1="149" x2="149" y1="31.5" y2="41.5"/><line style="stroke: #A80036; stroke-width: 1.0;" x1="159" x2="149" y1="41.5" y2="41.5"/><text fill="#000000" font-size="13" lengthAdjust="spacingAndGlyphs" textLength="132" x="12" y="49.5">On last defined class</text><rect fill="#FEFECE" filter="url(#f1)" height="48" style="stroke: #A80036; stroke-width: 1.5;" width="72" x="327.25" y="140"/><ellipse cx="342.25" cy="156" fill="#ADD1B2" rx="11" ry="11" style="stroke: #A80036; stroke-width: 1.0;"/><path d="M345.2188,161.6406 Q344.6406,161.9375 344,162.0859 Q343.3594,162.2344 342.6563,162.2344 Q340.1563,162.2344 338.8359,160.5859 Q337.5156,158.9375 337.5156,155.8125 Q337.5156,152.6875 338.8359,151.0313 Q340.1563,149.375 342.6563,149.375 Q343.3594,149.375 344.0078,149.5313 Q344.6563,149.6875 345.2188,149.9844 L345.2188,152.7031 Q344.5938,152.125 344,151.8516 Q343.4063,151.5781 342.7813,151.5781 Q341.4375,151.5781 340.75,152.6484 Q340.0625,153.7188 340.0625,155.8125 Q340.0625,157.9063 340.75,158.9766 Q341.4375,160.0469 342.7813,160.0469 Q343.4063,160.0469 344,159.7734 Q344.5938,159.5 345.2188,158.9219 L345.2188,161.6406 Z "/><text fill="#000000" font-size="12" lengthAdjust="spacingAndGlyphs" textLength="40" x="356.25" y="161.0156">Object</text><line style="stroke: #A80036; stroke-width: 1.5;" x1="328.25" x2="398.25" y1="172" y2="172"/><line style="stroke: #A80036; stroke-width: 1.5;" x1="328.25" x2="398.25" y1="180" y2="180"/><polygon fill="#FBFB77" filter="url(#f1)" points="284.75,13.5,284.75,74.7344,442.75,74.7344,442.75,23.5,432.75,13.5,284.75,13.5" style="stroke: #A80036; stroke-width: 1.0;"/><polygon fill="#FBFB77" points="284.75,13.5,284.75,74.7344,359.25,74.7344,363.25,139.9332,367.25,74.7344,442.75,74.7344,442.75,23.5,432.75,13.5,284.75,13.5" style="stroke: #A80036; stroke-width: 1.0;"/><line style="stroke: #A80036; stroke-width: 1.0;" x1="432.75" x2="432.75" y1="13.5" y2="23.5"/><line style="stroke: #A80036; stroke-width: 1.0;" x1="442.75" x2="432.75" y1="23.5" y2="23.5"/><text fill="#000000" font-size="13" lengthAdjust="spacingAndGlyphs" textLength="45" x="290.75" y="37.3125">In java,</text><text fill="#000000" font-size="18" lengthAdjust="spacingAndGlyphs" textLength="52" x="339.75" y="37.3125">every</text><text fill="#000000" font-size="13" lengthAdjust="spacingAndGlyphs" textLength="0" x="395.75" y="37.3125"/><text fill="#000000" font-size="13" lengthAdjust="spacingAndGlyphs" text-decoration="underline" textLength="32" x="395.75" y="37.3125">class</text><text fill="#000000" font-size="13" font-weight="bold" lengthAdjust="spacingAndGlyphs" textLength="59" x="290.75" y="52.4531">extends</text><text fill="#000000" font-size="13" font-style="italic" lengthAdjust="spacingAndGlyphs" textLength="23" x="290.75" y="67.5938">this</text><text fill="#000000" font-size="13" lengthAdjust="spacingAndGlyphs" textLength="28" x="317.75" y="67.5938">one.</text><polygon fill="#FBFB77" filter="url(#f1)" points="477.25,8.5,477.25,79.0625,1533.25,79.0625,1533.25,18.5,1523.25,8.5,477.25,8.5" style="stroke: #A80036; stroke-width: 1.0;"/><line style="stroke: #A80036; stroke-width: 1.0;" x1="1523.25" x2="1523.25" y1="8.5" y2="18.5"/><line style="stroke: #A80036; stroke-width: 1.0;" x1="1533.25" x2="1523.25" y1="18.5" y2="18.5"/><text fill="#000000" font-size="13" lengthAdjust="spacingAndGlyphs" textLength="72" x="483.25" y="26.5">This note is</text><text fill="#000000" font-size="13" lengthAdjust="spacingAndGlyphs" text-decoration="underline" textLength="26" x="559.25" y="26.5">also</text><text fill="#4169E1" font-size="13" font-weight="bold" lengthAdjust="spacingAndGlyphs" textLength="76" x="483.25" y="41.6406">on several</text><text fill="#000000" font-size="13" lengthAdjust="spacingAndGlyphs" text-decoration="line-through" textLength="37" x="483.25" y="56.7813">words</text><text fill="#000000" font-size="13" lengthAdjust="spacingAndGlyphs" textLength="29" x="524.25" y="56.7813">lines</text><text fill="#000000" font-size="13" lengthAdjust="spacingAndGlyphs" textLength="133" x="483.25" y="71.9219">And this is hosted by</text><text fill="#000000" font-size="13" lengthAdjust="spacingAndGlyphs" textLength="898" x="620.25" y="71.9219">(File not found: /mnt/007-ST-DATA-LNX/borco/projects/plantumlqeditor-build-desktop-Qt_4_8_2_in_PATH__System__Release/sourceforge.jpg)</text></g></svg>