<?xml version="1.0" encoding="UTF-8" standalone="yes"?><svg xmlns="http://www.w3.org/2000/svg" xmlns:xlink="http://www.w3.org/1999/xlink" height="116pt" style="width:94px;height:116px;" version="1.1" viewBox="0 0 94 116" width="94pt"><defs><filter height="300%" id="f1" width="300%" x="-1" y="-1"><feGaussianBlur result="blurOut" stdDeviation="2"/><feColorMatrix in="blurOut" result="blurOut2" type="matrix" values="0 0 0 0 0 0 0 0 0 0 0 0 0 0 0 0 0 0 .4 0"/><feOffset dx="4" dy="4" in="blurOut2" result="blurOut3"/><feBlend in="SourceGraphic" in2="blurOut3" mode="normal"/></filter></defs><g><rect fill="#FEFECE" filter="url(#f1)" height="99.25" style="stroke: #A80036; stroke-width: 1.5;" width="79" x="6" y="8.5"/><ellipse cx="21.9" cy="24.5" fill="#ADD1B2" rx="11" ry="11" style="stroke: #A80036; stroke-width: 1.0;"/><path d="M24.8688,30.1406 Q24.2906,30.4375 23.65,30.5859 Q23.0094,30.7344 22.3063,30.7344 Q19.8063,30.7344 18.4859,29.0859 Q17.1656,27.4375 17.1656,24.3125 Q17.1656,21.1875 18.4859,19.5313 Q19.8063,17.875 22.3063,17.875 Q23.0094,17.875 23.6578,18.0313 Q24.3063,18.1875 24.8688,18.4844 L24.8688,21.2031 Q24.2438,20.625 23.65,20.3516 Q23.0563,20.0781 22.4313,20.0781 Q21.0875,20.0781 20.4,21.1484 Q19.7125,22.2188 19.7125,24.3125 Q19.7125,26.4063 20.4,27.4766 Q21.0875,28.5469 22.4313,28.5469 Q23.0563,28.5469 23.65,28.2734 Q24.2438,28 24.8688,27.4219 L24.8688,30.1406 Z "/><text fill="#000000" font-size="12" lengthAdjust="spacingAndGlyphs" textLength="45" x="36.1" y="29.5156">Dummy</text><line style="stroke: #A80036; stroke-width: 1.5;" x1="7" x2="84" y1="40.5" y2="40.5"/><text fill="#000000" font-size="11" lengthAdjust="spacingAndGlyphs" textLength="35" x="12" y="55.5">-field1</text><text fill="#000000" font-size="11" lengthAdjust="spacingAndGlyphs" textLength="40" x="12" y="68.3125">#field2</text><line style="stroke: #A80036; stroke-width: 1.5;" x1="7" x2="84" y1="74.125" y2="74.125"/><text fill="#000000" font-size="11" lengthAdjust="spacingAndGlyphs" textLength="67" x="12" y="89.125">~method1()</text><text fill="#000000" font-size="11" lengthAdjust="spacingAndGlyphs" textLength="67" x="12" y="101.9375">+method2()</text></g></svg>