<?xml version="1.0" encoding="UTF-8" standalone="yes"?><svg xmlns="http://www.w3.org/2000/svg" xmlns:xlink="http://www.w3.org/1999/xlink" height="212pt" style="width:147px;height:212px;" version="1.1" viewBox="0 0 147 212" width="147pt"><defs><filter height="300%" id="f1" width="300%" x="-1" y="-1"><feGaussianBlur result="blurOut" stdDeviation="2"/><feColorMatrix in="blurOut" result="blurOut2" type="matrix" values="0 0 0 0 0 0 0 0 0 0 0 0 0 0 0 0 0 0 .4 0"/><feOffset dx="4" dy="4" in="blurOut2" result="blurOut3"/><feBlend in="SourceGraphic" in2="blurOut3" mode="normal"/></filter></defs><g><rect fill="#FEFECE" filter="url(#f1)" height="60.8125" style="stroke: #A80036; stroke-width: 1.5;" width="72" x="36" y="8.5"/><ellipse cx="51" cy="24.5" fill="#ADD1B2" rx="11" ry="11" style="stroke: #A80036; stroke-width: 1.0;"/><path d="M53.9688,30.1406 Q53.3906,30.4375 52.75,30.5859 Q52.1094,30.7344 51.4063,30.7344 Q48.9063,30.7344 47.5859,29.0859 Q46.2656,27.4375 46.2656,24.3125 Q46.2656,21.1875 47.5859,19.5313 Q48.9063,17.875 51.4063,17.875 Q52.1094,17.875 52.7578,18.0313 Q53.4063,18.1875 53.9688,18.4844 L53.9688,21.2031 Q53.3438,20.625 52.75,20.3516 Q52.1563,20.0781 51.5313,20.0781 Q50.1875,20.0781 49.5,21.1484 Q48.8125,22.2188 48.8125,24.3125 Q48.8125,26.4063 49.5,27.4766 Q50.1875,28.5469 51.5313,28.5469 Q52.1563,28.5469 52.75,28.2734 Q53.3438,28 53.9688,27.4219 L53.9688,30.1406 Z "/><text fill="#000000" font-size="12" lengthAdjust="spacingAndGlyphs" textLength="40" x="65" y="29.5156">Object</text><line style="stroke: #A80036; stroke-width: 1.5;" x1="37" x2="107" y1="40.5" y2="40.5"/><line style="stroke: #A80036; stroke-width: 1.5;" x1="37" x2="107" y1="48.5" y2="48.5"/><text fill="#000000" font-size="11" lengthAdjust="spacingAndGlyphs" textLength="46" x="42" y="63.5">equals()</text><rect fill="#FEFECE" filter="url(#f1)" height="73.625" style="stroke: #A80036; stroke-width: 1.5;" width="132" x="6" y="130"/><ellipse cx="42.15" cy="146" fill="#ADD1B2" rx="11" ry="11" style="stroke: #A80036; stroke-width: 1.0;"/><path d="M45.1188,151.6406 Q44.5406,151.9375 43.9,152.0859 Q43.2594,152.2344 42.5563,152.2344 Q40.0563,152.2344 38.7359,150.5859 Q37.4156,148.9375 37.4156,145.8125 Q37.4156,142.6875 38.7359,141.0313 Q40.0563,139.375 42.5563,139.375 Q43.2594,139.375 43.9078,139.5313 Q44.5563,139.6875 45.1188,139.9844 L45.1188,142.7031 Q44.4938,142.125 43.9,141.8516 Q43.3063,141.5781 42.6813,141.5781 Q41.3375,141.5781 40.65,142.6484 Q39.9625,143.7188 39.9625,145.8125 Q39.9625,147.9063 40.65,148.9766 Q41.3375,150.0469 42.6813,150.0469 Q43.3063,150.0469 43.9,149.7734 Q44.4938,149.5 45.1188,148.9219 L45.1188,151.6406 Z "/><text fill="#000000" font-size="12" lengthAdjust="spacingAndGlyphs" textLength="53" x="60.85" y="151.0156">ArrayList</text><line style="stroke: #A80036; stroke-width: 1.5;" x1="7" x2="137" y1="162" y2="162"/><text fill="#000000" font-size="11" lengthAdjust="spacingAndGlyphs" textLength="120" x="12" y="177">Object[] elementData</text><line style="stroke: #A80036; stroke-width: 1.5;" x1="7" x2="137" y1="182.8125" y2="182.8125"/><text fill="#000000" font-size="11" lengthAdjust="spacingAndGlyphs" textLength="30" x="12" y="197.8125">size()</text><path d="M72,89.597 C72,103.046 72,117.3489 72,129.8987 " fill="none" style="stroke: #A80036; stroke-width: 1.0;"/><polygon fill="none" points="65.0001,89.541,72,69.541,79.0001,89.541,65.0001,89.541" style="stroke: #A80036; stroke-width: 1.0;"/></g></svg>