<?xml version="1.0" encoding="UTF-8" standalone="yes"?><svg xmlns="http://www.w3.org/2000/svg" xmlns:xlink="http://www.w3.org/1999/xlink" height="173pt" style="width:202px;height:173px;" version="1.1" viewBox="0 0 202 173" width="202pt"><defs><filter height="300%" id="f1" width="300%" x="-1" y="-1"><feGaussianBlur result="blurOut" stdDeviation="2"/><feColorMatrix in="blurOut" result="blurOut2" type="matrix" values="0 0 0 0 0 0 0 0 0 0 0 0 0 0 0 0 0 0 .4 0"/><feOffset dx="4" dy="4" in="blurOut2" result="blurOut3"/><feBlend in="SourceGraphic" in2="blurOut3" mode="normal"/></filter></defs><g><rect fill="#FEFECE" filter="url(#f1)" height="48" style="stroke: #A80036; stroke-width: 1.5;" width="67" x="6" y="8"/><ellipse cx="21" cy="24" fill="#ADD1B2" rx="11" ry="11" style="stroke: #A80036; stroke-width: 1.0;"/><path d="M23.9688,29.6406 Q23.3906,29.9375 22.75,30.0859 Q22.1094,30.2344 21.4063,30.2344 Q18.9063,30.2344 17.5859,28.5859 Q16.2656,26.9375 16.2656,23.8125 Q16.2656,20.6875 17.5859,19.0313 Q18.9063,17.375 21.4063,17.375 Q22.1094,17.375 22.7578,17.5313 Q23.4063,17.6875 23.9688,17.9844 L23.9688,20.7031 Q23.3438,20.125 22.75,19.8516 Q22.1563,19.5781 21.5313,19.5781 Q20.1875,19.5781 19.5,20.6484 Q18.8125,21.7188 18.8125,23.8125 Q18.8125,25.9063 19.5,26.9766 Q20.1875,28.0469 21.5313,28.0469 Q22.1563,28.0469 22.75,27.7734 Q23.3438,27.5 23.9688,26.9219 L23.9688,29.6406 Z "/><text fill="#000000" font-size="12" lengthAdjust="spacingAndGlyphs" textLength="35" x="35" y="29.0156">Room</text><line style="stroke: #A80036; stroke-width: 1.5;" x1="7" x2="72" y1="40" y2="40"/><line style="stroke: #A80036; stroke-width: 1.5;" x1="7" x2="72" y1="48" y2="48"/><rect fill="#FEFECE" filter="url(#f1)" height="48" style="stroke: #A80036; stroke-width: 1.5;" width="85" x="108" y="8"/><ellipse cx="123" cy="24" fill="#ADD1B2" rx="11" ry="11" style="stroke: #A80036; stroke-width: 1.0;"/><path d="M125.9688,29.6406 Q125.3906,29.9375 124.75,30.0859 Q124.1094,30.2344 123.4063,30.2344 Q120.9063,30.2344 119.5859,28.5859 Q118.2656,26.9375 118.2656,23.8125 Q118.2656,20.6875 119.5859,19.0313 Q120.9063,17.375 123.4063,17.375 Q124.1094,17.375 124.7578,17.5313 Q125.4063,17.6875 125.9688,17.9844 L125.9688,20.7031 Q125.3438,20.125 124.75,19.8516 Q124.1563,19.5781 123.5313,19.5781 Q122.1875,19.5781 121.5,20.6484 Q120.8125,21.7188 120.8125,23.8125 Q120.8125,25.9063 121.5,26.9766 Q122.1875,28.0469 123.5313,28.0469 Q124.1563,28.0469 124.75,27.7734 Q125.3438,27.5 125.9688,26.9219 L125.9688,29.6406 Z "/><text fill="#000000" font-size="12" lengthAdjust="spacingAndGlyphs" textLength="53" x="137" y="29.0156">Studient</text><line style="stroke: #A80036; stroke-width: 1.5;" x1="109" x2="192" y1="40" y2="40"/><line style="stroke: #A80036; stroke-width: 1.5;" x1="109" x2="192" y1="48" y2="48"/><rect fill="#FEFECE" filter="url(#f1)" height="48" style="stroke: #A80036; stroke-width: 1.5;" width="64" x="7.25" y="116"/><ellipse cx="22.25" cy="132" fill="#ADD1B2" rx="11" ry="11" style="stroke: #A80036; stroke-width: 1.0;"/><path d="M25.2188,137.6406 Q24.6406,137.9375 24,138.0859 Q23.3594,138.2344 22.6563,138.2344 Q20.1563,138.2344 18.8359,136.5859 Q17.5156,134.9375 17.5156,131.8125 Q17.5156,128.6875 18.8359,127.0313 Q20.1563,125.375 22.6563,125.375 Q23.3594,125.375 24.0078,125.5313 Q24.6563,125.6875 25.2188,125.9844 L25.2188,128.7031 Q24.5938,128.125 24,127.8516 Q23.4063,127.5781 22.7813,127.5781 Q21.4375,127.5781 20.75,128.6484 Q20.0625,129.7188 20.0625,131.8125 Q20.0625,133.9063 20.75,134.9766 Q21.4375,136.0469 22.7813,136.0469 Q23.4063,136.0469 24,135.7734 Q24.5938,135.5 25.2188,134.9219 L25.2188,137.6406 Z "/><text fill="#000000" font-size="12" lengthAdjust="spacingAndGlyphs" textLength="32" x="36.25" y="137.0156">Chair</text><line style="stroke: #A80036; stroke-width: 1.5;" x1="8.25" x2="70.25" y1="148" y2="148"/><line style="stroke: #A80036; stroke-width: 1.5;" x1="8.25" x2="70.25" y1="156" y2="156"/><path d="M85.8249,32 C93.1517,32 100.4785,32 107.805,32 " fill="none" style="stroke: #A80036; stroke-width: 1.0;"/><polygon fill="none" points="72.6367,32,78.6367,36,84.6367,32,78.6367,28,72.6367,32" style="stroke: #A80036; stroke-width: 1.0;"/><path d="M39.25,69.3383 C39.25,84.6813 39.25,102.098 39.25,115.6784 " fill="none" style="stroke: #A80036; stroke-width: 1.0;"/><polygon fill="#A80036" points="39.25,56,35.25,62,39.25,68,43.25,62,39.25,56" style="stroke: #A80036; stroke-width: 1.0;"/></g></svg>