<?xml version="1.0" encoding="UTF-8" standalone="yes"?><svg xmlns="http://www.w3.org/2000/svg" xmlns:xlink="http://www.w3.org/1999/xlink" height="252pt" style="width:322px;height:252px;" version="1.1" viewBox="0 0 322 252" width="322pt"><defs><filter height="300%" id="f1" width="300%" x="-1" y="-1"><feGaussianBlur result="blurOut" stdDeviation="2"/><feColorMatrix in="blurOut" result="blurOut2" type="matrix" values="0 0 0 0 0 0 0 0 0 0 0 0 0 0 0 0 0 0 .4 0"/><feOffset dx="4" dy="4" in="blurOut2" result="blurOut3"/><feBlend in="SourceGraphic" in2="blurOut3" mode="normal"/></filter></defs><g><rect fill="#FEFECE" filter="url(#f1)" height="60.8125" style="stroke: #A80036; stroke-width: 1.5;" width="82" x="31" y="30"/><ellipse cx="46" cy="46" fill="#ADD1B2" rx="11" ry="11" style="stroke: #A80036; stroke-width: 1.0;"/><path d="M48.9688,51.6406 Q48.3906,51.9375 47.75,52.0859 Q47.1094,52.2344 46.4063,52.2344 Q43.9063,52.2344 42.5859,50.5859 Q41.2656,48.9375 41.2656,45.8125 Q41.2656,42.6875 42.5859,41.0313 Q43.9063,39.375 46.4063,39.375 Q47.1094,39.375 47.7578,39.5313 Q48.4063,39.6875 48.9688,39.9844 L48.9688,42.7031 Q48.3438,42.125 47.75,41.8516 Q47.1563,41.5781 46.5313,41.5781 Q45.1875,41.5781 44.5,42.6484 Q43.8125,43.7188 43.8125,45.8125 Q43.8125,47.9063 44.5,48.9766 Q45.1875,50.0469 46.5313,50.0469 Q47.1563,50.0469 47.75,49.7734 Q48.3438,49.5 48.9688,48.9219 L48.9688,51.6406 Z "/><text fill="#000000" font-size="12" lengthAdjust="spacingAndGlyphs" textLength="50" x="60" y="51.0156">Student</text><line style="stroke: #A80036; stroke-width: 1.5;" x1="32" x2="112" y1="62" y2="62"/><text fill="#000000" font-size="11" lengthAdjust="spacingAndGlyphs" textLength="33" x="37" y="77">Name</text><line style="stroke: #A80036; stroke-width: 1.5;" x1="32" x2="112" y1="82.8125" y2="82.8125"/><rect fill="#FEFECE" filter="url(#f1)" height="48" style="stroke: #A80036; stroke-width: 1.5;" width="76" x="237" y="36"/><ellipse cx="252" cy="52" fill="#ADD1B2" rx="11" ry="11" style="stroke: #A80036; stroke-width: 1.0;"/><path d="M254.9688,57.6406 Q254.3906,57.9375 253.75,58.0859 Q253.1094,58.2344 252.4063,58.2344 Q249.9063,58.2344 248.5859,56.5859 Q247.2656,54.9375 247.2656,51.8125 Q247.2656,48.6875 248.5859,47.0313 Q249.9063,45.375 252.4063,45.375 Q253.1094,45.375 253.7578,45.5313 Q254.4063,45.6875 254.9688,45.9844 L254.9688,48.7031 Q254.3438,48.125 253.75,47.8516 Q253.1563,47.5781 252.5313,47.5781 Q251.1875,47.5781 250.5,48.6484 Q249.8125,49.7188 249.8125,51.8125 Q249.8125,53.9063 250.5,54.9766 Q251.1875,56.0469 252.5313,56.0469 Q253.1563,56.0469 253.75,55.7734 Q254.3438,55.5 254.9688,54.9219 L254.9688,57.6406 Z "/><text fill="#000000" font-size="12" lengthAdjust="spacingAndGlyphs" textLength="44" x="266" y="57.0156">Course</text><line style="stroke: #A80036; stroke-width: 1.5;" x1="238" x2="312" y1="68" y2="68"/><line style="stroke: #A80036; stroke-width: 1.5;" x1="238" x2="312" y1="76" y2="76"/><rect fill="#FEFECE" filter="url(#f1)" height="73.625" style="stroke: #A80036; stroke-width: 1.5;" width="99" x="124.75" y="170"/><ellipse cx="139.75" cy="186" fill="#ADD1B2" rx="11" ry="11" style="stroke: #A80036; stroke-width: 1.0;"/><path d="M142.7188,191.6406 Q142.1406,191.9375 141.5,192.0859 Q140.8594,192.2344 140.1563,192.2344 Q137.6563,192.2344 136.3359,190.5859 Q135.0156,188.9375 135.0156,185.8125 Q135.0156,182.6875 136.3359,181.0313 Q137.6563,179.375 140.1563,179.375 Q140.8594,179.375 141.5078,179.5313 Q142.1563,179.6875 142.7188,179.9844 L142.7188,182.7031 Q142.0938,182.125 141.5,181.8516 Q140.9063,181.5781 140.2813,181.5781 Q138.9375,181.5781 138.25,182.6484 Q137.5625,183.7188 137.5625,185.8125 Q137.5625,187.9063 138.25,188.9766 Q138.9375,190.0469 140.2813,190.0469 Q140.9063,190.0469 141.5,189.7734 Q142.0938,189.5 142.7188,188.9219 L142.7188,191.6406 Z "/><text fill="#000000" font-size="12" lengthAdjust="spacingAndGlyphs" textLength="67" x="153.75" y="191.0156">Enrollment</text><line style="stroke: #A80036; stroke-width: 1.5;" x1="125.75" x2="222.75" y1="202" y2="202"/><line style="stroke: #A80036; stroke-width: 1.5;" x1="125.75" x2="222.75" y1="210" y2="210"/><text fill="#000000" font-size="11" lengthAdjust="spacingAndGlyphs" textLength="34" x="130.75" y="225">drop()</text><text fill="#000000" font-size="11" lengthAdjust="spacingAndGlyphs" textLength="44" x="130.75" y="237.8125">cancel()</text><ellipse cx="174" cy="59" fill="#000000" rx="2" ry="2" style="stroke: none; stroke-width: 1.0;"/><path d="M113.098,72.124 C139.18,73.062 169.006,69.169 172.633,60.745 " fill="none" style="stroke: #A80036; stroke-width: 1.0;"/><text fill="#000000" font-size="13" lengthAdjust="spacingAndGlyphs" textLength="23" x="120.9329" y="84.9338">0..*</text><path d="M176.112,59.011 C182.166,59.072 211.811,59.372 236.907,59.625 " fill="none" style="stroke: #A80036; stroke-width: 1.0;"/><text fill="#000000" font-size="13" lengthAdjust="spacingAndGlyphs" textLength="23" x="206.0668" y="59.2517">1..*</text><path d="M174,61.262 C174,70.627 174,130.034 174,169.7694 " fill="none" style="stroke: #A80036; stroke-width: 1.0; stroke-dasharray: 7.0,7.0;"/></g></svg>