<?xml version="1.0" encoding="UTF-8" standalone="yes"?><svg xmlns="http://www.w3.org/2000/svg" xmlns:xlink="http://www.w3.org/1999/xlink" height="141pt" style="width:785px;height:141px;" version="1.1" viewBox="0 0 785 141" width="785pt"><defs><filter height="300%" id="f1" width="300%" x="-1" y="-1"><feGaussianBlur result="blurOut" stdDeviation="2"/><feColorMatrix in="blurOut" result="blurOut2" type="matrix" values="0 0 0 0 0 0 0 0 0 0 0 0 0 0 0 0 0 0 .4 0"/><feOffset dx="4" dy="4" in="blurOut2" result="blurOut3"/><feBlend in="SourceGraphic" in2="blurOut3" mode="normal"/></filter></defs><g><polygon fill="#FFFFFF" filter="url(#f1)" points="22,34,32,24,138,24,138,114,128,124,22,124,22,34" style="stroke: #000000; stroke-width: 2.0;"/><line style="stroke: #000000; stroke-width: 2.0;" x1="128" x2="137" y1="34" y2="25"/><path d="M22,34 L128,34 L128,124 " fill="#FFFFFF" style="stroke: #000000; stroke-width: 2.0;"/><text fill="#000000" font-size="14" font-weight="bold" lengthAdjust="spacingAndGlyphs" textLength="36" x="25" y="51">foo1</text><rect fill="#FFFFFF" filter="url(#f1)" height="100" style="stroke: #000000; stroke-width: 2.0;" width="106" x="152" y="24"/><text fill="#000000" font-size="14" font-weight="bold" lengthAdjust="spacingAndGlyphs" textLength="36" x="187" y="43">foo2</text><polygon fill="#FFFFFF" filter="url(#f1)" points="282,24,324,24,331,46.2969,388,46.2969,388,124,282,124,282,24" style="stroke: #000000; stroke-width: 2.0;"/><line style="stroke: #000000; stroke-width: 2.0;" x1="282" x2="331" y1="46.2969" y2="46.2969"/><text fill="#000000" font-size="14" font-weight="bold" lengthAdjust="spacingAndGlyphs" textLength="36" x="285" y="41">foo3</text><rect fill="#FFFFFF" filter="url(#f1)" height="100" style="stroke: #000000; stroke-width: 2.0;" width="106" x="412" y="24"/><path d="M458,25 L458,33.2969 L448,43.2969 L412,43.2969 " fill="#FFFFFF" style="stroke: #000000; stroke-width: 2.0;"/><text fill="#000000" font-size="14" font-weight="bold" lengthAdjust="spacingAndGlyphs" textLength="36" x="415" y="38">foo4</text><path d="M542,34 C542,31 544,29 547,29 C550,29 552,31 552,34 C552,31 554,29 557,29 C560,29 562,31 562,34 C562,31 564,29 567,29 C570,29 572,31 572,34 C572,31 574,29 577,29 C580,29 582,31 582,34 C582,31 584,29 587,29 C590,29 592,31 592,34 C592,31 594,29 597,29 C600,29 602,31 602,34 C602,31 604,29 607,29 C610,29 612,31 612,34 C612,31 614,29 617,29 C620,29 622,31 622,34 C622,31 624,29 627,29 C630,29 632,31 632,34 C632,31 634,29 637,29 C640,29 642,31 642,34 C645,34 647,36 647,39 C647,42 645,44 642,44 C645,44 647,46 647,49 C647,52 645,54 642,54 C645,54 647,56 647,59 C647,62 645,64 642,64 C645,64 647,66 647,69 C647,72 645,74 642,74 C645,74 647,76 647,79 C647,82 645,84 642,84 C645,84 647,86 647,89 C647,92 645,94 642,94 C645,94 647,96 647,99 C647,102 645,104 642,104 C645,104 647,106 647,109 C647,112 645,114 642,114 C645,114 647,116 647,119 C647,122 645,124 642,124 C642,127 639,129 637,129 C634,129 632,127 632,124 C632,127 629,129 627,129 C624,129 622,127 622,124 C622,127 619,129 617,129 C614,129 612,127 612,124 C612,127 609,129 607,129 C604,129 602,127 602,124 C602,127 599,129 597,129 C594,129 592,127 592,124 C592,127 589,129 587,129 C584,129 582,127 582,124 C582,127 579,129 577,129 C574,129 572,127 572,124 C572,127 569,129 567,129 C564,129 562,127 562,124 C562,127 559,129 557,129 C554,129 552,127 552,124 C552,127 549,129 547,129 C544,129 542,127 542,124 C539,124 537,122 537,119 C537,116 539,114 542,114 C539,114 537,112 537,109 C537,106 539,104 542,104 C539,104 537,102 537,99 C537,96 539,94 542,94 C539,94 537,92 537,89 C537,86 539,84 542,84 C539,84 537,82 537,79 C537,76 539,74 542,74 C539,74 537,72 537,69 C537,66 539,64 542,64 C539,64 537,62 537,59 C537,56 539,54 542,54 C539,54 537,52 537,49 C537,46 539,44 542,44 C539,44 537,42 537,39 C537,36 539,34 542,34 " fill="#FFFFFF" filter="url(#f1)" style="stroke: #000000; stroke-width: 2.0;"/><text fill="#000000" font-size="14" font-weight="bold" lengthAdjust="spacingAndGlyphs" textLength="36" x="545" y="48">foo5</text><path d="M672,24 C682,14 715,14 725,14 C735,14 768,14 778,24 L778,124 C768,134 715,134 725,134 C735,134 682,134 672,124 L672,24 " fill="#FFFFFF" filter="url(#f1)" style="stroke: #000000; stroke-width: 2.0;"/><path d="M672,24 C682,34 715,34 725,34 C735,34 768,34 778,24 " fill="#FFFFFF" style="stroke: #000000; stroke-width: 2.0;"/><text fill="#000000" font-size="14" font-weight="bold" lengthAdjust="spacingAndGlyphs" textLength="36" x="675" y="48">foo6</text><rect fill="#FEFECE" filter="url(#f1)" height="48" style="stroke: #A80036; stroke-width: 1.5;" width="73" x="38.75" y="60"/><ellipse cx="53.75" cy="76" fill="#ADD1B2" rx="11" ry="11" style="stroke: #A80036; stroke-width: 1.0;"/><path d="M56.7188,81.6406 Q56.1406,81.9375 55.5,82.0859 Q54.8594,82.2344 54.1563,82.2344 Q51.6563,82.2344 50.3359,80.5859 Q49.0156,78.9375 49.0156,75.8125 Q49.0156,72.6875 50.3359,71.0313 Q51.6563,69.375 54.1563,69.375 Q54.8594,69.375 55.5078,69.5313 Q56.1563,69.6875 56.7188,69.9844 L56.7188,72.7031 Q56.0938,72.125 55.5,71.8516 Q54.9063,71.5781 54.2813,71.5781 Q52.9375,71.5781 52.25,72.6484 Q51.5625,73.7188 51.5625,75.8125 Q51.5625,77.9063 52.25,78.9766 Q52.9375,80.0469 54.2813,80.0469 Q54.9063,80.0469 55.5,79.7734 Q56.0938,79.5 56.7188,78.9219 L56.7188,81.6406 Z "/><text fill="#000000" font-size="12" lengthAdjust="spacingAndGlyphs" textLength="41" x="67.75" y="81.0156">Class1</text><line style="stroke: #A80036; stroke-width: 1.5;" x1="39.75" x2="110.75" y1="92" y2="92"/><line style="stroke: #A80036; stroke-width: 1.5;" x1="39.75" x2="110.75" y1="100" y2="100"/><rect fill="#FEFECE" filter="url(#f1)" height="48" style="stroke: #A80036; stroke-width: 1.5;" width="73" x="168.75" y="60"/><ellipse cx="183.75" cy="76" fill="#ADD1B2" rx="11" ry="11" style="stroke: #A80036; stroke-width: 1.0;"/><path d="M186.7188,81.6406 Q186.1406,81.9375 185.5,82.0859 Q184.8594,82.2344 184.1563,82.2344 Q181.6563,82.2344 180.3359,80.5859 Q179.0156,78.9375 179.0156,75.8125 Q179.0156,72.6875 180.3359,71.0313 Q181.6563,69.375 184.1563,69.375 Q184.8594,69.375 185.5078,69.5313 Q186.1563,69.6875 186.7188,69.9844 L186.7188,72.7031 Q186.0938,72.125 185.5,71.8516 Q184.9063,71.5781 184.2813,71.5781 Q182.9375,71.5781 182.25,72.6484 Q181.5625,73.7188 181.5625,75.8125 Q181.5625,77.9063 182.25,78.9766 Q182.9375,80.0469 184.2813,80.0469 Q184.9063,80.0469 185.5,79.7734 Q186.0938,79.5 186.7188,78.9219 L186.7188,81.6406 Z "/><text fill="#000000" font-size="12" lengthAdjust="spacingAndGlyphs" textLength="41" x="197.75" y="81.0156">Class2</text><line style="stroke: #A80036; stroke-width: 1.5;" x1="169.75" x2="240.75" y1="92" y2="92"/><line style="stroke: #A80036; stroke-width: 1.5;" x1="169.75" x2="240.75" y1="100" y2="100"/><rect fill="#FEFECE" filter="url(#f1)" height="48" style="stroke: #A80036; stroke-width: 1.5;" width="73" x="298.75" y="60"/><ellipse cx="313.75" cy="76" fill="#ADD1B2" rx="11" ry="11" style="stroke: #A80036; stroke-width: 1.0;"/><path d="M316.7188,81.6406 Q316.1406,81.9375 315.5,82.0859 Q314.8594,82.2344 314.1563,82.2344 Q311.6563,82.2344 310.3359,80.5859 Q309.0156,78.9375 309.0156,75.8125 Q309.0156,72.6875 310.3359,71.0313 Q311.6563,69.375 314.1563,69.375 Q314.8594,69.375 315.5078,69.5313 Q316.1563,69.6875 316.7188,69.9844 L316.7188,72.7031 Q316.0938,72.125 315.5,71.8516 Q314.9063,71.5781 314.2813,71.5781 Q312.9375,71.5781 312.25,72.6484 Q311.5625,73.7188 311.5625,75.8125 Q311.5625,77.9063 312.25,78.9766 Q312.9375,80.0469 314.2813,80.0469 Q314.9063,80.0469 315.5,79.7734 Q316.0938,79.5 316.7188,78.9219 L316.7188,81.6406 Z "/><text fill="#000000" font-size="12" lengthAdjust="spacingAndGlyphs" textLength="41" x="327.75" y="81.0156">Class3</text><line style="stroke: #A80036; stroke-width: 1.5;" x1="299.75" x2="370.75" y1="92" y2="92"/><line style="stroke: #A80036; stroke-width: 1.5;" x1="299.75" x2="370.75" y1="100" y2="100"/><rect fill="#FEFECE" filter="url(#f1)" height="48" style="stroke: #A80036; stroke-width: 1.5;" width="73" x="428.75" y="60"/><ellipse cx="443.75" cy="76" fill="#ADD1B2" rx="11" ry="11" style="stroke: #A80036; stroke-width: 1.0;"/><path d="M446.7188,81.6406 Q446.1406,81.9375 445.5,82.0859 Q444.8594,82.2344 444.1563,82.2344 Q441.6563,82.2344 440.3359,80.5859 Q439.0156,78.9375 439.0156,75.8125 Q439.0156,72.6875 440.3359,71.0313 Q441.6563,69.375 444.1563,69.375 Q444.8594,69.375 445.5078,69.5313 Q446.1563,69.6875 446.7188,69.9844 L446.7188,72.7031 Q446.0938,72.125 445.5,71.8516 Q444.9063,71.5781 444.2813,71.5781 Q442.9375,71.5781 442.25,72.6484 Q441.5625,73.7188 441.5625,75.8125 Q441.5625,77.9063 442.25,78.9766 Q442.9375,80.0469 444.2813,80.0469 Q444.9063,80.0469 445.5,79.7734 Q446.0938,79.5 446.7188,78.9219 L446.7188,81.6406 Z "/><text fill="#000000" font-size="12" lengthAdjust="spacingAndGlyphs" textLength="41" x="457.75" y="81.0156">Class4</text><line style="stroke: #A80036; stroke-width: 1.5;" x1="429.75" x2="500.75" y1="92" y2="92"/><line style="stroke: #A80036; stroke-width: 1.5;" x1="429.75" x2="500.75" y1="100" y2="100"/><rect fill="#FEFECE" filter="url(#f1)" height="48" style="stroke: #A80036; stroke-width: 1.5;" width="73" x="558.75" y="60"/><ellipse cx="573.75" cy="76" fill="#ADD1B2" rx="11" ry="11" style="stroke: #A80036; stroke-width: 1.0;"/><path d="M576.7188,81.6406 Q576.1406,81.9375 575.5,82.0859 Q574.8594,82.2344 574.1563,82.2344 Q571.6563,82.2344 570.3359,80.5859 Q569.0156,78.9375 569.0156,75.8125 Q569.0156,72.6875 570.3359,71.0313 Q571.6563,69.375 574.1563,69.375 Q574.8594,69.375 575.5078,69.5313 Q576.1563,69.6875 576.7188,69.9844 L576.7188,72.7031 Q576.0938,72.125 575.5,71.8516 Q574.9063,71.5781 574.2813,71.5781 Q572.9375,71.5781 572.25,72.6484 Q571.5625,73.7188 571.5625,75.8125 Q571.5625,77.9063 572.25,78.9766 Q572.9375,80.0469 574.2813,80.0469 Q574.9063,80.0469 575.5,79.7734 Q576.0938,79.5 576.7188,78.9219 L576.7188,81.6406 Z "/><text fill="#000000" font-size="12" lengthAdjust="spacingAndGlyphs" textLength="41" x="587.75" y="81.0156">Class5</text><line style="stroke: #A80036; stroke-width: 1.5;" x1="559.75" x2="630.75" y1="92" y2="92"/><line style="stroke: #A80036; stroke-width: 1.5;" x1="559.75" x2="630.75" y1="100" y2="100"/><rect fill="#FEFECE" filter="url(#f1)" height="48" style="stroke: #A80036; stroke-width: 1.5;" width="73" x="688.75" y="60"/><ellipse cx="703.75" cy="76" fill="#ADD1B2" rx="11" ry="11" style="stroke: #A80036; stroke-width: 1.0;"/><path d="M706.7188,81.6406 Q706.1406,81.9375 705.5,82.0859 Q704.8594,82.2344 704.1563,82.2344 Q701.6563,82.2344 700.3359,80.5859 Q699.0156,78.9375 699.0156,75.8125 Q699.0156,72.6875 700.3359,71.0313 Q701.6563,69.375 704.1563,69.375 Q704.8594,69.375 705.5078,69.5313 Q706.1563,69.6875 706.7188,69.9844 L706.7188,72.7031 Q706.0938,72.125 705.5,71.8516 Q704.9063,71.5781 704.2813,71.5781 Q702.9375,71.5781 702.25,72.6484 Q701.5625,73.7188 701.5625,75.8125 Q701.5625,77.9063 702.25,78.9766 Q702.9375,80.0469 704.2813,80.0469 Q704.9063,80.0469 705.5,79.7734 Q706.0938,79.5 706.7188,78.9219 L706.7188,81.6406 Z "/><text fill="#000000" font-size="12" lengthAdjust="spacingAndGlyphs" textLength="41" x="717.75" y="81.0156">Class6</text><line style="stroke: #A80036; stroke-width: 1.5;" x1="689.75" x2="760.75" y1="92" y2="92"/><line style="stroke: #A80036; stroke-width: 1.5;" x1="689.75" x2="760.75" y1="100" y2="100"/></g></svg>