<?xml version="1.0" encoding="UTF-8" standalone="yes"?><svg xmlns="http://www.w3.org/2000/svg" xmlns:xlink="http://www.w3.org/1999/xlink" height="255pt" style="width:283px;height:255px;" version="1.1" viewBox="0 0 283 255" width="283pt"><defs><filter height="300%" id="f1" width="300%" x="-1" y="-1"><feGaussianBlur result="blurOut" stdDeviation="2"/><feColorMatrix in="blurOut" result="blurOut2" type="matrix" values="0 0 0 0 0 0 0 0 0 0 0 0 0 0 0 0 0 0 .4 0"/><feOffset dx="4" dy="4" in="blurOut2" result="blurOut3"/><feBlend in="SourceGraphic" in2="blurOut3" mode="normal"/></filter></defs><g><rect fill="#98FB98" filter="url(#f1)" height="48" style="stroke: #00FF7F; stroke-width: 1.5;" width="81" x="31" y="30"/><ellipse cx="46" cy="46" fill="#9ACD32" rx="11" ry="11" style="stroke: #00FF7F; stroke-width: 1.0;"/><path d="M48.9688,51.6406 Q48.3906,51.9375 47.75,52.0859 Q47.1094,52.2344 46.4063,52.2344 Q43.9063,52.2344 42.5859,50.5859 Q41.2656,48.9375 41.2656,45.8125 Q41.2656,42.6875 42.5859,41.0313 Q43.9063,39.375 46.4063,39.375 Q47.1094,39.375 47.7578,39.5313 Q48.4063,39.6875 48.9688,39.9844 L48.9688,42.7031 Q48.3438,42.125 47.75,41.8516 Q47.1563,41.5781 46.5313,41.5781 Q45.1875,41.5781 44.5,42.6484 Q43.8125,43.7188 43.8125,45.8125 Q43.8125,47.9063 44.5,48.9766 Q45.1875,50.0469 46.5313,50.0469 Q47.1563,50.0469 47.75,49.7734 Q48.3438,49.5 48.9688,48.9219 L48.9688,51.6406 Z "/><text fill="#000000" font-size="12" lengthAdjust="spacingAndGlyphs" textLength="49" x="60" y="51.0156">Class01</text><line style="stroke: #00FF7F; stroke-width: 1.5;" x1="32" x2="111" y1="62" y2="62"/><line style="stroke: #00FF7F; stroke-width: 1.5;" x1="32" x2="111" y1="70" y2="70"/><rect fill="#98FB98" filter="url(#f1)" height="48" style="stroke: #00FF7F; stroke-width: 1.5;" width="81" x="31" y="198"/><ellipse cx="46" cy="214" fill="#9ACD32" rx="11" ry="11" style="stroke: #00FF7F; stroke-width: 1.0;"/><path d="M48.9688,219.6406 Q48.3906,219.9375 47.75,220.0859 Q47.1094,220.2344 46.4063,220.2344 Q43.9063,220.2344 42.5859,218.5859 Q41.2656,216.9375 41.2656,213.8125 Q41.2656,210.6875 42.5859,209.0313 Q43.9063,207.375 46.4063,207.375 Q47.1094,207.375 47.7578,207.5313 Q48.4063,207.6875 48.9688,207.9844 L48.9688,210.7031 Q48.3438,210.125 47.75,209.8516 Q47.1563,209.5781 46.5313,209.5781 Q45.1875,209.5781 44.5,210.6484 Q43.8125,211.7188 43.8125,213.8125 Q43.8125,215.9063 44.5,216.9766 Q45.1875,218.0469 46.5313,218.0469 Q47.1563,218.0469 47.75,217.7734 Q48.3438,217.5 48.9688,216.9219 L48.9688,219.6406 Z "/><text fill="#000000" font-size="12" lengthAdjust="spacingAndGlyphs" textLength="49" x="60" y="219.0156">Class02</text><line style="stroke: #00FF7F; stroke-width: 1.5;" x1="32" x2="111" y1="230" y2="230"/><line style="stroke: #00FF7F; stroke-width: 1.5;" x1="32" x2="111" y1="238" y2="238"/><rect fill="#98FB98" filter="url(#f1)" height="48" style="stroke: #00FF7F; stroke-width: 1.5;" width="81" x="171.75" y="29"/><ellipse cx="186.75" cy="45" fill="#9ACD32" rx="11" ry="11" style="stroke: #00FF7F; stroke-width: 1.0;"/><path d="M189.7188,50.6406 Q189.1406,50.9375 188.5,51.0859 Q187.8594,51.2344 187.1563,51.2344 Q184.6563,51.2344 183.3359,49.5859 Q182.0156,47.9375 182.0156,44.8125 Q182.0156,41.6875 183.3359,40.0313 Q184.6563,38.375 187.1563,38.375 Q187.8594,38.375 188.5078,38.5313 Q189.1563,38.6875 189.7188,38.9844 L189.7188,41.7031 Q189.0938,41.125 188.5,40.8516 Q187.9063,40.5781 187.2813,40.5781 Q185.9375,40.5781 185.25,41.6484 Q184.5625,42.7188 184.5625,44.8125 Q184.5625,46.9063 185.25,47.9766 Q185.9375,49.0469 187.2813,49.0469 Q187.9063,49.0469 188.5,48.7734 Q189.0938,48.5 189.7188,47.9219 L189.7188,50.6406 Z "/><text fill="#000000" font-size="12" lengthAdjust="spacingAndGlyphs" textLength="49" x="200.75" y="50.0156">Class03</text><line style="stroke: #00FF7F; stroke-width: 1.5;" x1="172.75" x2="251.75" y1="61" y2="61"/><line style="stroke: #00FF7F; stroke-width: 1.5;" x1="172.75" x2="251.75" y1="69" y2="69"/><rect fill="#98FB98" filter="url(#f1)" height="48" style="stroke: #00FF7F; stroke-width: 1.5;" width="81" x="171.75" y="197"/><ellipse cx="186.75" cy="213" fill="#9ACD32" rx="11" ry="11" style="stroke: #00FF7F; stroke-width: 1.0;"/><path d="M189.7188,218.6406 Q189.1406,218.9375 188.5,219.0859 Q187.8594,219.2344 187.1563,219.2344 Q184.6563,219.2344 183.3359,217.5859 Q182.0156,215.9375 182.0156,212.8125 Q182.0156,209.6875 183.3359,208.0313 Q184.6563,206.375 187.1563,206.375 Q187.8594,206.375 188.5078,206.5313 Q189.1563,206.6875 189.7188,206.9844 L189.7188,209.7031 Q189.0938,209.125 188.5,208.8516 Q187.9063,208.5781 187.2813,208.5781 Q185.9375,208.5781 185.25,209.6484 Q184.5625,210.7188 184.5625,212.8125 Q184.5625,214.9063 185.25,215.9766 Q185.9375,217.0469 187.2813,217.0469 Q187.9063,217.0469 188.5,216.7734 Q189.0938,216.5 189.7188,215.9219 L189.7188,218.6406 Z "/><text fill="#000000" font-size="12" lengthAdjust="spacingAndGlyphs" textLength="49" x="200.75" y="218.0156">Class04</text><line style="stroke: #00FF7F; stroke-width: 1.5;" x1="172.75" x2="251.75" y1="229" y2="229"/><line style="stroke: #00FF7F; stroke-width: 1.5;" x1="172.75" x2="251.75" y1="237" y2="237"/><path d="M72,91.444 C72,123.856 72,170.2662 72,197.8475 " fill="none" style="stroke: #2E8B57; stroke-width: 1.0;"/><polygon fill="#2E8B57" points="72,78.082,68,84.082,72,90.082,76,84.082,72,78.082" style="stroke: #2E8B57; stroke-width: 1.0;"/><text fill="#000000" font-size="13" lengthAdjust="spacingAndGlyphs" textLength="54" x="73" y="142">contains</text><text fill="#000000" font-size="13" lengthAdjust="spacingAndGlyphs" textLength="8" x="62.4021" y="98.8925">1</text><text fill="#000000" font-size="13" lengthAdjust="spacingAndGlyphs" textLength="36" x="58.479" y="187.7913">many</text><path d="M212,90.444 C212,122.856 212,169.2662 212,196.8475 " fill="none" style="stroke: #2E8B57; stroke-width: 1.0;"/><polygon fill="none" points="212,77.082,208,83.082,212,89.082,216,83.082,212,77.082" style="stroke: #2E8B57; stroke-width: 1.0;"/><text fill="#000000" font-size="13" lengthAdjust="spacingAndGlyphs" textLength="69" x="213" y="142">agregation</text></g></svg>