<?xml version="1.0" encoding="UTF-8" standalone="yes"?><svg xmlns="http://www.w3.org/2000/svg" xmlns:xlink="http://www.w3.org/1999/xlink" height="281pt" style="width:344px;height:281px;" version="1.1" viewBox="0 0 344 281" width="344pt"><defs><filter height="300%" id="f1" width="300%" x="-1" y="-1"><feGaussianBlur result="blurOut" stdDeviation="2"/><feColorMatrix in="blurOut" result="blurOut2" type="matrix" values="0 0 0 0 0 0 0 0 0 0 0 0 0 0 0 0 0 0 .4 0"/><feOffset dx="4" dy="4" in="blurOut2" result="blurOut3"/><feBlend in="SourceGraphic" in2="blurOut3" mode="normal"/></filter></defs><g><rect fill="#FEFECE" filter="url(#f1)" height="48" style="stroke: #A80036; stroke-width: 1.5;" width="52" x="140.25" y="116"/><ellipse cx="155.25" cy="132" fill="#ADD1B2" rx="11" ry="11" style="stroke: #A80036; stroke-width: 1.0;"/><path d="M158.2188,137.6406 Q157.6406,137.9375 157,138.0859 Q156.3594,138.2344 155.6563,138.2344 Q153.1563,138.2344 151.8359,136.5859 Q150.5156,134.9375 150.5156,131.8125 Q150.5156,128.6875 151.8359,127.0313 Q153.1563,125.375 155.6563,125.375 Q156.3594,125.375 157.0078,125.5313 Q157.6563,125.6875 158.2188,125.9844 L158.2188,128.7031 Q157.5938,128.125 157,127.8516 Q156.4063,127.5781 155.7813,127.5781 Q154.4375,127.5781 153.75,128.6484 Q153.0625,129.7188 153.0625,131.8125 Q153.0625,133.9063 153.75,134.9766 Q154.4375,136.0469 155.7813,136.0469 Q156.4063,136.0469 157,135.7734 Q157.5938,135.5 158.2188,134.9219 L158.2188,137.6406 Z "/><text fill="#000000" font-size="12" lengthAdjust="spacingAndGlyphs" textLength="20" x="169.25" y="137.0156">foo</text><line style="stroke: #A80036; stroke-width: 1.5;" x1="141.25" x2="191.25" y1="148" y2="148"/><line style="stroke: #A80036; stroke-width: 1.5;" x1="141.25" x2="191.25" y1="156" y2="156"/><rect fill="#FEFECE" filter="url(#f1)" height="48" style="stroke: #A80036; stroke-width: 1.5;" width="99" x="6" y="116"/><ellipse cx="21" cy="132" fill="#ADD1B2" rx="11" ry="11" style="stroke: #A80036; stroke-width: 1.0;"/><path d="M23.9688,137.6406 Q23.3906,137.9375 22.75,138.0859 Q22.1094,138.2344 21.4063,138.2344 Q18.9063,138.2344 17.5859,136.5859 Q16.2656,134.9375 16.2656,131.8125 Q16.2656,128.6875 17.5859,127.0313 Q18.9063,125.375 21.4063,125.375 Q22.1094,125.375 22.7578,125.5313 Q23.4063,125.6875 23.9688,125.9844 L23.9688,128.7031 Q23.3438,128.125 22.75,127.8516 Q22.1563,127.5781 21.5313,127.5781 Q20.1875,127.5781 19.5,128.6484 Q18.8125,129.7188 18.8125,131.8125 Q18.8125,133.9063 19.5,134.9766 Q20.1875,136.0469 21.5313,136.0469 Q22.1563,136.0469 22.75,135.7734 Q23.3438,135.5 23.9688,134.9219 L23.9688,137.6406 Z "/><text fill="#000000" font-size="12" lengthAdjust="spacingAndGlyphs" textLength="67" x="35" y="137.0156">dummyLeft</text><line style="stroke: #A80036; stroke-width: 1.5;" x1="7" x2="104" y1="148" y2="148"/><line style="stroke: #A80036; stroke-width: 1.5;" x1="7" x2="104" y1="156" y2="156"/><rect fill="#FEFECE" filter="url(#f1)" height="48" style="stroke: #A80036; stroke-width: 1.5;" width="108" x="227.25" y="116"/><ellipse cx="242.25" cy="132" fill="#ADD1B2" rx="11" ry="11" style="stroke: #A80036; stroke-width: 1.0;"/><path d="M245.2188,137.6406 Q244.6406,137.9375 244,138.0859 Q243.3594,138.2344 242.6563,138.2344 Q240.1563,138.2344 238.8359,136.5859 Q237.5156,134.9375 237.5156,131.8125 Q237.5156,128.6875 238.8359,127.0313 Q240.1563,125.375 242.6563,125.375 Q243.3594,125.375 244.0078,125.5313 Q244.6563,125.6875 245.2188,125.9844 L245.2188,128.7031 Q244.5938,128.125 244,127.8516 Q243.4063,127.5781 242.7813,127.5781 Q241.4375,127.5781 240.75,128.6484 Q240.0625,129.7188 240.0625,131.8125 Q240.0625,133.9063 240.75,134.9766 Q241.4375,136.0469 242.7813,136.0469 Q243.4063,136.0469 244,135.7734 Q244.5938,135.5 245.2188,134.9219 L245.2188,137.6406 Z "/><text fill="#000000" font-size="12" lengthAdjust="spacingAndGlyphs" textLength="76" x="256.25" y="137.0156">dummyRight</text><line style="stroke: #A80036; stroke-width: 1.5;" x1="228.25" x2="334.25" y1="148" y2="148"/><line style="stroke: #A80036; stroke-width: 1.5;" x1="228.25" x2="334.25" y1="156" y2="156"/><rect fill="#FEFECE" filter="url(#f1)" height="48" style="stroke: #A80036; stroke-width: 1.5;" width="93" x="120" y="8"/><ellipse cx="135" cy="24" fill="#ADD1B2" rx="11" ry="11" style="stroke: #A80036; stroke-width: 1.0;"/><path d="M137.9688,29.6406 Q137.3906,29.9375 136.75,30.0859 Q136.1094,30.2344 135.4063,30.2344 Q132.9063,30.2344 131.5859,28.5859 Q130.2656,26.9375 130.2656,23.8125 Q130.2656,20.6875 131.5859,19.0313 Q132.9063,17.375 135.4063,17.375 Q136.1094,17.375 136.7578,17.5313 Q137.4063,17.6875 137.9688,17.9844 L137.9688,20.7031 Q137.3438,20.125 136.75,19.8516 Q136.1563,19.5781 135.5313,19.5781 Q134.1875,19.5781 133.5,20.6484 Q132.8125,21.7188 132.8125,23.8125 Q132.8125,25.9063 133.5,26.9766 Q134.1875,28.0469 135.5313,28.0469 Q136.1563,28.0469 136.75,27.7734 Q137.3438,27.5 137.9688,26.9219 L137.9688,29.6406 Z "/><text fill="#000000" font-size="12" lengthAdjust="spacingAndGlyphs" textLength="61" x="149" y="29.0156">dummyUp</text><line style="stroke: #A80036; stroke-width: 1.5;" x1="121" x2="212" y1="40" y2="40"/><line style="stroke: #A80036; stroke-width: 1.5;" x1="121" x2="212" y1="48" y2="48"/><rect fill="#FEFECE" filter="url(#f1)" height="48" style="stroke: #A80036; stroke-width: 1.5;" width="110" x="111.25" y="224"/><ellipse cx="126.25" cy="240" fill="#ADD1B2" rx="11" ry="11" style="stroke: #A80036; stroke-width: 1.0;"/><path d="M129.2188,245.6406 Q128.6406,245.9375 128,246.0859 Q127.3594,246.2344 126.6563,246.2344 Q124.1563,246.2344 122.8359,244.5859 Q121.5156,242.9375 121.5156,239.8125 Q121.5156,236.6875 122.8359,235.0313 Q124.1563,233.375 126.6563,233.375 Q127.3594,233.375 128.0078,233.5313 Q128.6563,233.6875 129.2188,233.9844 L129.2188,236.7031 Q128.5938,236.125 128,235.8516 Q127.4063,235.5781 126.7813,235.5781 Q125.4375,235.5781 124.75,236.6484 Q124.0625,237.7188 124.0625,239.8125 Q124.0625,241.9063 124.75,242.9766 Q125.4375,244.0469 126.7813,244.0469 Q127.4063,244.0469 128,243.7734 Q128.5938,243.5 129.2188,242.9219 L129.2188,245.6406 Z "/><text fill="#000000" font-size="12" lengthAdjust="spacingAndGlyphs" textLength="78" x="140.25" y="245.0156">dummyDown</text><line style="stroke: #A80036; stroke-width: 1.5;" x1="112.25" x2="220.25" y1="256" y2="256"/><line style="stroke: #A80036; stroke-width: 1.5;" x1="112.25" x2="220.25" y1="264" y2="264"/><path d="M109.892,140 C119.859,140 129.827,140 139.794,140 " fill="none" style="stroke: #A80036; stroke-width: 1.0;"/><polygon fill="#A80036" points="104.6797,140,113.6797,144,109.6797,140,113.6797,136,104.6797,140" style="stroke: #A80036; stroke-width: 1.0;"/><path d="M192.305,140 C202.167,140 212.029,140 221.892,140 " fill="none" style="stroke: #A80036; stroke-width: 1.0;"/><polygon fill="#A80036" points="227.049,140,218.049,136,222.049,140,218.049,144,227.049,140" style="stroke: #A80036; stroke-width: 1.0;"/><path d="M166.25,61.131 C166.25,78.154 166.25,99.604 166.25,115.678 " fill="none" style="stroke: #A80036; stroke-width: 1.0;"/><polygon fill="#A80036" points="166.25,56,162.25,65,166.25,61,170.25,65,166.25,56" style="stroke: #A80036; stroke-width: 1.0;"/><path d="M166.25,164 C166.25,180.003 166.25,201.4461 166.25,218.528 " fill="none" style="stroke: #A80036; stroke-width: 1.0;"/><polygon fill="#A80036" points="166.25,223.6784,170.25,214.6784,166.25,218.6784,162.25,214.6784,166.25,223.6784" style="stroke: #A80036; stroke-width: 1.0;"/></g></svg>