<?xml version="1.0" encoding="UTF-8" standalone="yes"?><svg xmlns="http://www.w3.org/2000/svg" xmlns:xlink="http://www.w3.org/1999/xlink" height="70pt" style="width:247px;height:70px;" version="1.1" viewBox="0 0 247 70" width="247pt"><defs><filter height="300%" id="f1" width="300%" x="-1" y="-1"><feGaussianBlur result="blurOut" stdDeviation="2"/><feColorMatrix in="blurOut" result="blurOut2" type="matrix" values="0 0 0 0 0 0 0 0 0 0 0 0 0 0 0 0 0 0 .4 0"/><feOffset dx="4" dy="4" in="blurOut2" result="blurOut3"/><feBlend in="SourceGraphic" in2="blurOut3" mode="normal"/></filter></defs><g><rect fill="#FEFECE" filter="url(#f1)" height="53.9375" style="stroke: #A80036; stroke-width: 1.5;" width="135" x="6" y="8"/><ellipse cx="21" cy="26.9688" fill="#FF7700" rx="11" ry="11" style="stroke: #A80036; stroke-width: 1.0;"/><path d="M20.4844,27.5313 Q18.625,26.8281 17.9766,26.0547 Q17.3281,25.2813 17.3281,23.9688 Q17.3281,22.2813 18.4063,21.3125 Q19.4844,20.3438 21.3594,20.3438 Q22.2188,20.3438 23.0703,20.5391 Q23.9219,20.7344 24.7656,21.125 L24.7656,23.5156 Q23.9844,22.9531 23.1641,22.6641 Q22.3438,22.375 21.5469,22.375 Q20.6719,22.375 20.1953,22.7344 Q19.7188,23.0938 19.7188,23.75 Q19.7188,24.2656 20.0625,24.6016 Q20.4063,24.9375 21.5,25.3438 L22.5625,25.75 Q24.0469,26.2969 24.7578,27.2031 Q25.4688,28.1094 25.4688,29.4844 Q25.4688,31.3594 24.3594,32.2813 Q23.25,33.2031 21,33.2031 Q20.0781,33.2031 19.1563,32.9844 Q18.2344,32.7656 17.375,32.3438 L17.375,29.8125 Q18.3438,30.5 19.2656,30.8438 Q20.1875,31.1875 21.0781,31.1875 Q21.9844,31.1875 22.4844,30.7734 Q22.9844,30.3594 22.9844,29.625 Q22.9844,29.0625 22.6484,28.6484 Q22.3125,28.2344 21.6875,27.9844 L20.4844,27.5313 Z "/><text fill="#000000" font-size="12" font-style="italic" lengthAdjust="spacingAndGlyphs" textLength="107" x="33" y="25">&lt;&lt; Singleton &gt;&gt;</text><text fill="#000000" font-size="12" lengthAdjust="spacingAndGlyphs" textLength="45" x="64" y="38.9688">System</text><line style="stroke: #A80036; stroke-width: 1.5;" x1="7" x2="140" y1="45.9375" y2="45.9375"/><line style="stroke: #A80036; stroke-width: 1.5;" x1="7" x2="140" y1="53.9375" y2="53.9375"/><rect fill="#FEFECE" filter="url(#f1)" height="48" style="stroke: #A80036; stroke-width: 1.5;" width="62" x="176.75" y="11"/><ellipse cx="191.75" cy="27" fill="#DA70D6" rx="11" ry="11" style="stroke: #A80036; stroke-width: 1.0;"/><path d="M191.3438,22.8125 L191.3438,30.7969 L192,30.7969 Q193.4375,30.7969 194.0547,29.8828 Q194.6719,28.9688 194.6719,26.7969 Q194.6719,24.625 194.0547,23.7188 Q193.4375,22.8125 192,22.8125 L191.3438,22.8125 Z M188.8906,20.6094 L191.5156,20.6094 Q194.5469,20.6094 195.8828,22.0547 Q197.2188,23.5 197.2188,26.7969 Q197.2188,30.0938 195.8828,31.5469 Q194.5469,33 191.5156,33 L188.8906,33 L188.8906,20.6094 Z "/><text fill="#000000" font-size="12" lengthAdjust="spacingAndGlyphs" textLength="30" x="205.75" y="32.0156">Date</text><line style="stroke: #A80036; stroke-width: 1.5;" x1="177.75" x2="237.75" y1="43" y2="43"/><line style="stroke: #A80036; stroke-width: 1.5;" x1="177.75" x2="237.75" y1="51" y2="51"/></g></svg>