<?xml version="1.0" encoding="UTF-8" standalone="yes"?><svg xmlns="http://www.w3.org/2000/svg" xmlns:xlink="http://www.w3.org/1999/xlink" height="191pt" style="width:340px;height:191px;" version="1.1" viewBox="0 0 340 191" width="340pt"><defs><filter height="300%" id="f1" width="300%" x="-1" y="-1"><feGaussianBlur result="blurOut" stdDeviation="2"/><feColorMatrix in="blurOut" result="blurOut2" type="matrix" values="0 0 0 0 0 0 0 0 0 0 0 0 0 0 0 0 0 0 .4 0"/><feOffset dx="4" dy="4" in="blurOut2" result="blurOut3"/><feBlend in="SourceGraphic" in2="blurOut3" mode="normal"/></filter></defs><g><rect fill="#FEFECE" filter="url(#f1)" height="174.5" style="stroke: #A80036; stroke-width: 1.5;" width="185" x="6" y="8"/><ellipse cx="78.75" cy="24" fill="#ADD1B2" rx="11" ry="11" style="stroke: #A80036; stroke-width: 1.0;"/><path d="M81.7188,29.6406 Q81.1406,29.9375 80.5,30.0859 Q79.8594,30.2344 79.1563,30.2344 Q76.6563,30.2344 75.3359,28.5859 Q74.0156,26.9375 74.0156,23.8125 Q74.0156,20.6875 75.3359,19.0313 Q76.6563,17.375 79.1563,17.375 Q79.8594,17.375 80.5078,17.5313 Q81.1563,17.6875 81.7188,17.9844 L81.7188,20.7031 Q81.0938,20.125 80.5,19.8516 Q79.9063,19.5781 79.2813,19.5781 Q77.9375,19.5781 77.25,20.6484 Q76.5625,21.7188 76.5625,23.8125 Q76.5625,25.9063 77.25,26.9766 Q77.9375,28.0469 79.2813,28.0469 Q79.9063,28.0469 80.5,27.7734 Q81.0938,27.5 81.7188,26.9219 L81.7188,29.6406 Z "/><text fill="#000000" font-size="12" lengthAdjust="spacingAndGlyphs" textLength="31" x="99.25" y="29.0156">Foo1</text><line style="stroke: #A80036; stroke-width: 1.5;" x1="7" x2="190" y1="40" y2="40"/><text fill="#000000" font-size="11" lengthAdjust="spacingAndGlyphs" textLength="70" x="12" y="55">You can use</text><text fill="#000000" font-size="11" lengthAdjust="spacingAndGlyphs" textLength="73" x="12" y="67.8125">several lines</text><line style="stroke: #A80036; stroke-width: 1.0; stroke-dasharray: 1.0,2.0;" x1="7" x2="190" y1="73.625" y2="73.625"/><text fill="#000000" font-size="11" lengthAdjust="spacingAndGlyphs" textLength="69" x="12" y="88.625">as you want</text><text fill="#000000" font-size="11" lengthAdjust="spacingAndGlyphs" textLength="58" x="12" y="101.4375">and group</text><line style="stroke: #A80036; stroke-width: 1.0;" x1="7" x2="190" y1="107.25" y2="107.25"/><line style="stroke: #A80036; stroke-width: 1.0;" x1="7" x2="190" y1="109.25" y2="109.25"/><text fill="#000000" font-size="11" lengthAdjust="spacingAndGlyphs" textLength="91" x="12" y="122.25">things together.</text><line style="stroke: #A80036; stroke-width: 1.5;" x1="7" x2="190" y1="128.0625" y2="128.0625"/><text fill="#000000" font-size="11" lengthAdjust="spacingAndGlyphs" textLength="173" x="12" y="143.0625">You can have as many groups</text><text fill="#000000" font-size="11" lengthAdjust="spacingAndGlyphs" textLength="69" x="12" y="155.875">as you want</text><line style="stroke: #A80036; stroke-width: 1.0;" x1="7" x2="190" y1="161.6875" y2="161.6875"/><text fill="#000000" font-size="11" lengthAdjust="spacingAndGlyphs" textLength="70" x="12" y="176.6875">End of class</text><rect fill="#FEFECE" filter="url(#f1)" height="171.3125" style="stroke: #A80036; stroke-width: 1.5;" width="106" x="225.75" y="9.5"/><ellipse cx="261" cy="25.5" fill="#ADD1B2" rx="11" ry="11" style="stroke: #A80036; stroke-width: 1.0;"/><path d="M263.9688,31.1406 Q263.3906,31.4375 262.75,31.5859 Q262.1094,31.7344 261.4063,31.7344 Q258.9063,31.7344 257.5859,30.0859 Q256.2656,28.4375 256.2656,25.3125 Q256.2656,22.1875 257.5859,20.5313 Q258.9063,18.875 261.4063,18.875 Q262.1094,18.875 262.7578,19.0313 Q263.4063,19.1875 263.9688,19.4844 L263.9688,22.2031 Q263.3438,21.625 262.75,21.3516 Q262.1563,21.0781 261.5313,21.0781 Q260.1875,21.0781 259.5,22.1484 Q258.8125,23.2188 258.8125,25.3125 Q258.8125,27.4063 259.5,28.4766 Q260.1875,29.5469 261.5313,29.5469 Q262.1563,29.5469 262.75,29.2734 Q263.3438,29 263.9688,28.4219 L263.9688,31.1406 Z "/><text fill="#000000" font-size="12" lengthAdjust="spacingAndGlyphs" textLength="29" x="279.5" y="30.5156">User</text><line style="stroke: #A80036; stroke-width: 1.5;" x1="226.75" x2="330.75" y1="41.5" y2="41.5"/><ellipse cx="236.75" cy="70.2188" fill="#84BE84" rx="3" ry="3" style="stroke: #038048; stroke-width: 1.0;"/><text fill="#000000" font-size="11" lengthAdjust="spacingAndGlyphs" textLength="59" x="245.75" y="73.3125">getName()</text><ellipse cx="236.75" cy="83.0313" fill="#84BE84" rx="3" ry="3" style="stroke: #038048; stroke-width: 1.0;"/><text fill="#000000" font-size="11" lengthAdjust="spacingAndGlyphs" textLength="73" x="245.75" y="86.125">getAddress()</text><line style="stroke: #A80036; stroke-width: 1.0; stroke-dasharray: 1.0,2.0;" x1="226.75" x2="237.25" y1="55.9063" y2="55.9063"/><text fill="#000000" font-size="11" lengthAdjust="spacingAndGlyphs" textLength="79" x="239.25" y="60">Simple Getter</text><line style="stroke: #A80036; stroke-width: 1.0; stroke-dasharray: 1.0,2.0;" x1="320.25" x2="330.75" y1="55.9063" y2="55.9063"/><ellipse cx="236.75" cy="112.6563" fill="#84BE84" rx="3" ry="3" style="stroke: #038048; stroke-width: 1.0;"/><text fill="#000000" font-size="11" lengthAdjust="spacingAndGlyphs" textLength="59" x="245.75" y="115.75">setName()</text><line style="stroke: #A80036; stroke-width: 1.0; stroke-dasharray: 1.0,2.0;" x1="226.75" x2="241.25" y1="98.3438" y2="98.3438"/><text fill="#000000" font-size="11" lengthAdjust="spacingAndGlyphs" textLength="71" x="243.25" y="102.4375">Some setter</text><line style="stroke: #A80036; stroke-width: 1.0; stroke-dasharray: 1.0,2.0;" x1="316.25" x2="330.75" y1="98.3438" y2="98.3438"/><text fill="#000000" font-size="11" lengthAdjust="spacingAndGlyphs" textLength="39" x="231.75" y="145.375">int age</text><line style="stroke: #A80036; stroke-width: 1.5;" x1="226.75" x2="242.75" y1="127.9688" y2="127.9688"/><text fill="#000000" font-size="11" lengthAdjust="spacingAndGlyphs" textLength="68" x="244.75" y="132.0625">private data</text><line style="stroke: #A80036; stroke-width: 1.5;" x1="314.75" x2="330.75" y1="127.9688" y2="127.9688"/><text fill="#000000" font-size="11" lengthAdjust="spacingAndGlyphs" textLength="94" x="231.75" y="175">String password</text><line style="stroke: #A80036; stroke-width: 1.0;" x1="226.75" x2="255.75" y1="157.5938" y2="157.5938"/><text fill="#000000" font-size="11" lengthAdjust="spacingAndGlyphs" textLength="42" x="257.75" y="161.6875">crypted</text><line style="stroke: #A80036; stroke-width: 1.0;" x1="301.75" x2="330.75" y1="157.5938" y2="157.5938"/></g></svg>