<?xml version="1.0" encoding="UTF-8" standalone="yes"?><svg xmlns="http://www.w3.org/2000/svg" xmlns:xlink="http://www.w3.org/1999/xlink" height="78pt" style="width:307px;height:78px;" version="1.1" viewBox="0 0 307 78" width="307pt"><defs><filter height="300%" id="f1" width="300%" x="-1" y="-1"><feGaussianBlur result="blurOut" stdDeviation="2"/><feColorMatrix in="blurOut" result="blurOut2" type="matrix" values="0 0 0 0 0 0 0 0 0 0 0 0 0 0 0 0 0 0 .4 0"/><feOffset dx="4" dy="4" in="blurOut2" result="blurOut3"/><feBlend in="SourceGraphic" in2="blurOut3" mode="normal"/></filter></defs><g><rect fill="#FEFECE" filter="url(#f1)" height="60.8125" style="stroke: #A80036; stroke-width: 1.5;" width="174" x="6" y="8.5"/><ellipse cx="21" cy="24.5" fill="#ADD1B2" rx="11" ry="11" style="stroke: #A80036; stroke-width: 1.0;"/><path d="M23.9688,30.1406 Q23.3906,30.4375 22.75,30.5859 Q22.1094,30.7344 21.4063,30.7344 Q18.9063,30.7344 17.5859,29.0859 Q16.2656,27.4375 16.2656,24.3125 Q16.2656,21.1875 17.5859,19.5313 Q18.9063,17.875 21.4063,17.875 Q22.1094,17.875 22.7578,18.0313 Q23.4063,18.1875 23.9688,18.4844 L23.9688,21.2031 Q23.3438,20.625 22.75,20.3516 Q22.1563,20.0781 21.5313,20.0781 Q20.1875,20.0781 19.5,21.1484 Q18.8125,22.2188 18.8125,24.3125 Q18.8125,26.4063 19.5,27.4766 Q20.1875,28.5469 21.5313,28.5469 Q22.1563,28.5469 22.75,28.2734 Q23.3438,28 23.9688,27.4219 L23.9688,30.1406 Z "/><text fill="#000000" font-size="12" lengthAdjust="spacingAndGlyphs" textLength="23" x="35" y="29.5156">Foo</text><rect fill="#FFFFFF" height="15.9688" style="stroke: #000000; stroke-width: 1.0; stroke-dasharray: 2.0,2.0;" width="117" x="66" y="5.5"/><text fill="#000000" font-size="12" font-style="italic" lengthAdjust="spacingAndGlyphs" textLength="115" x="67" y="18.5">? extends Element</text><line style="stroke: #A80036; stroke-width: 1.5;" x1="7" x2="179" y1="40.5" y2="40.5"/><line style="stroke: #A80036; stroke-width: 1.5;" x1="7" x2="179" y1="48.5" y2="48.5"/><text fill="#000000" font-size="11" lengthAdjust="spacingAndGlyphs" textLength="48" x="12" y="63.5">int size()</text><rect fill="#FEFECE" filter="url(#f1)" height="48" style="stroke: #A80036; stroke-width: 1.5;" width="83" x="215.75" y="15"/><ellipse cx="230.75" cy="31" fill="#ADD1B2" rx="11" ry="11" style="stroke: #A80036; stroke-width: 1.0;"/><path d="M233.7188,36.6406 Q233.1406,36.9375 232.5,37.0859 Q231.8594,37.2344 231.1563,37.2344 Q228.6563,37.2344 227.3359,35.5859 Q226.0156,33.9375 226.0156,30.8125 Q226.0156,27.6875 227.3359,26.0313 Q228.6563,24.375 231.1563,24.375 Q231.8594,24.375 232.5078,24.5313 Q233.1563,24.6875 233.7188,24.9844 L233.7188,27.7031 Q233.0938,27.125 232.5,26.8516 Q231.9063,26.5781 231.2813,26.5781 Q229.9375,26.5781 229.25,27.6484 Q228.5625,28.7188 228.5625,30.8125 Q228.5625,32.9063 229.25,33.9766 Q229.9375,35.0469 231.2813,35.0469 Q231.9063,35.0469 232.5,34.7734 Q233.0938,34.5 233.7188,33.9219 L233.7188,36.6406 Z "/><text fill="#000000" font-size="12" lengthAdjust="spacingAndGlyphs" textLength="51" x="244.75" y="36.0156">Element</text><line style="stroke: #A80036; stroke-width: 1.5;" x1="216.75" x2="297.75" y1="47" y2="47"/><line style="stroke: #A80036; stroke-width: 1.5;" x1="216.75" x2="297.75" y1="55" y2="55"/><path d="M193.136,39 C200.611,39 208.085,39 215.56,39 " fill="none" style="stroke: #A80036; stroke-width: 1.0;"/><polygon fill="#A80036" points="180.125,39,186.125,43,192.125,39,186.125,35,180.125,39" style="stroke: #A80036; stroke-width: 1.0;"/></g></svg>