<?xml version="1.0" encoding="UTF-8" standalone="yes"?><svg xmlns="http://www.w3.org/2000/svg" xmlns:xlink="http://www.w3.org/1999/xlink" height="347pt" style="width:363px;height:347px;" version="1.1" viewBox="0 0 363 347" width="363pt"><defs><filter height="300%" id="f1" width="300%" x="-1" y="-1"><feGaussianBlur result="blurOut" stdDeviation="2"/><feColorMatrix in="blurOut" result="blurOut2" type="matrix" values="0 0 0 0 0 0 0 0 0 0 0 0 0 0 0 0 0 0 .4 0"/><feOffset dx="4" dy="4" in="blurOut2" result="blurOut3"/><feBlend in="SourceGraphic" in2="blurOut3" mode="normal"/></filter></defs><g><line style="stroke: #A80036; stroke-width: 1.0; stroke-dasharray: 5.0,5.0;" x1="138" x2="138" y1="34.1406" y2="310.4063"/><line style="stroke: #A80036; stroke-width: 1.0; stroke-dasharray: 5.0,5.0;" x1="193" x2="193" y1="34.1406" y2="310.4063"/><rect fill="#FEFECE" filter="url(#f1)" height="29.1406" style="stroke: #A80036; stroke-width: 1.5;" width="44" x="114" y="0"/><text fill="#000000" font-size="13" lengthAdjust="spacingAndGlyphs" textLength="30" x="121" y="20">Alice</text><rect fill="#FEFECE" filter="url(#f1)" height="29.1406" style="stroke: #A80036; stroke-width: 1.5;" width="44" x="114" y="308.8594"/><text fill="#000000" font-size="13" lengthAdjust="spacingAndGlyphs" textLength="30" x="121" y="328.8594">Alice</text><rect fill="#FEFECE" filter="url(#f1)" height="29.1406" style="stroke: #A80036; stroke-width: 1.5;" width="39" x="172" y="0"/><text fill="#000000" font-size="13" lengthAdjust="spacingAndGlyphs" textLength="25" x="179" y="20">Bob</text><rect fill="#FEFECE" filter="url(#f1)" height="29.1406" style="stroke: #A80036; stroke-width: 1.5;" width="39" x="172" y="308.8594"/><text fill="#000000" font-size="13" lengthAdjust="spacingAndGlyphs" textLength="25" x="179" y="328.8594">Bob</text><polygon fill="#00FFFF" filter="url(#f1)" points="5,49.1406,5,89.1406,129,89.1406,129,59.1406,119,49.1406,5,49.1406" style="stroke: #A80036; stroke-width: 1.0;"/><line style="stroke: #A80036; stroke-width: 1.0;" x1="119" x2="119" y1="49.1406" y2="59.1406"/><line style="stroke: #A80036; stroke-width: 1.0;" x1="129" x2="119" y1="59.1406" y2="59.1406"/><text fill="#000000" font-size="13" lengthAdjust="spacingAndGlyphs" textLength="103" x="11" y="67.1406">This is displayed</text><text fill="#000000" font-size="13" lengthAdjust="spacingAndGlyphs" textLength="74" x="11" y="82.2813">left of Alice.</text><polygon fill="#FBFB77" filter="url(#f1)" points="143,103.4219,143,128.4219,354,128.4219,354,113.4219,344,103.4219,143,103.4219" style="stroke: #A80036; stroke-width: 1.0;"/><line style="stroke: #A80036; stroke-width: 1.0;" x1="344" x2="344" y1="103.4219" y2="113.4219"/><line style="stroke: #A80036; stroke-width: 1.0;" x1="354" x2="344" y1="113.4219" y2="113.4219"/><text fill="#000000" font-size="13" lengthAdjust="spacingAndGlyphs" textLength="190" x="149" y="121.4219">This is displayed right of Alice.</text><polygon fill="#FBFB77" filter="url(#f1)" points="39,142.5625,39,167.5625,233,167.5625,233,152.5625,223,142.5625,39,142.5625" style="stroke: #A80036; stroke-width: 1.0;"/><line style="stroke: #A80036; stroke-width: 1.0;" x1="223" x2="223" y1="142.5625" y2="152.5625"/><line style="stroke: #A80036; stroke-width: 1.0;" x1="233" x2="223" y1="152.5625" y2="152.5625"/><text fill="#000000" font-size="13" lengthAdjust="spacingAndGlyphs" textLength="173" x="45" y="160.5625">This is displayed over Alice.</text><polygon fill="#FFAAAA" filter="url(#f1)" points="89,181.7031,89,221.7031,237,221.7031,237,191.7031,227,181.7031,89,181.7031" style="stroke: #A80036; stroke-width: 1.0;"/><line style="stroke: #A80036; stroke-width: 1.0;" x1="227" x2="227" y1="181.7031" y2="191.7031"/><line style="stroke: #A80036; stroke-width: 1.0;" x1="237" x2="227" y1="191.7031" y2="191.7031"/><text fill="#000000" font-size="13" lengthAdjust="spacingAndGlyphs" textLength="103" x="95" y="199.7031">This is displayed</text><text fill="#000000" font-size="13" lengthAdjust="spacingAndGlyphs" textLength="123" x="99" y="214.8438">over Bob and Alice.</text><polygon fill="#FBFB77" filter="url(#f1)" points="94,235.9844,94,290.9844,232,290.9844,232,245.9844,222,235.9844,94,235.9844" style="stroke: #A80036; stroke-width: 1.0;"/><line style="stroke: #A80036; stroke-width: 1.0;" x1="222" x2="222" y1="235.9844" y2="245.9844"/><line style="stroke: #A80036; stroke-width: 1.0;" x1="232" x2="222" y1="245.9844" y2="245.9844"/><text fill="#000000" font-size="13" lengthAdjust="spacingAndGlyphs" textLength="117" x="100" y="253.9844">This is yet another</text><text fill="#000000" font-size="13" lengthAdjust="spacingAndGlyphs" textLength="71" x="100" y="269.125">example of</text><text fill="#000000" font-size="13" lengthAdjust="spacingAndGlyphs" textLength="76" x="100" y="284.2656">a long note.</text></g></svg>