<?xml version="1.0" encoding="UTF-8" standalone="yes"?><svg xmlns="http://www.w3.org/2000/svg" xmlns:xlink="http://www.w3.org/1999/xlink" height="336pt" style="width:150px;height:336px;" version="1.1" viewBox="0 0 150 336" width="150pt"><defs><filter height="300%" id="f1" width="300%" x="-1" y="-1"><feGaussianBlur result="blurOut" stdDeviation="2"/><feColorMatrix in="blurOut" result="blurOut2" type="matrix" values="0 0 0 0 0 0 0 0 0 0 0 0 0 0 0 0 0 0 .4 0"/><feOffset dx="4" dy="4" in="blurOut2" result="blurOut3"/><feBlend in="SourceGraphic" in2="blurOut3" mode="normal"/></filter></defs><g><line style="stroke: #A80036; stroke-width: 1.0; stroke-dasharray: 5.0,5.0;" x1="29" x2="29" y1="34.1406" y2="298.9844"/><line style="stroke: #A80036; stroke-width: 1.0; stroke-dasharray: 5.0,5.0;" x1="123.5" x2="123.5" y1="34.1406" y2="298.9844"/><rect fill="#FEFECE" filter="url(#f1)" height="29.1406" style="stroke: #A80036; stroke-width: 1.5;" width="44" x="5" y="0"/><text fill="#000000" font-size="13" lengthAdjust="spacingAndGlyphs" textLength="30" x="12" y="20">Alice</text><rect fill="#FEFECE" filter="url(#f1)" height="29.1406" style="stroke: #A80036; stroke-width: 1.5;" width="44" x="5" y="297.8594"/><text fill="#000000" font-size="13" lengthAdjust="spacingAndGlyphs" textLength="30" x="12" y="317.8594">Alice</text><rect fill="#FEFECE" filter="url(#f1)" height="29.1406" style="stroke: #A80036; stroke-width: 1.5;" width="39" x="102.5" y="0"/><text fill="#000000" font-size="13" lengthAdjust="spacingAndGlyphs" textLength="25" x="109.5" y="20">Bob</text><rect fill="#FEFECE" filter="url(#f1)" height="29.1406" style="stroke: #A80036; stroke-width: 1.5;" width="39" x="102.5" y="297.8594"/><text fill="#000000" font-size="13" lengthAdjust="spacingAndGlyphs" textLength="25" x="109.5" y="317.8594">Bob</text><line style="stroke: #A80036; stroke-width: 1.0;" x1="29" x2="118" y1="65.1406" y2="65.1406"/><polygon fill="#A80036" points="112,61.1406,122,65.1406,112,69.1406,116,65.1406" style="stroke: #A80036; stroke-width: 1.0;"/><text fill="#000000" font-size="13" lengthAdjust="spacingAndGlyphs" textLength="71" x="36" y="61.1406">message 1</text><line style="stroke: #A80036; stroke-width: 1.0; stroke-dasharray: 2.0,2.0;" x1="34" x2="123" y1="94.2813" y2="94.2813"/><polygon fill="#A80036" points="41,90.2813,31,94.2813,41,98.2813,37,94.2813" style="stroke: #A80036; stroke-width: 1.0;"/><text fill="#000000" font-size="13" lengthAdjust="spacingAndGlyphs" textLength="15" x="46" y="90.2813">ok</text><line style="stroke: #A80036; stroke-width: 1.0;" x1="29" x2="118" y1="148.4219" y2="148.4219"/><polygon fill="#A80036" points="112,144.4219,122,148.4219,112,152.4219,116,148.4219" style="stroke: #A80036; stroke-width: 1.0;"/><text fill="#000000" font-size="13" lengthAdjust="spacingAndGlyphs" textLength="71" x="36" y="144.4219">message 2</text><line style="stroke: #A80036; stroke-width: 1.0; stroke-dasharray: 2.0,2.0;" x1="34" x2="123" y1="177.5625" y2="177.5625"/><polygon fill="#A80036" points="41,173.5625,31,177.5625,41,181.5625,37,177.5625" style="stroke: #A80036; stroke-width: 1.0;"/><text fill="#000000" font-size="13" lengthAdjust="spacingAndGlyphs" textLength="15" x="46" y="173.5625">ok</text><line style="stroke: #A80036; stroke-width: 1.0;" x1="29" x2="118" y1="251.7031" y2="251.7031"/><polygon fill="#A80036" points="112,247.7031,122,251.7031,112,255.7031,116,251.7031" style="stroke: #A80036; stroke-width: 1.0;"/><text fill="#000000" font-size="13" lengthAdjust="spacingAndGlyphs" textLength="71" x="36" y="247.7031">message 3</text><line style="stroke: #A80036; stroke-width: 1.0; stroke-dasharray: 2.0,2.0;" x1="34" x2="123" y1="280.8438" y2="280.8438"/><polygon fill="#A80036" points="41,276.8438,31,280.8438,41,284.8438,37,280.8438" style="stroke: #A80036; stroke-width: 1.0;"/><text fill="#000000" font-size="13" lengthAdjust="spacingAndGlyphs" textLength="15" x="46" y="276.8438">ok</text></g></svg>