<?xml version="1.0" encoding="UTF-8" standalone="yes"?><svg xmlns="http://www.w3.org/2000/svg" xmlns:xlink="http://www.w3.org/1999/xlink" height="266pt" style="width:403px;height:266px;" version="1.1" viewBox="0 0 403 266" width="403pt"><defs><filter height="300%" id="f1" width="300%" x="-1" y="-1"><feGaussianBlur result="blurOut" stdDeviation="2"/><feColorMatrix in="blurOut" result="blurOut2" type="matrix" values="0 0 0 0 0 0 0 0 0 0 0 0 0 0 0 0 0 0 .4 0"/><feOffset dx="4" dy="4" in="blurOut2" result="blurOut3"/><feBlend in="SourceGraphic" in2="blurOut3" mode="normal"/></filter></defs><g><rect fill="#FFFFFF" filter="url(#f1)" height="145.7031" style="stroke: #A80036; stroke-width: 1.0;" width="10" x="102" y="65.1406"/><rect fill="#FFFFFF" filter="url(#f1)" height="87.4219" style="stroke: #A80036; stroke-width: 1.0;" width="10" x="281" y="94.2813"/><rect fill="#FFFFFF" filter="url(#f1)" height="29.1406" style="stroke: #A80036; stroke-width: 1.0;" width="10" x="380" y="123.4219"/><line style="stroke: #A80036; stroke-width: 1.0; stroke-dasharray: 5.0,5.0;" x1="29" x2="29" y1="34.1406" y2="228.9844"/><line style="stroke: #A80036; stroke-width: 1.0; stroke-dasharray: 5.0,5.0;" x1="106.5" x2="106.5" y1="34.1406" y2="228.9844"/><line style="stroke: #A80036; stroke-width: 1.0; stroke-dasharray: 5.0,5.0;" x1="285.5" x2="285.5" y1="34.1406" y2="228.9844"/><line style="stroke: #A80036; stroke-width: 1.0; stroke-dasharray: 5.0,5.0;" x1="384.5" x2="384.5" y1="34.1406" y2="228.9844"/><rect fill="#FEFECE" filter="url(#f1)" height="29.1406" style="stroke: #A80036; stroke-width: 1.5;" width="44" x="5" y="0"/><text fill="#000000" font-size="13" lengthAdjust="spacingAndGlyphs" textLength="30" x="12" y="20">User</text><rect fill="#FEFECE" filter="url(#f1)" height="29.1406" style="stroke: #A80036; stroke-width: 1.5;" width="44" x="5" y="227.8594"/><text fill="#000000" font-size="13" lengthAdjust="spacingAndGlyphs" textLength="30" x="12" y="247.8594">User</text><rect fill="#FEFECE" filter="url(#f1)" height="29.1406" style="stroke: #A80036; stroke-width: 1.5;" width="23" x="93.5" y="0"/><text fill="#000000" font-size="13" lengthAdjust="spacingAndGlyphs" textLength="9" x="100.5" y="20">A</text><rect fill="#FEFECE" filter="url(#f1)" height="29.1406" style="stroke: #A80036; stroke-width: 1.5;" width="23" x="93.5" y="227.8594"/><text fill="#000000" font-size="13" lengthAdjust="spacingAndGlyphs" textLength="9" x="100.5" y="247.8594">A</text><rect fill="#FEFECE" filter="url(#f1)" height="29.1406" style="stroke: #A80036; stroke-width: 1.5;" width="23" x="272.5" y="0"/><text fill="#000000" font-size="13" lengthAdjust="spacingAndGlyphs" textLength="9" x="279.5" y="20">B</text><rect fill="#FEFECE" filter="url(#f1)" height="29.1406" style="stroke: #A80036; stroke-width: 1.5;" width="23" x="272.5" y="227.8594"/><text fill="#000000" font-size="13" lengthAdjust="spacingAndGlyphs" textLength="9" x="279.5" y="247.8594">B</text><rect fill="#FEFECE" filter="url(#f1)" height="29.1406" style="stroke: #A80036; stroke-width: 1.5;" width="23" x="371.5" y="0"/><text fill="#000000" font-size="13" lengthAdjust="spacingAndGlyphs" textLength="9" x="378.5" y="20">C</text><rect fill="#FEFECE" filter="url(#f1)" height="29.1406" style="stroke: #A80036; stroke-width: 1.5;" width="23" x="371.5" y="227.8594"/><text fill="#000000" font-size="13" lengthAdjust="spacingAndGlyphs" textLength="9" x="378.5" y="247.8594">C</text><rect fill="#FFFFFF" filter="url(#f1)" height="145.7031" style="stroke: #A80036; stroke-width: 1.0;" width="10" x="102" y="65.1406"/><rect fill="#FFFFFF" filter="url(#f1)" height="87.4219" style="stroke: #A80036; stroke-width: 1.0;" width="10" x="281" y="94.2813"/><rect fill="#FFFFFF" filter="url(#f1)" height="29.1406" style="stroke: #A80036; stroke-width: 1.0;" width="10" x="380" y="123.4219"/><line style="stroke: #A80036; stroke-width: 1.0;" x1="29" x2="96" y1="65.1406" y2="65.1406"/><polygon fill="#A80036" points="90,61.1406,100,65.1406,90,69.1406,94,65.1406" style="stroke: #A80036; stroke-width: 1.0;"/><text fill="#000000" font-size="13" lengthAdjust="spacingAndGlyphs" textLength="49" x="36" y="61.1406">DoWork</text><line style="stroke: #A80036; stroke-width: 1.0;" x1="112" x2="275" y1="94.2813" y2="94.2813"/><polygon fill="#A80036" points="269,90.2813,279,94.2813,269,98.2813,273,94.2813" style="stroke: #A80036; stroke-width: 1.0;"/><text fill="#000000" font-size="13" lengthAdjust="spacingAndGlyphs" textLength="145" x="119" y="90.2813">&lt;&lt; createRequest &gt;&gt;</text><line style="stroke: #A80036; stroke-width: 1.0;" x1="291" x2="374" y1="123.4219" y2="123.4219"/><polygon fill="#A80036" points="368,119.4219,378,123.4219,368,127.4219,372,123.4219" style="stroke: #A80036; stroke-width: 1.0;"/><text fill="#000000" font-size="13" lengthAdjust="spacingAndGlyphs" textLength="49" x="298" y="119.4219">DoWork</text><line style="stroke: #A80036; stroke-width: 1.0; stroke-dasharray: 2.0,2.0;" x1="296" x2="384" y1="152.5625" y2="152.5625"/><polygon fill="#A80036" points="303,148.5625,293,152.5625,303,156.5625,299,152.5625" style="stroke: #A80036; stroke-width: 1.0;"/><text fill="#000000" font-size="13" lengthAdjust="spacingAndGlyphs" textLength="65" x="308" y="148.5625">WorkDone</text><line style="stroke: #A80036; stroke-width: 2.0;" x1="376" x2="394" y1="143.5625" y2="161.5625"/><line style="stroke: #A80036; stroke-width: 2.0;" x1="376" x2="394" y1="161.5625" y2="143.5625"/><line style="stroke: #A80036; stroke-width: 1.0; stroke-dasharray: 2.0,2.0;" x1="117" x2="285" y1="181.7031" y2="181.7031"/><polygon fill="#A80036" points="124,177.7031,114,181.7031,124,185.7031,120,181.7031" style="stroke: #A80036; stroke-width: 1.0;"/><text fill="#000000" font-size="13" lengthAdjust="spacingAndGlyphs" textLength="103" x="129" y="177.7031">RequestCreated</text><line style="stroke: #A80036; stroke-width: 1.0;" x1="34" x2="106" y1="210.8438" y2="210.8438"/><polygon fill="#A80036" points="41,206.8438,31,210.8438,41,214.8438,37,210.8438" style="stroke: #A80036; stroke-width: 1.0;"/><text fill="#000000" font-size="13" lengthAdjust="spacingAndGlyphs" textLength="34" x="46" y="206.8438">Done</text></g></svg>