<?xml version="1.0" encoding="UTF-8" standalone="yes"?><svg xmlns="http://www.w3.org/2000/svg" xmlns:xlink="http://www.w3.org/1999/xlink" height="207pt" style="width:291px;height:207px;" version="1.1" viewBox="0 0 291 207" width="291pt"><defs><filter height="300%" id="f1" width="300%" x="-1" y="-1"><feGaussianBlur result="blurOut" stdDeviation="2"/><feColorMatrix in="blurOut" result="blurOut2" type="matrix" values="0 0 0 0 0 0 0 0 0 0 0 0 0 0 0 0 0 0 .4 0"/><feOffset dx="4" dy="4" in="blurOut2" result="blurOut3"/><feBlend in="SourceGraphic" in2="blurOut3" mode="normal"/></filter></defs><g><line style="stroke: #A80036; stroke-width: 1.0; stroke-dasharray: 5.0,5.0;" x1="29" x2="29" y1="34.1406" y2="170.7031"/><line style="stroke: #A80036; stroke-width: 1.0; stroke-dasharray: 5.0,5.0;" x1="264.5" x2="264.5" y1="34.1406" y2="170.7031"/><rect fill="#FEFECE" filter="url(#f1)" height="29.1406" style="stroke: #A80036; stroke-width: 1.5;" width="44" x="5" y="0"/><text fill="#000000" font-size="13" lengthAdjust="spacingAndGlyphs" textLength="30" x="12" y="20">Alice</text><rect fill="#FEFECE" filter="url(#f1)" height="29.1406" style="stroke: #A80036; stroke-width: 1.5;" width="44" x="5" y="168.8594"/><text fill="#000000" font-size="13" lengthAdjust="spacingAndGlyphs" textLength="30" x="12" y="188.8594">Alice</text><rect fill="#FEFECE" filter="url(#f1)" height="29.1406" style="stroke: #A80036; stroke-width: 1.5;" width="39" x="243.5" y="0"/><text fill="#000000" font-size="13" lengthAdjust="spacingAndGlyphs" textLength="25" x="250.5" y="20">Bob</text><rect fill="#FEFECE" filter="url(#f1)" height="29.1406" style="stroke: #A80036; stroke-width: 1.5;" width="39" x="243.5" y="168.8594"/><text fill="#000000" font-size="13" lengthAdjust="spacingAndGlyphs" textLength="25" x="250.5" y="188.8594">Bob</text><line style="stroke: #A80036; stroke-width: 1.0;" x1="29" x2="259" y1="65.1406" y2="65.1406"/><polygon fill="#A80036" points="253,61.1406,263,65.1406,253,69.1406,257,65.1406" style="stroke: #A80036; stroke-width: 1.0;"/><text fill="#000000" font-size="13" lengthAdjust="spacingAndGlyphs" textLength="149" x="36" y="61.1406">Authentication Request</text><line style="stroke: #A80036; stroke-width: 1.0; stroke-dasharray: 2.0,2.0;" x1="34" x2="264" y1="94.2813" y2="94.2813"/><polygon fill="#A80036" points="41,90.2813,31,94.2813,41,98.2813,37,94.2813" style="stroke: #A80036; stroke-width: 1.0;"/><text fill="#000000" font-size="13" lengthAdjust="spacingAndGlyphs" textLength="159" x="46" y="90.2813">Authentication Response</text><line style="stroke: #A80036; stroke-width: 1.0;" x1="29" x2="259" y1="123.4219" y2="123.4219"/><polygon fill="#A80036" points="253,119.4219,263,123.4219,253,127.4219,257,123.4219" style="stroke: #A80036; stroke-width: 1.0;"/><text fill="#000000" font-size="13" lengthAdjust="spacingAndGlyphs" textLength="203" x="36" y="119.4219">Another authentication Request</text><line style="stroke: #A80036; stroke-width: 1.0; stroke-dasharray: 2.0,2.0;" x1="34" x2="264" y1="152.5625" y2="152.5625"/><polygon fill="#A80036" points="41,148.5625,31,152.5625,41,156.5625,37,152.5625" style="stroke: #A80036; stroke-width: 1.0;"/><text fill="#000000" font-size="13" lengthAdjust="spacingAndGlyphs" textLength="212" x="46" y="148.5625">another authentication Response</text></g></svg>