<?xml version="1.0" encoding="UTF-8" standalone="yes"?><svg xmlns="http://www.w3.org/2000/svg" xmlns:xlink="http://www.w3.org/1999/xlink" height="249pt" style="width:309px;height:249px;" version="1.1" viewBox="0 0 309 249" width="309pt"><defs><filter height="300%" id="f1" width="300%" x="-1" y="-1"><feGaussianBlur result="blurOut" stdDeviation="2"/><feColorMatrix in="blurOut" result="blurOut2" type="matrix" values="0 0 0 0 0 0 0 0 0 0 0 0 0 0 0 0 0 0 .4 0"/><feOffset dx="4" dy="4" in="blurOut2" result="blurOut3"/><feBlend in="SourceGraphic" in2="blurOut3" mode="normal"/></filter></defs><g><rect fill="#FFBBBB" filter="url(#f1)" height="129.5625" style="stroke: #A80036; stroke-width: 1.0;" width="10" x="102" y="65.1406"/><rect fill="#E9967A" filter="url(#f1)" height="71.2813" style="stroke: #A80036; stroke-width: 1.0;" width="10" x="107" y="94.2813"/><rect fill="#FFFFFF" filter="url(#f1)" height="29.1406" style="stroke: #A80036; stroke-width: 1.0;" width="10" x="286" y="136.4219"/><line style="stroke: #A80036; stroke-width: 1.0; stroke-dasharray: 5.0,5.0;" x1="29" x2="29" y1="34.1406" y2="212.8438"/><line style="stroke: #A80036; stroke-width: 1.0; stroke-dasharray: 5.0,5.0;" x1="106.5" x2="106.5" y1="34.1406" y2="212.8438"/><line style="stroke: #A80036; stroke-width: 1.0; stroke-dasharray: 5.0,5.0;" x1="290.5" x2="290.5" y1="34.1406" y2="212.8438"/><rect fill="#FEFECE" filter="url(#f1)" height="29.1406" style="stroke: #A80036; stroke-width: 1.5;" width="44" x="5" y="0"/><text fill="#000000" font-size="13" lengthAdjust="spacingAndGlyphs" textLength="30" x="12" y="20">User</text><rect fill="#FEFECE" filter="url(#f1)" height="29.1406" style="stroke: #A80036; stroke-width: 1.5;" width="44" x="5" y="210.8594"/><text fill="#000000" font-size="13" lengthAdjust="spacingAndGlyphs" textLength="30" x="12" y="230.8594">User</text><rect fill="#FEFECE" filter="url(#f1)" height="29.1406" style="stroke: #A80036; stroke-width: 1.5;" width="23" x="93.5" y="0"/><text fill="#000000" font-size="13" lengthAdjust="spacingAndGlyphs" textLength="9" x="100.5" y="20">A</text><rect fill="#FEFECE" filter="url(#f1)" height="29.1406" style="stroke: #A80036; stroke-width: 1.5;" width="23" x="93.5" y="210.8594"/><text fill="#000000" font-size="13" lengthAdjust="spacingAndGlyphs" textLength="9" x="100.5" y="230.8594">A</text><rect fill="#FEFECE" filter="url(#f1)" height="29.1406" style="stroke: #A80036; stroke-width: 1.5;" width="23" x="277.5" y="0"/><text fill="#000000" font-size="13" lengthAdjust="spacingAndGlyphs" textLength="9" x="284.5" y="20">B</text><rect fill="#FEFECE" filter="url(#f1)" height="29.1406" style="stroke: #A80036; stroke-width: 1.5;" width="23" x="277.5" y="210.8594"/><text fill="#000000" font-size="13" lengthAdjust="spacingAndGlyphs" textLength="9" x="284.5" y="230.8594">B</text><rect fill="#FFBBBB" filter="url(#f1)" height="129.5625" style="stroke: #A80036; stroke-width: 1.0;" width="10" x="102" y="65.1406"/><rect fill="#E9967A" filter="url(#f1)" height="71.2813" style="stroke: #A80036; stroke-width: 1.0;" width="10" x="107" y="94.2813"/><rect fill="#FFFFFF" filter="url(#f1)" height="29.1406" style="stroke: #A80036; stroke-width: 1.0;" width="10" x="286" y="136.4219"/><line style="stroke: #A80036; stroke-width: 1.0;" x1="29" x2="96" y1="65.1406" y2="65.1406"/><polygon fill="#A80036" points="90,61.1406,100,65.1406,90,69.1406,94,65.1406" style="stroke: #A80036; stroke-width: 1.0;"/><text fill="#000000" font-size="13" lengthAdjust="spacingAndGlyphs" textLength="49" x="36" y="61.1406">DoWork</text><line style="stroke: #A80036; stroke-width: 1.0;" x1="112" x2="159" y1="89.4219" y2="89.4219"/><line style="stroke: #A80036; stroke-width: 1.0;" x1="159" x2="159" y1="89.4219" y2="102.4219"/><line style="stroke: #A80036; stroke-width: 1.0;" x1="117" x2="159" y1="102.4219" y2="102.4219"/><polygon fill="#A80036" points="127,98.4219,117,102.4219,127,106.4219,123,102.4219" style="stroke: #A80036; stroke-width: 1.0;"/><text fill="#000000" font-size="13" lengthAdjust="spacingAndGlyphs" textLength="73" x="124" y="85.2813">Internal call</text><line style="stroke: #A80036; stroke-width: 1.0;" x1="117" x2="280" y1="136.4219" y2="136.4219"/><polygon fill="#A80036" points="274,132.4219,284,136.4219,274,140.4219,278,136.4219" style="stroke: #A80036; stroke-width: 1.0;"/><text fill="#000000" font-size="13" lengthAdjust="spacingAndGlyphs" textLength="145" x="124" y="132.4219">&lt;&lt; createRequest &gt;&gt;</text><line style="stroke: #A80036; stroke-width: 1.0; stroke-dasharray: 2.0,2.0;" x1="117" x2="290" y1="165.5625" y2="165.5625"/><polygon fill="#A80036" points="124,161.5625,114,165.5625,124,169.5625,120,165.5625" style="stroke: #A80036; stroke-width: 1.0;"/><text fill="#000000" font-size="13" lengthAdjust="spacingAndGlyphs" textLength="103" x="129" y="161.5625">RequestCreated</text><line style="stroke: #A80036; stroke-width: 1.0;" x1="34" x2="106" y1="194.7031" y2="194.7031"/><polygon fill="#A80036" points="41,190.7031,31,194.7031,41,198.7031,37,194.7031" style="stroke: #A80036; stroke-width: 1.0;"/><text fill="#000000" font-size="13" lengthAdjust="spacingAndGlyphs" textLength="34" x="46" y="190.7031">Done</text></g></svg>