<?xml version="1.0" encoding="UTF-8" standalone="yes"?><svg xmlns="http://www.w3.org/2000/svg" xmlns:xlink="http://www.w3.org/1999/xlink" height="249pt" style="width:251px;height:249px;" version="1.1" viewBox="0 0 251 249" width="251pt"><defs><filter height="300%" id="f1" width="300%" x="-1" y="-1"><feGaussianBlur result="blurOut" stdDeviation="2"/><feColorMatrix in="blurOut" result="blurOut2" type="matrix" values="0 0 0 0 0 0 0 0 0 0 0 0 0 0 0 0 0 0 .4 0"/><feOffset dx="4" dy="4" in="blurOut2" result="blurOut3"/><feBlend in="SourceGraphic" in2="blurOut3" mode="normal"/></filter></defs><g><rect fill="#FFFFFF" filter="url(#f1)" height="129.5625" style="stroke: #A80036; stroke-width: 1.0;" width="10" x="68" y="65.1406"/><rect fill="#FFFFFF" filter="url(#f1)" height="71.2813" style="stroke: #A80036; stroke-width: 1.0;" width="10" x="73" y="94.2813"/><line style="stroke: #A80036; stroke-width: 1.0; stroke-dasharray: 5.0,5.0;" x1="72.5" x2="72.5" y1="34.1406" y2="212.8438"/><rect fill="#FEFECE" filter="url(#f1)" height="29.1406" style="stroke: #A80036; stroke-width: 1.5;" width="23" x="59.5" y="0"/><text fill="#000000" font-size="13" lengthAdjust="spacingAndGlyphs" textLength="9" x="66.5" y="20">A</text><rect fill="#FEFECE" filter="url(#f1)" height="29.1406" style="stroke: #A80036; stroke-width: 1.5;" width="23" x="59.5" y="210.8594"/><text fill="#000000" font-size="13" lengthAdjust="spacingAndGlyphs" textLength="9" x="66.5" y="230.8594">A</text><rect fill="#FFFFFF" filter="url(#f1)" height="129.5625" style="stroke: #A80036; stroke-width: 1.0;" width="10" x="68" y="65.1406"/><rect fill="#FFFFFF" filter="url(#f1)" height="71.2813" style="stroke: #A80036; stroke-width: 1.0;" width="10" x="73" y="94.2813"/><line style="stroke: #A80036; stroke-width: 1.0;" x1="0" x2="62" y1="65.1406" y2="65.1406"/><polygon fill="#A80036" points="56,61.1406,66,65.1406,56,69.1406,60,65.1406" style="stroke: #A80036; stroke-width: 1.0;"/><text fill="#000000" font-size="13" lengthAdjust="spacingAndGlyphs" textLength="49" x="7" y="61.1406">DoWork</text><line style="stroke: #A80036; stroke-width: 1.0;" x1="78" x2="125" y1="89.4219" y2="89.4219"/><line style="stroke: #A80036; stroke-width: 1.0;" x1="125" x2="125" y1="89.4219" y2="102.4219"/><line style="stroke: #A80036; stroke-width: 1.0;" x1="83" x2="125" y1="102.4219" y2="102.4219"/><polygon fill="#A80036" points="93,98.4219,83,102.4219,93,106.4219,89,102.4219" style="stroke: #A80036; stroke-width: 1.0;"/><text fill="#000000" font-size="13" lengthAdjust="spacingAndGlyphs" textLength="73" x="90" y="85.2813">Internal call</text><line style="stroke: #A80036; stroke-width: 1.0;" x1="83" x2="246" y1="136.4219" y2="136.4219"/><polygon fill="#A80036" points="240,132.4219,250,136.4219,240,140.4219,244,136.4219" style="stroke: #A80036; stroke-width: 1.0;"/><text fill="#000000" font-size="13" lengthAdjust="spacingAndGlyphs" textLength="145" x="90" y="132.4219">&lt;&lt; createRequest &gt;&gt;</text><line style="stroke: #A80036; stroke-width: 1.0; stroke-dasharray: 2.0,2.0;" x1="83" x2="251" y1="165.5625" y2="165.5625"/><polygon fill="#A80036" points="90,161.5625,80,165.5625,90,169.5625,86,165.5625" style="stroke: #A80036; stroke-width: 1.0;"/><text fill="#000000" font-size="13" lengthAdjust="spacingAndGlyphs" textLength="103" x="95" y="161.5625">RequestCreated</text><line style="stroke: #A80036; stroke-width: 1.0;" x1="5" x2="72" y1="194.7031" y2="194.7031"/><polygon fill="#A80036" points="12,190.7031,2,194.7031,12,198.7031,8,194.7031" style="stroke: #A80036; stroke-width: 1.0;"/><text fill="#000000" font-size="13" lengthAdjust="spacingAndGlyphs" textLength="34" x="17" y="190.7031">Done</text></g></svg>