<?xml version="1.0" encoding="UTF-8" standalone="yes"?><svg xmlns="http://www.w3.org/2000/svg" xmlns:xlink="http://www.w3.org/1999/xlink" height="238pt" style="width:359px;height:238px;" version="1.1" viewBox="0 0 359 238" width="359pt"><defs><filter height="300%" id="f1" width="300%" x="-1" y="-1"><feGaussianBlur result="blurOut" stdDeviation="2"/><feColorMatrix in="blurOut" result="blurOut2" type="matrix" values="0 0 0 0 0 0 0 0 0 0 0 0 0 0 0 0 0 0 .4 0"/><feOffset dx="4" dy="4" in="blurOut2" result="blurOut3"/><feBlend in="SourceGraphic" in2="blurOut3" mode="normal"/></filter></defs><g><line style="stroke: #A80036; stroke-width: 1.0; stroke-dasharray: 5.0,5.0;" x1="145" x2="145" y1="34.1406" y2="201.8438"/><line style="stroke: #A80036; stroke-width: 1.0; stroke-dasharray: 5.0,5.0;" x1="200" x2="200" y1="34.1406" y2="201.8438"/><rect fill="#FEFECE" filter="url(#f1)" height="29.1406" style="stroke: #A80036; stroke-width: 1.5;" width="44" x="121" y="0"/><text fill="#000000" font-size="13" lengthAdjust="spacingAndGlyphs" textLength="30" x="128" y="20">Alice</text><rect fill="#FEFECE" filter="url(#f1)" height="29.1406" style="stroke: #A80036; stroke-width: 1.5;" width="44" x="121" y="199.8594"/><text fill="#000000" font-size="13" lengthAdjust="spacingAndGlyphs" textLength="30" x="128" y="219.8594">Alice</text><rect fill="#FEFECE" filter="url(#f1)" height="29.1406" style="stroke: #A80036; stroke-width: 1.5;" width="39" x="179" y="0"/><text fill="#000000" font-size="13" lengthAdjust="spacingAndGlyphs" textLength="25" x="186" y="20">Bob</text><rect fill="#FEFECE" filter="url(#f1)" height="29.1406" style="stroke: #A80036; stroke-width: 1.5;" width="39" x="179" y="199.8594"/><text fill="#000000" font-size="13" lengthAdjust="spacingAndGlyphs" textLength="25" x="186" y="219.8594">Bob</text><line style="stroke: #A80036; stroke-width: 1.0;" x1="145" x2="194.5" y1="70.1406" y2="70.1406"/><polygon fill="#A80036" points="188.5,66.1406,198.5,70.1406,188.5,74.1406,192.5,70.1406" style="stroke: #A80036; stroke-width: 1.0;"/><text fill="#000000" font-size="13" lengthAdjust="spacingAndGlyphs" textLength="30" x="152" y="66.1406">hello</text><polygon fill="#FBFB77" filter="url(#f1)" points="5,49.1406,5,74.1406,136,74.1406,136,59.1406,126,49.1406,5,49.1406" style="stroke: #A80036; stroke-width: 1.0;"/><line style="stroke: #A80036; stroke-width: 1.0;" x1="126" x2="126" y1="49.1406" y2="59.1406"/><line style="stroke: #A80036; stroke-width: 1.0;" x1="136" x2="126" y1="59.1406" y2="59.1406"/><text fill="#000000" font-size="13" lengthAdjust="spacingAndGlyphs" textLength="110" x="11" y="67.1406">this is a first note</text><line style="stroke: #A80036; stroke-width: 1.0;" x1="150" x2="199.5" y1="109.2813" y2="109.2813"/><polygon fill="#A80036" points="157,105.2813,147,109.2813,157,113.2813,153,109.2813" style="stroke: #A80036; stroke-width: 1.0;"/><text fill="#000000" font-size="13" lengthAdjust="spacingAndGlyphs" textLength="15" x="162" y="105.2813">ok</text><polygon fill="#FBFB77" filter="url(#f1)" points="205,88.2813,205,113.2813,350,113.2813,350,98.2813,340,88.2813,205,88.2813" style="stroke: #A80036; stroke-width: 1.0;"/><line style="stroke: #A80036; stroke-width: 1.0;" x1="340" x2="340" y1="88.2813" y2="98.2813"/><line style="stroke: #A80036; stroke-width: 1.0;" x1="350" x2="340" y1="98.2813" y2="98.2813"/><text fill="#000000" font-size="13" lengthAdjust="spacingAndGlyphs" textLength="124" x="211" y="106.2813">this is another note</text><line style="stroke: #A80036; stroke-width: 1.0;" x1="200.5" x2="242.5" y1="157.2031" y2="157.2031"/><line style="stroke: #A80036; stroke-width: 1.0;" x1="242.5" x2="242.5" y1="157.2031" y2="170.2031"/><line style="stroke: #A80036; stroke-width: 1.0;" x1="200.5" x2="242.5" y1="170.2031" y2="170.2031"/><polygon fill="#A80036" points="210.5,166.2031,200.5,170.2031,210.5,174.2031,206.5,170.2031" style="stroke: #A80036; stroke-width: 1.0;"/><text fill="#000000" font-size="13" lengthAdjust="spacingAndGlyphs" textLength="82" x="207.5" y="153.0625">I am thinking</text><polygon fill="#FBFB77" filter="url(#f1)" points="46,127.4219,46,182.4219,191,182.4219,191,137.4219,181,127.4219,46,127.4219" style="stroke: #A80036; stroke-width: 1.0;"/><line style="stroke: #A80036; stroke-width: 1.0;" x1="181" x2="181" y1="127.4219" y2="137.4219"/><line style="stroke: #A80036; stroke-width: 1.0;" x1="191" x2="181" y1="137.4219" y2="137.4219"/><text fill="#000000" font-size="13" lengthAdjust="spacingAndGlyphs" textLength="41" x="52" y="145.4219">a note</text><text fill="#000000" font-size="13" lengthAdjust="spacingAndGlyphs" textLength="124" x="52" y="160.5625">can also be defined</text><text fill="#000000" font-size="13" lengthAdjust="spacingAndGlyphs" textLength="99" x="52" y="175.7031">on several lines</text></g></svg>