<?xml version="1.0" encoding="UTF-8" standalone="yes"?><svg xmlns="http://www.w3.org/2000/svg" xmlns:xlink="http://www.w3.org/1999/xlink" height="237pt" style="width:436px;height:237px;" version="1.1" viewBox="0 0 436 237" width="436pt"><defs><filter height="300%" id="f1" width="300%" x="-1" y="-1"><feGaussianBlur result="blurOut" stdDeviation="2"/><feColorMatrix in="blurOut" result="blurOut2" type="matrix" values="0 0 0 0 0 0 0 0 0 0 0 0 0 0 0 0 0 0 .4 0"/><feOffset dx="4" dy="4" in="blurOut2" result="blurOut3"/><feBlend in="SourceGraphic" in2="blurOut3" mode="normal"/></filter></defs><g><rect fill="#FEFECE" filter="url(#f1)" height="29.1406" style="stroke: #A80036; stroke-width: 1.5;" width="50" x="131" y="73.2813"/><text fill="#000000" font-size="13" lengthAdjust="spacingAndGlyphs" textLength="36" x="138" y="93.2813">Other</text><rect fill="#FEFECE" filter="url(#f1)" height="29.1406" style="stroke: #A80036; stroke-width: 1.5;" width="52" x="195" y="117.4219"/><text fill="#000000" font-size="13" lengthAdjust="spacingAndGlyphs" textLength="38" x="202" y="137.4219">String</text><line style="stroke: #A80036; stroke-width: 1.0; stroke-dasharray: 5.0,5.0;" x1="26" x2="26" y1="34.1406" y2="200.7031"/><line style="stroke: #A80036; stroke-width: 1.0; stroke-dasharray: 5.0,5.0;" x1="82" x2="82" y1="34.1406" y2="200.7031"/><line style="stroke: #A80036; stroke-width: 1.0; stroke-dasharray: 5.0,5.0;" x1="158" x2="158" y1="105.3516" y2="200.7031"/><line style="stroke: #A80036; stroke-width: 1.0; stroke-dasharray: 5.0,5.0;" x1="223" x2="223" y1="149.4922" y2="200.7031"/><rect fill="#FEFECE" filter="url(#f1)" height="29.1406" style="stroke: #A80036; stroke-width: 1.5;" width="39" x="5" y="0"/><text fill="#000000" font-size="13" lengthAdjust="spacingAndGlyphs" textLength="25" x="12" y="20">Bob</text><rect fill="#FEFECE" filter="url(#f1)" height="29.1406" style="stroke: #A80036; stroke-width: 1.5;" width="39" x="5" y="198.8594"/><text fill="#000000" font-size="13" lengthAdjust="spacingAndGlyphs" textLength="25" x="12" y="218.8594">Bob</text><rect fill="#FEFECE" filter="url(#f1)" height="29.1406" style="stroke: #A80036; stroke-width: 1.5;" width="44" x="58" y="0"/><text fill="#000000" font-size="13" lengthAdjust="spacingAndGlyphs" textLength="30" x="65" y="20">Alice</text><rect fill="#FEFECE" filter="url(#f1)" height="29.1406" style="stroke: #A80036; stroke-width: 1.5;" width="44" x="58" y="198.8594"/><text fill="#000000" font-size="13" lengthAdjust="spacingAndGlyphs" textLength="30" x="65" y="218.8594">Alice</text><rect fill="#FEFECE" filter="url(#f1)" height="29.1406" style="stroke: #A80036; stroke-width: 1.5;" width="50" x="131" y="198.8594"/><text fill="#000000" font-size="13" lengthAdjust="spacingAndGlyphs" textLength="36" x="138" y="218.8594">Other</text><rect fill="#FEFECE" filter="url(#f1)" height="29.1406" style="stroke: #A80036; stroke-width: 1.5;" width="52" x="195" y="198.8594"/><text fill="#000000" font-size="13" lengthAdjust="spacingAndGlyphs" textLength="38" x="202" y="218.8594">String</text><line style="stroke: #A80036; stroke-width: 1.0;" x1="26.5" x2="76" y1="65.1406" y2="65.1406"/><polygon fill="#A80036" points="70,61.1406,80,65.1406,70,69.1406,74,65.1406" style="stroke: #A80036; stroke-width: 1.0;"/><text fill="#000000" font-size="13" lengthAdjust="spacingAndGlyphs" textLength="30" x="33.5" y="61.1406">hello</text><line style="stroke: #A80036; stroke-width: 1.0;" x1="82" x2="125" y1="94.2813" y2="94.2813"/><polygon fill="#A80036" points="119,90.2813,129,94.2813,119,98.2813,123,94.2813" style="stroke: #A80036; stroke-width: 1.0;"/><text fill="#000000" font-size="13" lengthAdjust="spacingAndGlyphs" textLength="25" x="89" y="90.2813">new</text><rect fill="#FEFECE" filter="url(#f1)" height="29.1406" style="stroke: #A80036; stroke-width: 1.5;" width="50" x="131" y="73.2813"/><text fill="#000000" font-size="13" lengthAdjust="spacingAndGlyphs" textLength="36" x="138" y="93.2813">Other</text><line style="stroke: #A80036; stroke-width: 1.0;" x1="82" x2="189" y1="123.4219" y2="123.4219"/><polygon fill="#A80036" points="183,119.4219,193,123.4219,183,127.4219,187,123.4219" style="stroke: #A80036; stroke-width: 1.0;"/><rect fill="#FEFECE" filter="url(#f1)" height="29.1406" style="stroke: #A80036; stroke-width: 1.5;" width="52" x="195" y="117.4219"/><text fill="#000000" font-size="13" lengthAdjust="spacingAndGlyphs" textLength="38" x="202" y="137.4219">String</text><polygon fill="#FBFB77" filter="url(#f1)" points="256,124.9219,256,149.9219,427,149.9219,427,134.9219,417,124.9219,256,124.9219" style="stroke: #A80036; stroke-width: 1.0;"/><line style="stroke: #A80036; stroke-width: 1.0;" x1="417" x2="417" y1="124.9219" y2="134.9219"/><line style="stroke: #A80036; stroke-width: 1.0;" x1="427" x2="417" y1="134.9219" y2="134.9219"/><text fill="#000000" font-size="13" lengthAdjust="spacingAndGlyphs" textLength="150" x="262" y="142.9219">You can also put notes!</text><line style="stroke: #A80036; stroke-width: 1.0; stroke-dasharray: 2.0,2.0;" x1="31.5" x2="81" y1="182.5625" y2="182.5625"/><polygon fill="#A80036" points="38.5,178.5625,28.5,182.5625,38.5,186.5625,34.5,182.5625" style="stroke: #A80036; stroke-width: 1.0;"/><text fill="#000000" font-size="13" lengthAdjust="spacingAndGlyphs" textLength="15" x="43.5" y="178.5625">ok</text></g></svg>