<?xml version="1.0" encoding="UTF-8" standalone="yes"?><svg xmlns="http://www.w3.org/2000/svg" xmlns:xlink="http://www.w3.org/1999/xlink" height="266pt" style="width:418px;height:266px;" version="1.1" viewBox="0 0 418 266" width="418pt"><defs><filter height="300%" id="f1" width="300%" x="-1" y="-1"><feGaussianBlur result="blurOut" stdDeviation="2"/><feColorMatrix in="blurOut" result="blurOut2" type="matrix" values="0 0 0 0 0 0 0 0 0 0 0 0 0 0 0 0 0 0 .4 0"/><feOffset dx="4" dy="4" in="blurOut2" result="blurOut3"/><feBlend in="SourceGraphic" in2="blurOut3" mode="normal"/></filter></defs><g><line style="stroke: #A80036; stroke-width: 1.0; stroke-dasharray: 5.0,5.0;" x1="26" x2="26" y1="34.1406" y2="228.9844"/><line style="stroke: #A80036; stroke-width: 1.0; stroke-dasharray: 5.0,5.0;" x1="389.5" x2="389.5" y1="34.1406" y2="228.9844"/><rect fill="#FEFECE" filter="url(#f1)" height="29.1406" style="stroke: #A80036; stroke-width: 1.5;" width="39" x="5" y="0"/><text fill="#000000" font-size="13" lengthAdjust="spacingAndGlyphs" textLength="25" x="12" y="20">Bob</text><rect fill="#FEFECE" filter="url(#f1)" height="29.1406" style="stroke: #A80036; stroke-width: 1.5;" width="39" x="5" y="227.8594"/><text fill="#000000" font-size="13" lengthAdjust="spacingAndGlyphs" textLength="25" x="12" y="247.8594">Bob</text><rect fill="#FEFECE" filter="url(#f1)" height="29.1406" style="stroke: #A80036; stroke-width: 1.5;" width="44" x="365.5" y="0"/><text fill="#000000" font-size="13" lengthAdjust="spacingAndGlyphs" textLength="30" x="372.5" y="20">Alice</text><rect fill="#FEFECE" filter="url(#f1)" height="29.1406" style="stroke: #A80036; stroke-width: 1.5;" width="44" x="365.5" y="227.8594"/><text fill="#000000" font-size="13" lengthAdjust="spacingAndGlyphs" textLength="30" x="372.5" y="247.8594">Alice</text><line style="stroke: #A80036; stroke-width: 1.0;" x1="26.5" x2="383.5" y1="65.1406" y2="65.1406"/><polygon fill="#A80036" points="377.5,61.1406,387.5,65.1406,377.5,69.1406,381.5,65.1406" style="stroke: #A80036; stroke-width: 1.0;"/><text fill="#000000" font-size="13" font-weight="bold" lengthAdjust="spacingAndGlyphs" textLength="39" x="33.5" y="61.1406">[001]</text><text fill="#000000" font-size="13" lengthAdjust="spacingAndGlyphs" textLength="149" x="76.5" y="61.1406">Authentication Request</text><line style="stroke: #A80036; stroke-width: 1.0;" x1="31.5" x2="388.5" y1="94.2813" y2="94.2813"/><polygon fill="#A80036" points="38.5,90.2813,28.5,94.2813,38.5,98.2813,34.5,94.2813" style="stroke: #A80036; stroke-width: 1.0;"/><text fill="#000000" font-size="13" font-weight="bold" lengthAdjust="spacingAndGlyphs" textLength="39" x="43.5" y="90.2813">[002]</text><text fill="#000000" font-size="13" lengthAdjust="spacingAndGlyphs" textLength="159" x="86.5" y="90.2813">Authentication Response</text><line style="stroke: #A80036; stroke-width: 1.0;" x1="26.5" x2="383.5" y1="123.4219" y2="123.4219"/><polygon fill="#A80036" points="377.5,119.4219,387.5,123.4219,377.5,127.4219,381.5,123.4219" style="stroke: #A80036; stroke-width: 1.0;"/><text fill="#000000" font-size="13" font-weight="bold" lengthAdjust="spacingAndGlyphs" textLength="6" x="33.5" y="119.4219">(</text><text fill="#000000" font-size="13" font-weight="bold" lengthAdjust="spacingAndGlyphs" text-decoration="underline" textLength="18" x="39.5" y="119.4219">15</text><text fill="#000000" font-size="13" font-weight="bold" lengthAdjust="spacingAndGlyphs" textLength="6" x="57.5" y="119.4219">)</text><text fill="#000000" font-size="13" lengthAdjust="spacingAndGlyphs" textLength="203" x="67.5" y="119.4219">Another authentication Request</text><line style="stroke: #A80036; stroke-width: 1.0;" x1="31.5" x2="388.5" y1="152.5625" y2="152.5625"/><polygon fill="#A80036" points="38.5,148.5625,28.5,152.5625,38.5,156.5625,34.5,152.5625" style="stroke: #A80036; stroke-width: 1.0;"/><text fill="#000000" font-size="13" font-weight="bold" lengthAdjust="spacingAndGlyphs" textLength="6" x="43.5" y="148.5625">(</text><text fill="#000000" font-size="13" font-weight="bold" lengthAdjust="spacingAndGlyphs" text-decoration="underline" textLength="18" x="49.5" y="148.5625">16</text><text fill="#000000" font-size="13" font-weight="bold" lengthAdjust="spacingAndGlyphs" textLength="6" x="67.5" y="148.5625">)</text><text fill="#000000" font-size="13" lengthAdjust="spacingAndGlyphs" textLength="213" x="77.5" y="148.5625">Another authentication Response</text><line style="stroke: #A80036; stroke-width: 1.0;" x1="26.5" x2="383.5" y1="181.7031" y2="181.7031"/><polygon fill="#A80036" points="377.5,177.7031,387.5,181.7031,377.5,185.7031,381.5,181.7031" style="stroke: #A80036; stroke-width: 1.0;"/><text fill="#FF0000" font-size="13" font-weight="bold" lengthAdjust="spacingAndGlyphs" textLength="89" x="33.5" y="177.7031">Message 40</text><text fill="#000000" font-size="13" lengthAdjust="spacingAndGlyphs" textLength="226" x="136.5" y="177.7031">Yet another authentication Request</text><line style="stroke: #A80036; stroke-width: 1.0;" x1="31.5" x2="388.5" y1="210.8438" y2="210.8438"/><polygon fill="#A80036" points="38.5,206.8438,28.5,210.8438,38.5,214.8438,34.5,210.8438" style="stroke: #A80036; stroke-width: 1.0;"/><text fill="#FF0000" font-size="13" font-weight="bold" lengthAdjust="spacingAndGlyphs" textLength="89" x="43.5" y="206.8438">Message 50</text><text fill="#000000" font-size="13" lengthAdjust="spacingAndGlyphs" textLength="236" x="146.5" y="206.8438">Yet another authentication Response</text></g></svg>