<?xml version="1.0" encoding="UTF-8" standalone="yes"?><svg xmlns="http://www.w3.org/2000/svg" xmlns:xlink="http://www.w3.org/1999/xlink" height="418pt" style="width:346px;height:418px;" version="1.1" viewBox="0 0 346 418" width="346pt"><defs><filter height="300%" id="f1" width="300%" x="-1" y="-1"><feGaussianBlur result="blurOut" stdDeviation="2"/><feColorMatrix in="blurOut" result="blurOut2" type="matrix" values="0 0 0 0 0 0 0 0 0 0 0 0 0 0 0 0 0 0 .4 0"/><feOffset dx="4" dy="4" in="blurOut2" result="blurOut3"/><feBlend in="SourceGraphic" in2="blurOut3" mode="normal"/></filter></defs><g><rect fill="#FFFFFF" filter="url(#f1)" height="283.8906" style="stroke: #000000; stroke-width: 2.0;" width="327.5" x="10" y="80.2813"/><rect fill="#FFFFFF" height="193.6563" style="stroke: none; stroke-width: 1.0;" width="327.5" x="10" y="126.5625"/><rect fill="#FFFFFF" filter="url(#f1)" height="135.7031" style="stroke: #000000; stroke-width: 2.0;" width="307.5" x="20" y="177.5156"/><rect fill="#FFFFFF" filter="url(#f1)" height="46.2813" style="stroke: #000000; stroke-width: 2.0;" width="246.5" x="30" y="230.7969"/><rect fill="#FFFFFF" height="43.9531" style="stroke: none; stroke-width: 1.0;" width="327.5" x="10" y="320.2188"/><line style="stroke: #A80036; stroke-width: 1.0; stroke-dasharray: 5.0,5.0;" x1="64" x2="64" y1="34.1406" y2="381.1719"/><line style="stroke: #A80036; stroke-width: 1.0; stroke-dasharray: 5.0,5.0;" x1="244.5" x2="244.5" y1="34.1406" y2="381.1719"/><line style="stroke: #A80036; stroke-width: 1.0; stroke-dasharray: 5.0,5.0;" x1="296.5" x2="296.5" y1="34.1406" y2="381.1719"/><rect fill="#FEFECE" filter="url(#f1)" height="29.1406" style="stroke: #A80036; stroke-width: 1.5;" width="44" x="40" y="0"/><text fill="#000000" font-size="13" lengthAdjust="spacingAndGlyphs" textLength="30" x="47" y="20">Alice</text><rect fill="#FEFECE" filter="url(#f1)" height="29.1406" style="stroke: #A80036; stroke-width: 1.5;" width="44" x="40" y="379.8594"/><text fill="#000000" font-size="13" lengthAdjust="spacingAndGlyphs" textLength="30" x="47" y="399.8594">Alice</text><rect fill="#FEFECE" filter="url(#f1)" height="29.1406" style="stroke: #A80036; stroke-width: 1.5;" width="39" x="223.5" y="0"/><text fill="#000000" font-size="13" lengthAdjust="spacingAndGlyphs" textLength="25" x="230.5" y="20">Bob</text><rect fill="#FEFECE" filter="url(#f1)" height="29.1406" style="stroke: #A80036; stroke-width: 1.5;" width="39" x="223.5" y="379.8594"/><text fill="#000000" font-size="13" lengthAdjust="spacingAndGlyphs" textLength="25" x="230.5" y="399.8594">Bob</text><rect fill="#FEFECE" filter="url(#f1)" height="29.1406" style="stroke: #A80036; stroke-width: 1.5;" width="37" x="276.5" y="0"/><text fill="#000000" font-size="13" lengthAdjust="spacingAndGlyphs" textLength="23" x="283.5" y="20">Log</text><rect fill="#FEFECE" filter="url(#f1)" height="29.1406" style="stroke: #A80036; stroke-width: 1.5;" width="37" x="276.5" y="379.8594"/><text fill="#000000" font-size="13" lengthAdjust="spacingAndGlyphs" textLength="23" x="283.5" y="399.8594">Log</text><line style="stroke: #A80036; stroke-width: 1.0;" x1="64" x2="239" y1="65.1406" y2="65.1406"/><polygon fill="#A80036" points="233,61.1406,243,65.1406,233,69.1406,237,65.1406" style="stroke: #A80036; stroke-width: 1.0;"/><text fill="#000000" font-size="13" lengthAdjust="spacingAndGlyphs" textLength="149" x="71" y="61.1406">Authentication Request</text><rect fill="none" height="283.8906" style="stroke: #000000; stroke-width: 2.0;" width="327.5" x="10" y="80.2813"/><polygon fill="#EEEEEE" points="10,80.2813,74,80.2813,74,87.2813,64,97.2813,10,97.2813,10,80.2813" style="stroke: #000000; stroke-width: 2.0;"/><text fill="#000000" font-size="13" font-weight="bold" lengthAdjust="spacingAndGlyphs" textLength="19" x="25" y="94.2813">alt</text><text fill="#000000" font-size="11" font-weight="bold" lengthAdjust="spacingAndGlyphs" textLength="112" x="89" y="93.2813">[successful case]</text><line style="stroke: #A80036; stroke-width: 1.0;" x1="69" x2="244" y1="118.4219" y2="118.4219"/><polygon fill="#A80036" points="76,114.4219,66,118.4219,76,122.4219,72,118.4219" style="stroke: #A80036; stroke-width: 1.0;"/><text fill="#000000" font-size="13" lengthAdjust="spacingAndGlyphs" textLength="157" x="81" y="114.4219">Authentication Accepted</text><line style="stroke: #000000; stroke-width: 1.0; stroke-dasharray: 2.0,2.0;" x1="10" x2="337.5" y1="127.5625" y2="127.5625"/><text fill="#000000" font-size="11" font-weight="bold" lengthAdjust="spacingAndGlyphs" textLength="138" x="15" y="138.5625">[some kind of failure]</text><line style="stroke: #A80036; stroke-width: 1.0;" x1="69" x2="244" y1="162.375" y2="162.375"/><polygon fill="#A80036" points="76,158.375,66,162.375,76,166.375,72,162.375" style="stroke: #A80036; stroke-width: 1.0;"/><text fill="#000000" font-size="13" lengthAdjust="spacingAndGlyphs" textLength="139" x="81" y="158.375">Authentication Failure</text><rect fill="none" height="135.7031" style="stroke: #000000; stroke-width: 2.0;" width="307.5" x="20" y="177.5156"/><polygon fill="#EEEEEE" points="20,177.5156,162,177.5156,162,184.5156,152,194.5156,20,194.5156,20,177.5156" style="stroke: #000000; stroke-width: 2.0;"/><text fill="#000000" font-size="13" font-weight="bold" lengthAdjust="spacingAndGlyphs" textLength="97" x="35" y="191.5156">My own label</text><line style="stroke: #A80036; stroke-width: 1.0;" x1="64" x2="291" y1="215.6563" y2="215.6563"/><polygon fill="#A80036" points="285,211.6563,295,215.6563,285,219.6563,289,215.6563" style="stroke: #A80036; stroke-width: 1.0;"/><text fill="#000000" font-size="13" lengthAdjust="spacingAndGlyphs" textLength="101" x="71" y="211.6563">Log attack start</text><rect fill="none" height="46.2813" style="stroke: #000000; stroke-width: 2.0;" width="246.5" x="30" y="230.7969"/><polygon fill="#EEEEEE" points="30,230.7969,107,230.7969,107,237.7969,97,247.7969,30,247.7969,30,230.7969" style="stroke: #000000; stroke-width: 2.0;"/><text fill="#000000" font-size="13" font-weight="bold" lengthAdjust="spacingAndGlyphs" textLength="32" x="45" y="244.7969">loop</text><text fill="#000000" font-size="11" font-weight="bold" lengthAdjust="spacingAndGlyphs" textLength="81" x="122" y="243.7969">[1000 times]</text><line style="stroke: #A80036; stroke-width: 1.0;" x1="64" x2="239" y1="268.9375" y2="268.9375"/><polygon fill="#A80036" points="233,264.9375,243,268.9375,233,272.9375,237,268.9375" style="stroke: #A80036; stroke-width: 1.0;"/><text fill="#000000" font-size="13" lengthAdjust="spacingAndGlyphs" textLength="74" x="71" y="264.9375">DNS Attack</text><line style="stroke: #A80036; stroke-width: 1.0;" x1="64" x2="291" y1="305.0781" y2="305.0781"/><polygon fill="#A80036" points="285,301.0781,295,305.0781,285,309.0781,289,305.0781" style="stroke: #A80036; stroke-width: 1.0;"/><text fill="#000000" font-size="13" lengthAdjust="spacingAndGlyphs" textLength="95" x="71" y="301.0781">Log attack end</text><line style="stroke: #000000; stroke-width: 1.0; stroke-dasharray: 2.0,2.0;" x1="10" x2="337.5" y1="321.2188" y2="321.2188"/><text fill="#000000" font-size="11" font-weight="bold" lengthAdjust="spacingAndGlyphs" textLength="155" x="15" y="332.2188">[Another type of failure]</text><line style="stroke: #A80036; stroke-width: 1.0;" x1="69" x2="244" y1="356.0313" y2="356.0313"/><polygon fill="#A80036" points="76,352.0313,66,356.0313,76,360.0313,72,356.0313" style="stroke: #A80036; stroke-width: 1.0;"/><text fill="#000000" font-size="13" lengthAdjust="spacingAndGlyphs" textLength="88" x="81" y="352.0313">Please repeat</text></g></svg>