<?xml version="1.0" encoding="UTF-8" standalone="yes"?><svg xmlns="http://www.w3.org/2000/svg" xmlns:xlink="http://www.w3.org/1999/xlink" height="272pt" style="width:348px;height:272px;" version="1.1" viewBox="0 0 348 272" width="348pt"><defs><filter height="300%" id="f1" width="300%" x="-1" y="-1"><feGaussianBlur result="blurOut" stdDeviation="2"/><feColorMatrix in="blurOut" result="blurOut2" type="matrix" values="0 0 0 0 0 0 0 0 0 0 0 0 0 0 0 0 0 0 .4 0"/><feOffset dx="4" dy="4" in="blurOut2" result="blurOut3"/><feBlend in="SourceGraphic" in2="blurOut3" mode="normal"/></filter></defs><g><line style="stroke: #A80036; stroke-width: 1.0; stroke-dasharray: 5.0,5.0;" x1="20" x2="20" y1="82.1406" y2="189.5625"/><line style="stroke: #A80036; stroke-width: 1.0; stroke-dasharray: 5.0,5.0;" x1="203.5" x2="203.5" y1="82.1406" y2="189.5625"/><line style="stroke: #A80036; stroke-width: 1.0; stroke-dasharray: 5.0,5.0;" x1="290.5" x2="290.5" y1="82.1406" y2="189.5625"/><text fill="#000000" font-size="13" lengthAdjust="spacingAndGlyphs" textLength="25" x="5" y="80">Bob</text><ellipse cx="20.5" cy="10" fill="#FF0000" filter="url(#f1)" rx="8" ry="8" style="stroke: #A80036; stroke-width: 2.0;"/><path d="M20.5,18 L20.5,45 M7.5,26 L33.5,26 M20.5,45 L7.5,60 M20.5,45 L33.5,60 " fill="#FF0000" filter="url(#f1)" style="stroke: #A80036; stroke-width: 2.0;"/><text fill="#000000" font-size="13" lengthAdjust="spacingAndGlyphs" textLength="25" x="5" y="200.8594">Bob</text><ellipse cx="20.5" cy="213" fill="#FF0000" filter="url(#f1)" rx="8" ry="8" style="stroke: #A80036; stroke-width: 2.0;"/><path d="M20.5,221 L20.5,248 M7.5,229 L33.5,229 M20.5,248 L7.5,263 M20.5,248 L33.5,263 " fill="#FF0000" filter="url(#f1)" style="stroke: #A80036; stroke-width: 2.0;"/><rect fill="#FEFECE" filter="url(#f1)" height="29.1406" style="stroke: #A80036; stroke-width: 1.5;" width="44" x="179.5" y="48"/><text fill="#000000" font-size="13" lengthAdjust="spacingAndGlyphs" textLength="30" x="186.5" y="68">Alice</text><rect fill="#FEFECE" filter="url(#f1)" height="29.1406" style="stroke: #A80036; stroke-width: 1.5;" width="44" x="179.5" y="187.8594"/><text fill="#000000" font-size="13" lengthAdjust="spacingAndGlyphs" textLength="30" x="186.5" y="207.8594">Alice</text><rect fill="#99FF99" filter="url(#f1)" height="44.2813" style="stroke: #A80036; stroke-width: 1.5;" width="102" x="237.5" y="32.8594"/><text fill="#000000" font-size="13" lengthAdjust="spacingAndGlyphs" textLength="88" x="244.5" y="52.8594">I have a really</text><text fill="#000000" font-size="13" lengthAdjust="spacingAndGlyphs" textLength="68" x="254.5" y="68">long name</text><rect fill="#99FF99" filter="url(#f1)" height="44.2813" style="stroke: #A80036; stroke-width: 1.5;" width="102" x="237.5" y="187.8594"/><text fill="#000000" font-size="13" lengthAdjust="spacingAndGlyphs" textLength="88" x="244.5" y="207.8594">I have a really</text><text fill="#000000" font-size="13" lengthAdjust="spacingAndGlyphs" textLength="68" x="254.5" y="223">long name</text><line style="stroke: #A80036; stroke-width: 1.0;" x1="25.5" x2="202.5" y1="113.1406" y2="113.1406"/><polygon fill="#A80036" points="32.5,109.1406,22.5,113.1406,32.5,117.1406,28.5,113.1406" style="stroke: #A80036; stroke-width: 1.0;"/><text fill="#000000" font-size="13" lengthAdjust="spacingAndGlyphs" textLength="149" x="37.5" y="109.1406">Authentication Request</text><line style="stroke: #A80036; stroke-width: 1.0;" x1="20.5" x2="197.5" y1="142.2813" y2="142.2813"/><polygon fill="#A80036" points="191.5,138.2813,201.5,142.2813,191.5,146.2813,195.5,142.2813" style="stroke: #A80036; stroke-width: 1.0;"/><text fill="#000000" font-size="13" lengthAdjust="spacingAndGlyphs" textLength="159" x="27.5" y="138.2813">Authentication Response</text><line style="stroke: #A80036; stroke-width: 1.0;" x1="20.5" x2="284.5" y1="171.4219" y2="171.4219"/><polygon fill="#A80036" points="278.5,167.4219,288.5,171.4219,278.5,175.4219,282.5,171.4219" style="stroke: #A80036; stroke-width: 1.0;"/><text fill="#000000" font-size="13" lengthAdjust="spacingAndGlyphs" textLength="99" x="27.5" y="167.4219">Log transaction</text></g></svg>