<?xml version="1.0" encoding="UTF-8" standalone="yes"?><svg xmlns="http://www.w3.org/2000/svg" xmlns:xlink="http://www.w3.org/1999/xlink" height="150pt" style="width:311px;height:150px;" version="1.1" viewBox="0 0 311 150" width="311pt"><defs><filter height="300%" id="f1" width="300%" x="-1" y="-1"><feGaussianBlur result="blurOut" stdDeviation="2"/><feColorMatrix in="blurOut" result="blurOut2" type="matrix" values="0 0 0 0 0 0 0 0 0 0 0 0 0 0 0 0 0 0 .4 0"/><feOffset dx="4" dy="4" in="blurOut2" result="blurOut3"/><feBlend in="SourceGraphic" in2="blurOut3" mode="normal"/></filter></defs><g><line style="stroke: #A80036; stroke-width: 1.0; stroke-dasharray: 5.0,5.0;" x1="74" x2="74" y1="49.2813" y2="98.4219"/><line style="stroke: #A80036; stroke-width: 1.0; stroke-dasharray: 5.0,5.0;" x1="229" x2="229" y1="49.2813" y2="98.4219"/><rect fill="#FEFECE" filter="url(#f1)" height="44.2813" style="stroke: #A80036; stroke-width: 1.5;" width="134" x="5" y="0"/><text fill="#000000" font-size="13" font-style="italic" lengthAdjust="spacingAndGlyphs" textLength="120" x="12" y="20">&lt;&lt; Generated &gt;&gt;</text><text fill="#000000" font-size="13" lengthAdjust="spacingAndGlyphs" textLength="80" x="32" y="35.1406">Famous Bob</text><rect fill="#FEFECE" filter="url(#f1)" height="44.2813" style="stroke: #A80036; stroke-width: 1.5;" width="134" x="5" y="96.7188"/><text fill="#000000" font-size="13" font-style="italic" lengthAdjust="spacingAndGlyphs" textLength="120" x="12" y="116.7188">&lt;&lt; Generated &gt;&gt;</text><text fill="#000000" font-size="13" lengthAdjust="spacingAndGlyphs" textLength="80" x="32" y="131.8594">Famous Bob</text><rect fill="#FEFECE" filter="url(#f1)" height="44.2813" style="stroke: #A80036; stroke-width: 1.5;" width="149" x="153" y="0"/><ellipse cx="171" cy="18" fill="#ADD1B2" rx="11" ry="11" style="stroke: #A80036; stroke-width: 1.0;"/><path d="M173.9688,23.6406 Q173.3906,23.9375 172.75,24.0859 Q172.1094,24.2344 171.4063,24.2344 Q168.9063,24.2344 167.5859,22.5859 Q166.2656,20.9375 166.2656,17.8125 Q166.2656,14.6875 167.5859,13.0313 Q168.9063,11.375 171.4063,11.375 Q172.1094,11.375 172.7578,11.5313 Q173.4063,11.6875 173.9688,11.9844 L173.9688,14.7031 Q173.3438,14.125 172.75,13.8516 Q172.1563,13.5781 171.5313,13.5781 Q170.1875,13.5781 169.5,14.6484 Q168.8125,15.7188 168.8125,17.8125 Q168.8125,19.9063 169.5,20.9766 Q170.1875,22.0469 171.5313,22.0469 Q172.1563,22.0469 172.75,21.7734 Q173.3438,21.5 173.9688,20.9219 L173.9688,23.6406 Z "/><text fill="#000000" font-size="13" font-style="italic" lengthAdjust="spacingAndGlyphs" textLength="107" x="188" y="20">&lt;&lt; Testable &gt;&gt;</text><text fill="#000000" font-size="13" lengthAdjust="spacingAndGlyphs" textLength="30" x="226.5" y="35.1406">Alice</text><rect fill="#FEFECE" filter="url(#f1)" height="44.2813" style="stroke: #A80036; stroke-width: 1.5;" width="149" x="153" y="96.7188"/><ellipse cx="171" cy="114.7188" fill="#ADD1B2" rx="11" ry="11" style="stroke: #A80036; stroke-width: 1.0;"/><path d="M173.9688,120.3594 Q173.3906,120.6563 172.75,120.8047 Q172.1094,120.9531 171.4063,120.9531 Q168.9063,120.9531 167.5859,119.3047 Q166.2656,117.6563 166.2656,114.5313 Q166.2656,111.4063 167.5859,109.75 Q168.9063,108.0938 171.4063,108.0938 Q172.1094,108.0938 172.7578,108.25 Q173.4063,108.4063 173.9688,108.7031 L173.9688,111.4219 Q173.3438,110.8438 172.75,110.5703 Q172.1563,110.2969 171.5313,110.2969 Q170.1875,110.2969 169.5,111.3672 Q168.8125,112.4375 168.8125,114.5313 Q168.8125,116.625 169.5,117.6953 Q170.1875,118.7656 171.5313,118.7656 Q172.1563,118.7656 172.75,118.4922 Q173.3438,118.2188 173.9688,117.6406 L173.9688,120.3594 Z "/><text fill="#000000" font-size="13" font-style="italic" lengthAdjust="spacingAndGlyphs" textLength="107" x="188" y="116.7188">&lt;&lt; Testable &gt;&gt;</text><text fill="#000000" font-size="13" lengthAdjust="spacingAndGlyphs" textLength="30" x="226.5" y="131.8594">Alice</text><line style="stroke: #A80036; stroke-width: 1.0;" x1="74" x2="223.5" y1="80.2813" y2="80.2813"/><polygon fill="#A80036" points="217.5,76.2813,227.5,80.2813,217.5,84.2813,221.5,80.2813" style="stroke: #A80036; stroke-width: 1.0;"/><text fill="#000000" font-size="13" lengthAdjust="spacingAndGlyphs" textLength="90" x="81" y="76.2813">First message</text></g></svg>