<?xml version="1.0" encoding="UTF-8" standalone="yes"?><svg xmlns="http://www.w3.org/2000/svg" xmlns:xlink="http://www.w3.org/1999/xlink" height="170pt" style="width:186px;height:170px;" version="1.1" viewBox="0 0 186 170" width="186pt"><defs><filter height="300%" id="f1" width="300%" x="-1" y="-1"><feGaussianBlur result="blurOut" stdDeviation="2"/><feColorMatrix in="blurOut" result="blurOut2" type="matrix" values="0 0 0 0 0 0 0 0 0 0 0 0 0 0 0 0 0 0 .4 0"/><feOffset dx="4" dy="4" in="blurOut2" result="blurOut3"/><feBlend in="SourceGraphic" in2="blurOut3" mode="normal"/></filter></defs><g><rect fill="#ADD8E6" height="168" style="stroke: #A80036; stroke-width: 1.0;" width="120" x="1" y="1"/><text fill="#000000" font-size="13" font-weight="bold" lengthAdjust="spacingAndGlyphs" textLength="114" x="4" y="14">Internal Service</text><line style="stroke: #A80036; stroke-width: 1.0; stroke-dasharray: 5.0,5.0;" x1="31.5" x2="31.5" y1="54.2813" y2="132.5625"/><line style="stroke: #A80036; stroke-width: 1.0; stroke-dasharray: 5.0,5.0;" x1="87.5" x2="87.5" y1="54.2813" y2="132.5625"/><line style="stroke: #A80036; stroke-width: 1.0; stroke-dasharray: 5.0,5.0;" x1="154" x2="154" y1="54.2813" y2="132.5625"/><rect fill="#FEFECE" filter="url(#f1)" height="29.1406" style="stroke: #A80036; stroke-width: 1.5;" width="39" x="10.5" y="20.1406"/><text fill="#000000" font-size="13" lengthAdjust="spacingAndGlyphs" textLength="25" x="17.5" y="40.1406">Bob</text><rect fill="#FEFECE" filter="url(#f1)" height="29.1406" style="stroke: #A80036; stroke-width: 1.5;" width="39" x="10.5" y="130.8594"/><text fill="#000000" font-size="13" lengthAdjust="spacingAndGlyphs" textLength="25" x="17.5" y="150.8594">Bob</text><rect fill="#FEFECE" filter="url(#f1)" height="29.1406" style="stroke: #A80036; stroke-width: 1.5;" width="44" x="63.5" y="20.1406"/><text fill="#000000" font-size="13" lengthAdjust="spacingAndGlyphs" textLength="30" x="70.5" y="40.1406">Alice</text><rect fill="#FEFECE" filter="url(#f1)" height="29.1406" style="stroke: #A80036; stroke-width: 1.5;" width="44" x="63.5" y="130.8594"/><text fill="#000000" font-size="13" lengthAdjust="spacingAndGlyphs" textLength="30" x="70.5" y="150.8594">Alice</text><rect fill="#FEFECE" filter="url(#f1)" height="29.1406" style="stroke: #A80036; stroke-width: 1.5;" width="50" x="127" y="20.1406"/><text fill="#000000" font-size="13" lengthAdjust="spacingAndGlyphs" textLength="36" x="134" y="40.1406">Other</text><rect fill="#FEFECE" filter="url(#f1)" height="29.1406" style="stroke: #A80036; stroke-width: 1.5;" width="50" x="127" y="130.8594"/><text fill="#000000" font-size="13" lengthAdjust="spacingAndGlyphs" textLength="36" x="134" y="150.8594">Other</text><line style="stroke: #A80036; stroke-width: 1.0;" x1="32" x2="81.5" y1="85.2813" y2="85.2813"/><polygon fill="#A80036" points="75.5,81.2813,85.5,85.2813,75.5,89.2813,79.5,85.2813" style="stroke: #A80036; stroke-width: 1.0;"/><text fill="#000000" font-size="13" lengthAdjust="spacingAndGlyphs" textLength="30" x="39" y="81.2813">hello</text><line style="stroke: #A80036; stroke-width: 1.0;" x1="87.5" x2="148" y1="114.4219" y2="114.4219"/><polygon fill="#A80036" points="142,110.4219,152,114.4219,142,118.4219,146,114.4219" style="stroke: #A80036; stroke-width: 1.0;"/><text fill="#000000" font-size="13" lengthAdjust="spacingAndGlyphs" textLength="30" x="94.5" y="110.4219">hello</text></g></svg>