<?xml version="1.0" encoding="UTF-8" standalone="yes"?><svg xmlns="http://www.w3.org/2000/svg" xmlns:xlink="http://www.w3.org/1999/xlink" height="189pt" style="width:111px;height:189px;" version="1.1" viewBox="0 0 111 189" width="111pt"><defs><filter height="300%" id="f1" width="300%" x="-1" y="-1"><feGaussianBlur result="blurOut" stdDeviation="2"/><feColorMatrix in="blurOut" result="blurOut2" type="matrix" values="0 0 0 0 0 0 0 0 0 0 0 0 0 0 0 0 0 0 .4 0"/><feOffset dx="4" dy="4" in="blurOut2" result="blurOut3"/><feBlend in="SourceGraphic" in2="blurOut3" mode="normal"/></filter></defs><g><line style="stroke: #A80036; stroke-width: 1.0; stroke-dasharray: 5.0,5.0;" x1="26" x2="26" y1="34.1406" y2="152.1406"/><line style="stroke: #A80036; stroke-width: 1.0; stroke-dasharray: 5.0,5.0;" x1="82" x2="82" y1="34.1406" y2="152.1406"/><rect fill="#FEFECE" filter="url(#f1)" height="29.1406" style="stroke: #A80036; stroke-width: 1.5;" width="39" x="5" y="0"/><text fill="#000000" font-size="13" lengthAdjust="spacingAndGlyphs" textLength="25" x="12" y="20">Bob</text><rect fill="#FEFECE" filter="url(#f1)" height="29.1406" style="stroke: #A80036; stroke-width: 1.5;" width="39" x="5" y="150.8594"/><text fill="#000000" font-size="13" lengthAdjust="spacingAndGlyphs" textLength="25" x="12" y="170.8594">Bob</text><rect fill="#FEFECE" filter="url(#f1)" height="29.1406" style="stroke: #A80036; stroke-width: 1.5;" width="44" x="58" y="0"/><text fill="#000000" font-size="13" lengthAdjust="spacingAndGlyphs" textLength="30" x="65" y="20">Alice</text><rect fill="#FEFECE" filter="url(#f1)" height="29.1406" style="stroke: #A80036; stroke-width: 1.5;" width="44" x="58" y="150.8594"/><text fill="#000000" font-size="13" lengthAdjust="spacingAndGlyphs" textLength="30" x="65" y="170.8594">Alice</text><line style="stroke: #A80036; stroke-width: 1.0;" x1="26.5" x2="76" y1="50.1406" y2="50.1406"/><polygon fill="#A80036" points="70,46.1406,80,50.1406,70,54.1406,74,50.1406" style="stroke: #A80036; stroke-width: 1.0;"/><line style="stroke: #A80036; stroke-width: 1.0;" x1="26.5" x2="81" y1="64.1406" y2="64.1406"/><line style="stroke: #A80036; stroke-width: 1.0;" x1="80" x2="70" y1="64.1406" y2="60.1406"/><line style="stroke: #A80036; stroke-width: 1.0;" x1="80" x2="70" y1="64.1406" y2="68.1406"/><line style="stroke: #A80036; stroke-width: 1.0;" x1="26.5" x2="81" y1="78.1406" y2="78.1406"/><polygon fill="#A80036" points="70,74.1406,80,78.1406,70,78.1406" style="stroke: #A80036; stroke-width: 1.0;"/><line style="stroke: #A80036; stroke-width: 1.0;" x1="26.5" x2="81" y1="92.1406" y2="92.1406"/><line style="stroke: #A80036; stroke-width: 1.0;" x1="27.5" x2="37.5" y1="92.1406" y2="96.1406"/><line style="stroke: #A80036; stroke-width: 1.0; stroke-dasharray: 2.0,2.0;" x1="26.5" x2="81" y1="106.1406" y2="106.1406"/><line style="stroke: #A80036; stroke-width: 1.0;" x1="27.5" x2="37.5" y1="106.1406" y2="102.1406"/><line style="stroke: #A80036; stroke-width: 1.0;" x1="26.5" x2="72" y1="120.1406" y2="120.1406"/><polygon fill="#A80036" points="64.5,116.1406,74.5,120.1406,64.5,124.1406,68.5,120.1406" style="stroke: #A80036; stroke-width: 1.0;"/><ellipse cx="81.5" cy="119.3906" fill="none" rx="4" ry="4" style="stroke: #A80036; stroke-width: 1.5;"/><line style="stroke: #A80036; stroke-width: 1.0; stroke-dasharray: 2.0,2.0;" x1="30.5" x2="81" y1="134.1406" y2="134.1406"/><line style="stroke: #A80036; stroke-width: 1.0;" x1="33" x2="43" y1="134.1406" y2="138.1406"/><ellipse cx="26" cy="133.3906" fill="none" rx="4" ry="4" style="stroke: #A80036; stroke-width: 1.5;"/></g></svg>