<?xml version="1.0" encoding="UTF-8" standalone="yes"?><svg xmlns="http://www.w3.org/2000/svg" xmlns:xlink="http://www.w3.org/1999/xlink" height="294pt" style="width:296px;height:294px;" version="1.1" viewBox="0 0 296 294" width="296pt"><defs><filter height="300%" id="f1" width="300%" x="-1" y="-1"><feGaussianBlur result="blurOut" stdDeviation="2"/><feColorMatrix in="blurOut" result="blurOut2" type="matrix" values="0 0 0 0 0 0 0 0 0 0 0 0 0 0 0 0 0 0 .4 0"/><feOffset dx="4" dy="4" in="blurOut2" result="blurOut3"/><feBlend in="SourceGraphic" in2="blurOut3" mode="normal"/></filter></defs><g><line style="stroke: #A80036; stroke-width: 1.0; stroke-dasharray: 5.0,5.0;" x1="29" x2="29" y1="34.1406" y2="256.9844"/><line style="stroke: #A80036; stroke-width: 1.0; stroke-dasharray: 5.0,5.0;" x1="264.5" x2="264.5" y1="34.1406" y2="256.9844"/><rect fill="#FEFECE" filter="url(#f1)" height="29.1406" style="stroke: #A80036; stroke-width: 1.5;" width="44" x="5" y="0"/><text fill="#000000" font-size="13" lengthAdjust="spacingAndGlyphs" textLength="30" x="12" y="20">Alice</text><rect fill="#FEFECE" filter="url(#f1)" height="29.1406" style="stroke: #A80036; stroke-width: 1.5;" width="44" x="5" y="255.8594"/><text fill="#000000" font-size="13" lengthAdjust="spacingAndGlyphs" textLength="30" x="12" y="275.8594">Alice</text><rect fill="#FEFECE" filter="url(#f1)" height="29.1406" style="stroke: #A80036; stroke-width: 1.5;" width="39" x="243.5" y="0"/><text fill="#000000" font-size="13" lengthAdjust="spacingAndGlyphs" textLength="25" x="250.5" y="20">Bob</text><rect fill="#FEFECE" filter="url(#f1)" height="29.1406" style="stroke: #A80036; stroke-width: 1.5;" width="39" x="243.5" y="255.8594"/><text fill="#000000" font-size="13" lengthAdjust="spacingAndGlyphs" textLength="25" x="250.5" y="275.8594">Bob</text><rect fill="#EEEEEE" filter="url(#f1)" height="3" style="stroke: #EEEEEE; stroke-width: 1.0;" width="291" x="0" y="64.7109"/><line style="stroke: #000000; stroke-width: 1.0;" x1="0" x2="291" y1="64.7109" y2="64.7109"/><line style="stroke: #000000; stroke-width: 1.0;" x1="0" x2="291" y1="67.7109" y2="67.7109"/><rect fill="#EEEEEE" filter="url(#f1)" height="23.1406" style="stroke: #000000; stroke-width: 2.0;" width="108" x="91.75" y="54.1406"/><text fill="#000000" font-size="13" font-weight="bold" lengthAdjust="spacingAndGlyphs" textLength="89" x="97.75" y="71.1406">Initialisation</text><line style="stroke: #A80036; stroke-width: 1.0;" x1="29" x2="259" y1="108.2813" y2="108.2813"/><polygon fill="#A80036" points="253,104.2813,263,108.2813,253,112.2813,257,108.2813" style="stroke: #A80036; stroke-width: 1.0;"/><text fill="#000000" font-size="13" lengthAdjust="spacingAndGlyphs" textLength="149" x="36" y="104.2813">Authentication Request</text><line style="stroke: #A80036; stroke-width: 1.0; stroke-dasharray: 2.0,2.0;" x1="34" x2="264" y1="137.4219" y2="137.4219"/><polygon fill="#A80036" points="41,133.4219,31,137.4219,41,141.4219,37,137.4219" style="stroke: #A80036; stroke-width: 1.0;"/><text fill="#000000" font-size="13" lengthAdjust="spacingAndGlyphs" textLength="159" x="46" y="133.4219">Authentication Response</text><rect fill="#EEEEEE" filter="url(#f1)" height="3" style="stroke: #EEEEEE; stroke-width: 1.0;" width="291" x="0" y="166.1328"/><line style="stroke: #000000; stroke-width: 1.0;" x1="0" x2="291" y1="166.1328" y2="166.1328"/><line style="stroke: #000000; stroke-width: 1.0;" x1="0" x2="291" y1="169.1328" y2="169.1328"/><rect fill="#EEEEEE" filter="url(#f1)" height="23.1406" style="stroke: #000000; stroke-width: 2.0;" width="95" x="98.25" y="155.5625"/><text fill="#000000" font-size="13" font-weight="bold" lengthAdjust="spacingAndGlyphs" textLength="76" x="104.25" y="172.5625">Repetition</text><line style="stroke: #A80036; stroke-width: 1.0;" x1="29" x2="259" y1="209.7031" y2="209.7031"/><polygon fill="#A80036" points="253,205.7031,263,209.7031,253,213.7031,257,209.7031" style="stroke: #A80036; stroke-width: 1.0;"/><text fill="#000000" font-size="13" lengthAdjust="spacingAndGlyphs" textLength="203" x="36" y="205.7031">Another authentication Request</text><line style="stroke: #A80036; stroke-width: 1.0; stroke-dasharray: 2.0,2.0;" x1="34" x2="264" y1="238.8438" y2="238.8438"/><polygon fill="#A80036" points="41,234.8438,31,238.8438,41,242.8438,37,238.8438" style="stroke: #A80036; stroke-width: 1.0;"/><text fill="#000000" font-size="13" lengthAdjust="spacingAndGlyphs" textLength="212" x="46" y="234.8438">another authentication Response</text></g></svg>