<?xml version="1.0" encoding="UTF-8" standalone="yes"?><svg xmlns="http://www.w3.org/2000/svg" xmlns:xlink="http://www.w3.org/1999/xlink" height="301pt" style="width:518px;height:301px;" version="1.1" viewBox="0 0 518 301" width="518pt"><defs><filter height="300%" id="f1" width="300%" x="-1" y="-1"><feGaussianBlur result="blurOut" stdDeviation="2"/><feColorMatrix in="blurOut" result="blurOut2" type="matrix" values="0 0 0 0 0 0 0 0 0 0 0 0 0 0 0 0 0 0 .4 0"/><feOffset dx="4" dy="4" in="blurOut2" result="blurOut3"/><feBlend in="SourceGraphic" in2="blurOut3" mode="normal"/></filter></defs><g><ellipse cx="292.25" cy="18.5" fill="#FEFECE" filter="url(#f1)" rx="8" ry="8" style="stroke: #A80036; stroke-width: 2.0;"/><path d="M292.25,26.5 L292.25,53.5 M279.25,34.5 L305.25,34.5 M292.25,53.5 L279.25,68.5 M292.25,53.5 L305.25,68.5 " fill="#FEFECE" filter="url(#f1)" style="stroke: #A80036; stroke-width: 2.0;"/><text fill="#000000" font-size="14" lengthAdjust="spacingAndGlyphs" textLength="79" x="252.75" y="89.5">Main Admin</text><ellipse cx="157" cy="272.1484" fill="#FEFECE" filter="url(#f1)" rx="76" ry="18.1484" style="stroke: #A80036; stroke-width: 1.5;"/><text fill="#000000" font-size="14" lengthAdjust="spacingAndGlyphs" textLength="132" x="91" y="278">Use the application</text><ellipse cx="22" cy="18.5" fill="#FEFECE" filter="url(#f1)" rx="8" ry="8" style="stroke: #A80036; stroke-width: 2.0;"/><path d="M22,26.5 L22,53.5 M9,34.5 L35,34.5 M22,53.5 L9,68.5 M22,53.5 L35,68.5 " fill="#FEFECE" filter="url(#f1)" style="stroke: #A80036; stroke-width: 2.0;"/><text fill="#000000" font-size="14" lengthAdjust="spacingAndGlyphs" textLength="32" x="6" y="89.5">User</text><ellipse cx="157" cy="50.1484" fill="#FEFECE" filter="url(#f1)" rx="26" ry="18.1484" style="stroke: #A80036; stroke-width: 1.5;"/><text fill="#000000" font-size="14" lengthAdjust="spacingAndGlyphs" textLength="32" x="141" y="56">Start</text><polygon fill="#FBFB77" filter="url(#f1)" points="366.75,37.5,366.75,62.6406,509.75,62.6406,509.75,47.5,499.75,37.5,366.75,37.5" style="stroke: #A80036; stroke-width: 1.0;"/><polygon fill="#FBFB77" points="366.75,37.5,366.75,46,331.352,50,366.75,54,366.75,62.6406,509.75,62.6406,509.75,47.5,499.75,37.5,366.75,37.5" style="stroke: #A80036; stroke-width: 1.0;"/><line style="stroke: #A80036; stroke-width: 1.0;" x1="499.75" x2="499.75" y1="37.5" y2="47.5"/><line style="stroke: #A80036; stroke-width: 1.0;" x1="509.75" x2="499.75" y1="47.5" y2="47.5"/><text fill="#000000" font-size="13" lengthAdjust="spacingAndGlyphs" textLength="122" x="372.75" y="55.5">This is an example.</text><polygon fill="#FBFB77" filter="url(#f1)" points="268,252,268,292.2813,408,292.2813,408,262,398,252,268,252" style="stroke: #A80036; stroke-width: 1.0;"/><polygon fill="#FBFB77" points="268,252,268,268,233.006,272,268,276,268,292.2813,408,292.2813,408,262,398,252,268,252" style="stroke: #A80036; stroke-width: 1.0;"/><line style="stroke: #A80036; stroke-width: 1.0;" x1="398" x2="398" y1="252" y2="262"/><line style="stroke: #A80036; stroke-width: 1.0;" x1="408" x2="398" y1="262" y2="262"/><text fill="#000000" font-size="13" lengthAdjust="spacingAndGlyphs" textLength="99" x="274" y="270">A note can also</text><text fill="#000000" font-size="13" lengthAdjust="spacingAndGlyphs" textLength="119" x="274" y="285.1406">be on several lines</text><polygon fill="#FBFB77" filter="url(#f1)" points="75,152,75,192.2813,239,192.2813,239,162,229,152,75,152" style="stroke: #A80036; stroke-width: 1.0;"/><line style="stroke: #A80036; stroke-width: 1.0;" x1="229" x2="229" y1="152" y2="162"/><line style="stroke: #A80036; stroke-width: 1.0;" x1="239" x2="229" y1="162" y2="162"/><text fill="#000000" font-size="13" lengthAdjust="spacingAndGlyphs" textLength="143" x="81" y="170">This note is connected</text><text fill="#000000" font-size="13" lengthAdjust="spacingAndGlyphs" textLength="117" x="81" y="185.1406">to several objects.</text><path d="M38.084,50 C67.3582,50 96.6323,50 125.906,50 " fill="none" style="stroke: #A80036; stroke-width: 1.0;"/><polygon fill="#A80036" points="130.987,50,121.987,46,125.987,50,121.987,54,130.987,50" style="stroke: #A80036; stroke-width: 1.0;"/><path d="M25.0528,91.759 C28.8836,121.527 37.5218,161.794 57,192 C73.5244,217.6252 101.2375,238.5549 123.304,252.4184 " fill="none" style="stroke: #A80036; stroke-width: 1.0;"/><polygon fill="#A80036" points="127.637,255.0962,122.0838,246.9622,123.3837,252.4677,117.8782,253.7675,127.637,255.0962" style="stroke: #A80036; stroke-width: 1.0;"/><path d="M288.567,91.74 C284.479,121.498 275.538,161.761 256,192 C239.443,217.6263 211.751,238.6807 189.859,252.5913 " fill="none" style="stroke: #A80036; stroke-width: 1.0;"/><polygon fill="#A80036" points="185.563,255.2774,195.3149,253.899,189.8029,252.6272,191.0746,247.1152,185.563,255.2774" style="stroke: #A80036; stroke-width: 1.0;"/><path d="M157,68.193 C157,90.357 157,128.782 157,151.855 " fill="none" style="stroke: #A80036; stroke-width: 1.0; stroke-dasharray: 7.0,7.0;"/><path d="M157,192.3616 C157,210.3233 157,236.7959 157,253.9699 " fill="none" style="stroke: #A80036; stroke-width: 1.0; stroke-dasharray: 7.0,7.0;"/></g></svg>