<?xml version="1.0" encoding="UTF-8" standalone="yes"?><svg xmlns="http://www.w3.org/2000/svg" xmlns:xlink="http://www.w3.org/1999/xlink" height="359pt" style="width:306px;height:359px;" version="1.1" viewBox="0 0 306 359" width="306pt"><defs><filter height="300%" id="f1" width="300%" x="-1" y="-1"><feGaussianBlur result="blurOut" stdDeviation="2"/><feColorMatrix in="blurOut" result="blurOut2" type="matrix" values="0 0 0 0 0 0 0 0 0 0 0 0 0 0 0 0 0 0 .4 0"/><feOffset dx="4" dy="4" in="blurOut2" result="blurOut3"/><feBlend in="SourceGraphic" in2="blurOut3" mode="normal"/></filter></defs><g><ellipse cx="22" cy="164.5" fill="#FEFECE" filter="url(#f1)" rx="8" ry="8" style="stroke: #A80036; stroke-width: 2.0;"/><path d="M22,172.5 L22,199.5 M9,180.5 L35,180.5 M22,199.5 L9,214.5 M22,199.5 L35,214.5 " fill="#FEFECE" filter="url(#f1)" style="stroke: #A80036; stroke-width: 2.0;"/><text fill="#000000" font-size="14" lengthAdjust="spacingAndGlyphs" textLength="32" x="6" y="235.5">User</text><ellipse cx="134" cy="196.1484" fill="#FEFECE" filter="url(#f1)" rx="26" ry="18.1484" style="stroke: #A80036; stroke-width: 1.5;"/><text fill="#000000" font-size="14" lengthAdjust="spacingAndGlyphs" textLength="32" x="118" y="202">Start</text><ellipse cx="151" cy="334.1484" fill="#FEFECE" filter="url(#f1)" rx="76" ry="18.1484" style="stroke: #A80036; stroke-width: 1.5;"/><text fill="#000000" font-size="14" lengthAdjust="spacingAndGlyphs" textLength="132" x="85" y="340">Use the application</text><ellipse cx="230.25" cy="18.5" fill="#FEFECE" filter="url(#f1)" rx="8" ry="8" style="stroke: #A80036; stroke-width: 2.0;"/><path d="M230.25,26.5 L230.25,53.5 M217.25,34.5 L243.25,34.5 M230.25,53.5 L217.25,68.5 M230.25,53.5 L243.25,68.5 " fill="#FEFECE" filter="url(#f1)" style="stroke: #A80036; stroke-width: 2.0;"/><text fill="#000000" font-size="14" lengthAdjust="spacingAndGlyphs" textLength="79" x="190.75" y="89.5">Main Admin</text><path d="M38.1875,196 C59.6699,196 81.1522,196 102.6346,196 " fill="none" style="stroke: #A80036; stroke-width: 1.0;"/><polygon fill="#A80036" points="107.801,196,98.801,192,102.801,196,98.801,200,107.801,196" style="stroke: #A80036; stroke-width: 1.0;"/><path d="M38.0771,213.95 C61.7669,238.925 105.9942,285.5521 131.502,312.4445 " fill="none" style="stroke: #A80036; stroke-width: 1.0;"/><polygon fill="#A80036" points="135.126,316.2641,131.8337,306.9818,131.6848,312.6367,126.0299,312.4878,135.126,316.2641" style="stroke: #A80036; stroke-width: 1.0;"/><text fill="#000000" font-size="13" lengthAdjust="spacingAndGlyphs" textLength="81" x="107" y="282">A small label</text><path d="M232.121,91.512 C233.006,140.237 229.098,223.29 198,286 C192.977,296.1282 184.916,305.3877 176.877,312.9601 " fill="none" style="stroke: #A80036; stroke-width: 1.0;"/><polygon fill="#A80036" points="172.945,316.5384,182.2932,313.4384,176.6426,313.1728,176.9082,307.5221,172.945,316.5384" style="stroke: #A80036; stroke-width: 1.0;"/><text fill="#000000" font-size="13" lengthAdjust="spacingAndGlyphs" textLength="39" x="248.5" y="186">This is</text><text fill="#000000" font-size="13" lengthAdjust="spacingAndGlyphs" textLength="74" x="231" y="201.1406">yet another</text><text fill="#000000" font-size="13" lengthAdjust="spacingAndGlyphs" textLength="30" x="253" y="216.2813">label</text></g></svg>