<?xml version="1.0" encoding="UTF-8" standalone="yes"?><svg xmlns="http://www.w3.org/2000/svg" xmlns:xlink="http://www.w3.org/1999/xlink" height="331pt" style="width:325px;height:331px;" version="1.1" viewBox="0 0 325 331" width="325pt"><defs><filter height="300%" id="f1" width="300%" x="-1" y="-1"><feGaussianBlur result="blurOut" stdDeviation="2"/><feColorMatrix in="blurOut" result="blurOut2" type="matrix" values="0 0 0 0 0 0 0 0 0 0 0 0 0 0 0 0 0 0 .4 0"/><feOffset dx="4" dy="4" in="blurOut2" result="blurOut3"/><feBlend in="SourceGraphic" in2="blurOut3" mode="normal"/></filter></defs><g><rect fill="#FFFFFF" filter="url(#f1)" height="300" style="stroke: #000000; stroke-width: 2.0;" width="118" x="120" y="24"/><text fill="#000000" font-size="14" font-weight="bold" lengthAdjust="spacingAndGlyphs" textLength="73" x="142.5" y="43">checkout</text><ellipse cx="179" cy="184.1484" fill="#FEFECE" filter="url(#f1)" rx="42.5" ry="18.1484" style="stroke: #A80036; stroke-width: 1.5;"/><text fill="#000000" font-size="14" lengthAdjust="spacingAndGlyphs" textLength="65" x="146.5" y="190">checkout</text><ellipse cx="179" cy="78.1484" fill="#FEFECE" filter="url(#f1)" rx="40" ry="18.1484" style="stroke: #A80036; stroke-width: 1.5;"/><text fill="#000000" font-size="14" lengthAdjust="spacingAndGlyphs" textLength="60" x="149" y="84">payment</text><ellipse cx="179" cy="290.1484" fill="#FEFECE" filter="url(#f1)" rx="25" ry="18.1484" style="stroke: #A80036; stroke-width: 1.5;"/><text fill="#000000" font-size="14" lengthAdjust="spacingAndGlyphs" textLength="30" x="164" y="296">help</text><ellipse cx="39" cy="152.5" fill="#FEFECE" filter="url(#f1)" rx="8" ry="8" style="stroke: #A80036; stroke-width: 2.0;"/><path d="M39,160.5 L39,187.5 M26,168.5 L52,168.5 M39,187.5 L26,202.5 M39,187.5 L52,202.5 " fill="#FEFECE" filter="url(#f1)" style="stroke: #A80036; stroke-width: 2.0;"/><text fill="#000000" font-size="14" lengthAdjust="spacingAndGlyphs" textLength="66" x="6" y="223.5">customer</text><ellipse cx="303" cy="152.5" fill="#FEFECE" filter="url(#f1)" rx="8" ry="8" style="stroke: #A80036; stroke-width: 2.0;"/><path d="M303,160.5 L303,187.5 M290,168.5 L316,168.5 M303,187.5 L290,202.5 M303,187.5 L316,202.5 " fill="#FEFECE" filter="url(#f1)" style="stroke: #A80036; stroke-width: 2.0;"/><text fill="#000000" font-size="14" lengthAdjust="spacingAndGlyphs" textLength="33" x="286.5" y="223.5">clerk</text><path d="M72.0068,184 C91.1958,184 115.804,184 136.479,184 " fill="none" style="stroke: #A80036; stroke-width: 1.0;"/><path d="M179,165.536 C179,147.753 179,120.78 179,101.479 " fill="none" style="stroke: #A80036; stroke-width: 1.0; stroke-dasharray: 7.0,7.0;"/><polygon fill="#A80036" points="179,96.252,175,105.252,179,101.252,183,105.252,179,96.252" style="stroke: #A80036; stroke-width: 1.0;"/><text fill="#000000" font-size="13" lengthAdjust="spacingAndGlyphs" textLength="22" x="155.5" y="136">&lt;&gt;</text><path d="M179,271.5362 C179,253.7526 179,226.78 179,207.479 " fill="none" style="stroke: #A80036; stroke-width: 1.0; stroke-dasharray: 7.0,7.0;"/><polygon fill="#A80036" points="179,202.252,175,211.252,179,207.252,183,211.252,179,202.252" style="stroke: #A80036; stroke-width: 1.0;"/><text fill="#000000" font-size="13" lengthAdjust="spacingAndGlyphs" textLength="22" x="155.5" y="242">&lt;&gt;</text><path d="M221.644,184 C243.871,184 269.923,184 286.198,184 " fill="none" style="stroke: #A80036; stroke-width: 1.0;"/></g></svg>