<?xml version="1.0" encoding="UTF-8" standalone="yes"?><svg xmlns="http://www.w3.org/2000/svg" xmlns:xlink="http://www.w3.org/1999/xlink" height="195pt" style="width:233px;height:195px;" version="1.1" viewBox="0 0 233 195" width="233pt"><defs><filter height="300%" id="f1" width="300%" x="-1" y="-1"><feGaussianBlur result="blurOut" stdDeviation="2"/><feColorMatrix in="blurOut" result="blurOut2" type="matrix" values="0 0 0 0 0 0 0 0 0 0 0 0 0 0 0 0 0 0 .4 0"/><feOffset dx="4" dy="4" in="blurOut2" result="blurOut3"/><feBlend in="SourceGraphic" in2="blurOut3" mode="normal"/></filter></defs><g><ellipse cx="52" cy="18.5" fill="#FEFECE" filter="url(#f1)" rx="8" ry="8" style="stroke: #A80036; stroke-width: 2.0;"/><path d="M52,26.5 L52,53.5 M39,34.5 L65,34.5 M52,53.5 L39,68.5 M52,53.5 L65,68.5 " fill="#FEFECE" filter="url(#f1)" style="stroke: #A80036; stroke-width: 2.0;"/><text fill="#000000" font-size="14" lengthAdjust="spacingAndGlyphs" textLength="40" x="32" y="89.5">user1</text><ellipse cx="52.25" cy="170.1484" fill="#FEFECE" filter="url(#f1)" rx="46.5" ry="18.1484" style="stroke: #A80036; stroke-width: 1.5;"/><text fill="#000000" font-size="14" lengthAdjust="spacingAndGlyphs" textLength="73" x="15.75" y="176">Usecase 1</text><ellipse cx="180" cy="18.5" fill="#FEFECE" filter="url(#f1)" rx="8" ry="8" style="stroke: #A80036; stroke-width: 2.0;"/><path d="M180,26.5 L180,53.5 M167,34.5 L193,34.5 M180,53.5 L167,68.5 M180,53.5 L193,68.5 " fill="#FEFECE" filter="url(#f1)" style="stroke: #A80036; stroke-width: 2.0;"/><text fill="#000000" font-size="14" lengthAdjust="spacingAndGlyphs" textLength="40" x="160" y="89.5">user2</text><ellipse cx="180.25" cy="170.1484" fill="#FEFECE" filter="url(#f1)" rx="46.5" ry="18.1484" style="stroke: #A80036; stroke-width: 1.5;"/><text fill="#000000" font-size="14" lengthAdjust="spacingAndGlyphs" textLength="73" x="143.75" y="176">Usecase 2</text><path d="M52,91.6089 C52,110.0567 52,131.1699 52,146.6788 " fill="none" style="stroke: #A80036; stroke-width: 1.0;"/><polygon fill="#A80036" points="52,151.7115,56,142.7115,52,146.7115,48,142.7115,52,151.7115" style="stroke: #A80036; stroke-width: 1.0;"/><path d="M180,91.6089 C180,110.0567 180,131.1699 180,146.6788 " fill="none" style="stroke: #A80036; stroke-width: 1.0;"/><polygon fill="#A80036" points="180,151.7115,184,142.7115,180,146.7115,176,142.7115,180,151.7115" style="stroke: #A80036; stroke-width: 1.0;"/></g></svg>