<?xml version="1.0" encoding="UTF-8" standalone="yes"?><svg xmlns="http://www.w3.org/2000/svg" xmlns:xlink="http://www.w3.org/1999/xlink" height="106pt" style="width:342px;height:106px;" version="1.1" viewBox="0 0 342 106" width="342pt"><defs><filter height="300%" id="f1" width="300%" x="-1" y="-1"><feGaussianBlur result="blurOut" stdDeviation="2"/><feColorMatrix in="blurOut" result="blurOut2" type="matrix" values="0 0 0 0 0 0 0 0 0 0 0 0 0 0 0 0 0 0 .4 0"/><feOffset dx="4" dy="4" in="blurOut2" result="blurOut3"/><feBlend in="SourceGraphic" in2="blurOut3" mode="normal"/></filter></defs><g><ellipse cx="40.5" cy="26.5" fill="#FEFECE" filter="url(#f1)" rx="8" ry="8" style="stroke: #A80036; stroke-width: 2.0;"/><path d="M40.5,34.5 L40.5,61.5 M27.5,42.5 L53.5,42.5 M40.5,61.5 L27.5,76.5 M40.5,61.5 L53.5,76.5 " fill="#FEFECE" filter="url(#f1)" style="stroke: #A80036; stroke-width: 2.0;"/><text fill="#000000" font-size="14" lengthAdjust="spacingAndGlyphs" textLength="69" x="6" y="97.5">First Actor</text><ellipse cx="137.5" cy="18" fill="#FEFECE" filter="url(#f1)" rx="8" ry="8" style="stroke: #A80036; stroke-width: 2.0;"/><path d="M137.5,26 L137.5,53 M124.5,34 L150.5,34 M137.5,53 L124.5,68 M137.5,53 L150.5,68 " fill="#FEFECE" filter="url(#f1)" style="stroke: #A80036; stroke-width: 2.0;"/><text fill="#000000" font-size="14" lengthAdjust="spacingAndGlyphs" textLength="55" x="110" y="89">Another</text><text fill="#000000" font-size="14" lengthAdjust="spacingAndGlyphs" textLength="35" x="120" y="105.2969">actor</text><ellipse cx="219.5" cy="26.5" fill="#FEFECE" filter="url(#f1)" rx="8" ry="8" style="stroke: #A80036; stroke-width: 2.0;"/><path d="M219.5,34.5 L219.5,61.5 M206.5,42.5 L232.5,42.5 M219.5,61.5 L206.5,76.5 M219.5,61.5 L232.5,76.5 " fill="#FEFECE" filter="url(#f1)" style="stroke: #A80036; stroke-width: 2.0;"/><text fill="#000000" font-size="14" lengthAdjust="spacingAndGlyphs" textLength="39" x="200" y="97.5">Men3</text><ellipse cx="307.5" cy="26.5" fill="#FEFECE" filter="url(#f1)" rx="8" ry="8" style="stroke: #A80036; stroke-width: 2.0;"/><path d="M307.5,34.5 L307.5,61.5 M294.5,42.5 L320.5,42.5 M307.5,61.5 L294.5,76.5 M307.5,61.5 L320.5,76.5 " fill="#FEFECE" filter="url(#f1)" style="stroke: #A80036; stroke-width: 2.0;"/><text fill="#000000" font-size="14" lengthAdjust="spacingAndGlyphs" textLength="67" x="274" y="97.5">Last actor</text></g></svg>