<?xml version="1.0" encoding="UTF-8" standalone="yes"?><svg xmlns="http://www.w3.org/2000/svg" xmlns:xlink="http://www.w3.org/1999/xlink" height="207pt" style="width:206px;height:207px;" version="1.1" viewBox="0 0 206 207" width="206pt"><defs><filter height="300%" id="f1" width="300%" x="-1" y="-1"><feGaussianBlur result="blurOut" stdDeviation="2"/><feColorMatrix in="blurOut" result="blurOut2" type="matrix" values="0 0 0 0 0 0 0 0 0 0 0 0 0 0 0 0 0 0 .4 0"/><feOffset dx="4" dy="4" in="blurOut2" result="blurOut3"/><feBlend in="SourceGraphic" in2="blurOut3" mode="normal"/></filter></defs><g><ellipse cx="26" cy="135.5" fill="#FEFECE" filter="url(#f1)" rx="8" ry="8" style="stroke: #A80036; stroke-width: 2.0;"/><path d="M26,143.5 L26,170.5 M13,151.5 L39,151.5 M26,170.5 L13,185.5 M26,170.5 L39,185.5 " fill="#FEFECE" filter="url(#f1)" style="stroke: #A80036; stroke-width: 2.0;"/><text fill="#000000" font-size="14" lengthAdjust="spacingAndGlyphs" textLength="40" x="6" y="206.5">user1</text><ellipse cx="153" cy="167.1484" fill="#FEFECE" filter="url(#f1)" rx="46.5" ry="18.1484" style="stroke: #A80036; stroke-width: 1.5;"/><text fill="#000000" font-size="14" lengthAdjust="spacingAndGlyphs" textLength="73" x="116.5" y="173">Usecase 1</text><ellipse cx="26" cy="17.5" fill="#FEFECE" filter="url(#f1)" rx="8" ry="8" style="stroke: #A80036; stroke-width: 2.0;"/><path d="M26,25.5 L26,52.5 M13,33.5 L39,33.5 M26,52.5 L13,67.5 M26,52.5 L39,67.5 " fill="#FEFECE" filter="url(#f1)" style="stroke: #A80036; stroke-width: 2.0;"/><text fill="#000000" font-size="14" lengthAdjust="spacingAndGlyphs" textLength="40" x="6" y="88.5">user2</text><ellipse cx="153" cy="49.1484" fill="#FEFECE" filter="url(#f1)" rx="46.5" ry="18.1484" style="stroke: #A80036; stroke-width: 1.5;"/><text fill="#000000" font-size="14" lengthAdjust="spacingAndGlyphs" textLength="73" x="116.5" y="55">Usecase 2</text><path d="M46.2573,167 C60.8427,167 81.5906,167 100.8506,167 " fill="none" style="stroke: #A80036; stroke-width: 1.0;"/><polygon fill="#A80036" points="106.237,167,97.237,163,101.237,167,97.237,171,106.237,167" style="stroke: #A80036; stroke-width: 1.0;"/><path d="M46.2573,49 C60.8427,49 81.5906,49 100.8506,49 " fill="none" style="stroke: #A80036; stroke-width: 1.0;"/><polygon fill="#A80036" points="106.237,49,97.237,45,101.237,49,97.237,53,106.237,49" style="stroke: #A80036; stroke-width: 1.0;"/></g></svg>