<?xml version="1.0" encoding="UTF-8" standalone="yes"?><svg xmlns="http://www.w3.org/2000/svg" xmlns:xlink="http://www.w3.org/1999/xlink" height="234pt" style="width:279px;height:234px;" version="1.1" viewBox="0 0 279 234" width="279pt"><defs><filter height="300%" id="f1" width="300%" x="-1" y="-1"><feGaussianBlur result="blurOut" stdDeviation="2"/><feColorMatrix in="blurOut" result="blurOut2" type="matrix" values="0 0 0 0 0 0 0 0 0 0 0 0 0 0 0 0 0 0 .4 0"/><feOffset dx="4" dy="4" in="blurOut2" result="blurOut3"/><feBlend in="SourceGraphic" in2="blurOut3" mode="normal"/></filter></defs><g><ellipse cx="45.5" cy="162.5" fill="#FEFECE" filter="url(#f1)" rx="8" ry="8" style="stroke: #A80036; stroke-width: 2.0;"/><path d="M45.5,170.5 L45.5,197.5 M32.5,178.5 L58.5,178.5 M45.5,197.5 L32.5,212.5 M45.5,197.5 L58.5,212.5 " fill="#FEFECE" filter="url(#f1)" style="stroke: #A80036; stroke-width: 2.0;"/><text fill="#000000" font-size="14" lengthAdjust="spacingAndGlyphs" textLength="79" x="6" y="233.5">Main Admin</text><ellipse cx="196.25" cy="194.1484" fill="#FEFECE" filter="url(#f1)" rx="76" ry="18.1484" style="stroke: #A80036; stroke-width: 1.5;"/><text fill="#000000" font-size="14" lengthAdjust="spacingAndGlyphs" textLength="132" x="130.25" y="200">Use the application</text><ellipse cx="45.25" cy="18.5" fill="#FEFECE" filter="url(#f1)" rx="8" ry="8" style="stroke: #A80036; stroke-width: 2.0;"/><path d="M45.25,26.5 L45.25,53.5 M32.25,34.5 L58.25,34.5 M45.25,53.5 L32.25,68.5 M45.25,53.5 L58.25,68.5 " fill="#FEFECE" filter="url(#f1)" style="stroke: #A80036; stroke-width: 2.0;"/><text fill="#000000" font-size="14" lengthAdjust="spacingAndGlyphs" textLength="32" x="29.25" y="89.5">User</text><ellipse cx="196.25" cy="50.1484" fill="#FEFECE" filter="url(#f1)" rx="26" ry="18.1484" style="stroke: #A80036; stroke-width: 1.5;"/><text fill="#000000" font-size="14" lengthAdjust="spacingAndGlyphs" textLength="32" x="180.25" y="56">Start</text><path d="M45.25,111.791 C45.25,125.475 45.25,139.6759 45.25,152.3026 " fill="none" style="stroke: #A80036; stroke-width: 1.0;"/><polygon fill="none" points="38.2501,111.692,45.25,91.692,52.2501,111.691,38.2501,111.692" style="stroke: #A80036; stroke-width: 1.0;"/><path d="M196.25,88.356 C196.25,116.661 196.25,154.2447 196.25,175.8107 " fill="none" style="stroke: #A80036; stroke-width: 1.0;"/><polygon fill="none" points="189.25,88.129,196.25,68.129,203.25,88.128,189.25,88.129" style="stroke: #A80036; stroke-width: 1.0;"/></g></svg>