<?xml version="1.0" encoding="UTF-8" standalone="yes"?><svg xmlns="http://www.w3.org/2000/svg" xmlns:xlink="http://www.w3.org/1999/xlink" height="228pt" style="width:457px;height:228px;" version="1.1" viewBox="0 0 457 228" width="457pt"><defs><filter height="300%" id="f1" width="300%" x="-1" y="-1"><feGaussianBlur result="blurOut" stdDeviation="2"/><feColorMatrix in="blurOut" result="blurOut2" type="matrix" values="0 0 0 0 0 0 0 0 0 0 0 0 0 0 0 0 0 0 .4 0"/><feOffset dx="4" dy="4" in="blurOut2" result="blurOut3"/><feBlend in="SourceGraphic" in2="blurOut3" mode="normal"/></filter></defs><g><ellipse cx="59.5" cy="34.2969" fill="#FEFECE" filter="url(#f1)" rx="8" ry="8" style="stroke: #A80036; stroke-width: 2.0;"/><path d="M59.5,42.2969 L59.5,69.2969 M46.5,50.2969 L72.5,50.2969 M59.5,69.2969 L46.5,84.2969 M59.5,69.2969 L72.5,84.2969 " fill="#FEFECE" filter="url(#f1)" style="stroke: #A80036; stroke-width: 2.0;"/><text fill="#000000" font-size="14" lengthAdjust="spacingAndGlyphs" textLength="32" x="43.5" y="105.2969">User</text><text fill="#000000" font-size="14" font-style="italic" lengthAdjust="spacingAndGlyphs" textLength="106" x="6.5" y="22">&lt;&lt; Human &gt;&gt;</text><ellipse cx="390" cy="34.2969" fill="#FEFECE" filter="url(#f1)" rx="8" ry="8" style="stroke: #A80036; stroke-width: 2.0;"/><path d="M390,42.2969 L390,69.2969 M377,50.2969 L403,50.2969 M390,69.2969 L377,84.2969 M390,69.2969 L403,84.2969 " fill="#FEFECE" filter="url(#f1)" style="stroke: #A80036; stroke-width: 2.0;"/><text fill="#000000" font-size="14" lengthAdjust="spacingAndGlyphs" textLength="102" x="339" y="105.2969">Main Database</text><text fill="#000000" font-size="14" font-style="italic" lengthAdjust="spacingAndGlyphs" textLength="132" x="324" y="22">&lt;&lt; Application &gt;&gt;</text><ellipse cx="218.25" cy="57.7969" fill="#FEFECE" filter="url(#f1)" rx="70.5" ry="26.2969" style="stroke: #A80036; stroke-width: 1.5;"/><text fill="#000000" font-size="14" lengthAdjust="spacingAndGlyphs" textLength="32" x="202.25" y="71.7969">Start</text><text fill="#000000" font-size="14" font-style="italic" lengthAdjust="spacingAndGlyphs" textLength="121" x="157.75" y="55.5">&lt;&lt; One Shot &gt;&gt;</text><ellipse cx="224" cy="194.7969" fill="#FEFECE" filter="url(#f1)" rx="76" ry="26.2969" style="stroke: #A80036; stroke-width: 1.5;"/><text fill="#000000" font-size="14" lengthAdjust="spacingAndGlyphs" textLength="132" x="158" y="208.7969">Use the application</text><text fill="#000000" font-size="14" font-style="italic" lengthAdjust="spacingAndGlyphs" textLength="88" x="180" y="192.5">&lt;&lt; Main &gt;&gt;</text><path d="M111.793,58 C122.013,58 132.234,58 142.455,58 " fill="none" style="stroke: #A80036; stroke-width: 1.0;"/><polygon fill="#A80036" points="147.472,58,138.472,54,142.472,58,138.472,62,147.472,58" style="stroke: #A80036; stroke-width: 1.0;"/><path d="M111.661,102.086 C137.587,123.2981 168.056,148.2276 190.717,166.7684 " fill="none" style="stroke: #A80036; stroke-width: 1.0;"/><polygon fill="#A80036" points="194.854,170.1537,190.4226,161.3581,190.9847,166.987,185.3558,167.5491,194.854,170.1537" style="stroke: #A80036; stroke-width: 1.0;"/><path d="M329.601,108.12 C305.092,128.0513 277.738,150.297 257.012,167.1528 " fill="none" style="stroke: #A80036; stroke-width: 1.0;"/><polygon fill="#A80036" points="252.958,170.4498,262.4644,167.8753,256.8374,167.2953,257.4173,161.6683,252.958,170.4498" style="stroke: #A80036; stroke-width: 1.0;"/></g></svg>