<?xml version="1.0" encoding="UTF-8" standalone="yes"?><svg xmlns="http://www.w3.org/2000/svg" xmlns:xlink="http://www.w3.org/1999/xlink" height="291pt" style="width:317px;height:291px;" version="1.1" viewBox="0 0 317 291" width="317pt"><defs><filter height="300%" id="f1" width="300%" x="-1" y="-1"><feGaussianBlur result="blurOut" stdDeviation="2"/><feColorMatrix in="blurOut" result="blurOut2" type="matrix" values="0 0 0 0 0 0 0 0 0 0 0 0 0 0 0 0 0 0 .4 0"/><feOffset dx="4" dy="4" in="blurOut2" result="blurOut3"/><feBlend in="SourceGraphic" in2="blurOut3" mode="normal"/></filter></defs><g><ellipse cx="153.25" cy="114.5" fill="#FEFECE" filter="url(#f1)" rx="8" ry="8" style="stroke: #A80036; stroke-width: 2.0;"/><path d="M153.25,122.5 L153.25,149.5 M140.25,130.5 L166.25,130.5 M153.25,149.5 L140.25,164.5 M153.25,149.5 L166.25,164.5 " fill="#FEFECE" filter="url(#f1)" style="stroke: #A80036; stroke-width: 2.0;"/><text fill="#000000" font-size="14" lengthAdjust="spacingAndGlyphs" textLength="31" x="137.75" y="185.5">user</text><ellipse cx="54" cy="146.1484" fill="#FEFECE" filter="url(#f1)" rx="48" ry="18.1484" style="stroke: #A80036; stroke-width: 1.5;"/><text fill="#000000" font-size="14" lengthAdjust="spacingAndGlyphs" textLength="76" x="16" y="152">dummyLeft</text><ellipse cx="257.25" cy="146.1484" fill="#FEFECE" filter="url(#f1)" rx="53.5" ry="18.1484" style="stroke: #A80036; stroke-width: 1.5;"/><text fill="#000000" font-size="14" lengthAdjust="spacingAndGlyphs" textLength="87" x="213.75" y="152">dummyRight</text><ellipse cx="153" cy="26.1484" fill="#FEFECE" filter="url(#f1)" rx="45" ry="18.1484" style="stroke: #A80036; stroke-width: 1.5;"/><text fill="#000000" font-size="14" lengthAdjust="spacingAndGlyphs" textLength="70" x="118" y="32">dummyUp</text><ellipse cx="153.25" cy="266.1484" fill="#FEFECE" filter="url(#f1)" rx="55.5" ry="18.1484" style="stroke: #A80036; stroke-width: 1.5;"/><text fill="#000000" font-size="14" lengthAdjust="spacingAndGlyphs" textLength="91" x="107.75" y="272">dummyDown</text><path d="M107.569,146 C117.567,146 127.566,146 137.564,146 " fill="none" style="stroke: #A80036; stroke-width: 1.0;"/><polygon fill="#A80036" points="102.3398,146,111.3398,150,107.3398,146,111.3398,142,102.3398,146" style="stroke: #A80036; stroke-width: 1.0;"/><path d="M168.438,146 C178.454,146 188.47,146 198.486,146 " fill="none" style="stroke: #A80036; stroke-width: 1.0;"/><polygon fill="#A80036" points="203.724,146,194.724,142,198.724,146,194.724,150,203.724,146" style="stroke: #A80036; stroke-width: 1.0;"/><path d="M153,49.19 C153,64.702 153,85.867 153,104.359 " fill="none" style="stroke: #A80036; stroke-width: 1.0;"/><polygon fill="#A80036" points="153,44.158,149,53.158,153,49.158,157,53.158,153,44.158" style="stroke: #A80036; stroke-width: 1.0;"/><path d="M153,187.6089 C153,206.0567 153,227.1699 153,242.6788 " fill="none" style="stroke: #A80036; stroke-width: 1.0;"/><polygon fill="#A80036" points="153,247.7115,157,238.7115,153,242.7115,149,238.7115,153,247.7115" style="stroke: #A80036; stroke-width: 1.0;"/></g></svg>