<?xml version="1.0" encoding="UTF-8" standalone="yes"?><svg xmlns="http://www.w3.org/2000/svg" xmlns:xlink="http://www.w3.org/1999/xlink" height="195pt" style="width:208px;height:195px;" version="1.1" viewBox="0 0 208 195" width="208pt"><defs><filter height="300%" id="f1" width="300%" x="-1" y="-1"><feGaussianBlur result="blurOut" stdDeviation="2"/><feColorMatrix in="blurOut" result="blurOut2" type="matrix" values="0 0 0 0 0 0 0 0 0 0 0 0 0 0 0 0 0 0 .4 0"/><feOffset dx="4" dy="4" in="blurOut2" result="blurOut3"/><feBlend in="SourceGraphic" in2="blurOut3" mode="normal"/></filter></defs><g><ellipse cx="54.25" cy="18.5" fill="#FEFECE" filter="url(#f1)" rx="8" ry="8" style="stroke: #A80036; stroke-width: 2.0;"/><path d="M54.25,26.5 L54.25,53.5 M41.25,34.5 L67.25,34.5 M54.25,53.5 L41.25,68.5 M54.25,53.5 L67.25,68.5 " fill="#FEFECE" filter="url(#f1)" style="stroke: #A80036; stroke-width: 2.0;"/><text fill="#000000" font-size="14" lengthAdjust="spacingAndGlyphs" textLength="31" x="38.75" y="89.5">user</text><ellipse cx="54.25" cy="170.1484" fill="#FEFECE" filter="url(#f1)" rx="48.5" ry="18.1484" style="stroke: #A80036; stroke-width: 1.5;"/><text fill="#000000" font-size="14" lengthAdjust="spacingAndGlyphs" textLength="77" x="15.75" y="176">Use case 1</text><ellipse cx="153.25" cy="50.1484" fill="#FEFECE" filter="url(#f1)" rx="48.5" ry="18.1484" style="stroke: #A80036; stroke-width: 1.5;"/><text fill="#000000" font-size="14" lengthAdjust="spacingAndGlyphs" textLength="77" x="114.75" y="56">Use case 2</text><path d="M54,91.6089 C54,110.0567 54,131.1699 54,146.6788 " fill="none" style="stroke: #A80036; stroke-width: 1.0;"/><polygon fill="#A80036" points="54,151.7115,58,142.7115,54,146.7115,50,142.7115,54,151.7115" style="stroke: #A80036; stroke-width: 1.0;"/><path d="M69.4688,50 C79.4717,50 89.4746,50 99.4776,50 " fill="none" style="stroke: #A80036; stroke-width: 1.0;"/><polygon fill="#A80036" points="104.7085,50,95.7085,46,99.7085,50,95.7085,54,104.7085,50" style="stroke: #A80036; stroke-width: 1.0;"/></g></svg>